<ttFont>
    <TTGlyph name="A" xMin="0" yMin="-3" xMax="694" yMax="694">
      <contour>
        <pt x="250" y="-3" on="1"/>
        <pt x="187" y="0" on="0"/>
        <pt x="66" y="0" on="0"/>
        <pt x="3" y="-3" on="1"/>
        <pt x="0" y="26" on="1"/>
        <pt x="46" y="35" on="0"/>
        <pt x="84" y="56" on="0"/>
        <pt x="90" y="75" on="1"/>
        <pt x="289" y="684" on="1"/>
        <pt x="376" y="694" on="1"/>
        <pt x="609" y="69" on="1"/>
        <pt x="616" y="52" on="0"/>
        <pt x="649" y="35" on="0"/>
        <pt x="694" y="26" on="1"/>
        <pt x="691" y="-3" on="1"/>
        <pt x="628" y="0" on="0"/>
        <pt x="480" y="0" on="0"/>
        <pt x="417" y="-3" on="1"/>
        <pt x="414" y="26" on="1"/>
        <pt x="485" y="40" on="0"/>
        <pt x="496" y="52" on="1"/>
        <pt x="502" y="57" on="0"/>
        <pt x="502" y="68" on="0"/>
        <pt x="447" y="242" on="1"/>
        <pt x="221" y="242" on="1"/>
        <pt x="167" y="64" on="1"/>
        <pt x="167" y="51" on="0"/>
        <pt x="207" y="35" on="0"/>
        <pt x="253" y="26" on="1"/>
      </contour>
      <contour>
        <pt x="330" y="590" on="1"/>
        <pt x="326" y="590" on="1"/>
        <pt x="319" y="566" on="0"/>
        <pt x="298" y="499" on="0"/>
        <pt x="256" y="358" on="0"/>
        <pt x="235" y="288" on="1"/>
        <pt x="431" y="288" on="1"/>
      </contour>
    </TTGlyph>
    <TTGlyph name="AE" xMin="0" yMin="-3" xMax="933" yMax="691">
      <contour>
        <pt x="275" y="327" on="1"/>
        <pt x="168" y="80" on="0"/>
        <pt x="168" y="51" on="0"/>
        <pt x="208" y="35" on="0"/>
        <pt x="254" y="26" on="1"/>
        <pt x="251" y="-3" on="1"/>
        <pt x="188" y="0" on="0"/>
        <pt x="66" y="0" on="0"/>
        <pt x="3" y="-3" on="1"/>
        <pt x="0" y="26" on="1"/>
        <pt x="44" y="35" on="0"/>
        <pt x="82" y="56" on="0"/>
        <pt x="90" y="75" on="1"/>
        <pt x="371" y="685" on="1"/>
        <pt x="588" y="685" on="1"/>
        <pt x="746" y="685" on="0"/>
        <pt x="890" y="691" on="1"/>
        <pt x="890" y="680" on="1"/>
        <pt x="890" y="601" on="0"/>
        <pt x="902" y="529" on="1"/>
        <pt x="875" y="517" on="1"/>
        <pt x="860" y="568" on="0"/>
        <pt x="834" y="603" on="0"/>
        <pt x="819" y="621" on="0"/>
        <pt x="786" y="634" on="0"/>
        <pt x="763" y="640" on="0"/>
        <pt x="738" y="642" on="1"/>
        <pt x="695" y="644" on="0"/>
        <pt x="588" y="644" on="0"/>
        <pt x="585" y="621" on="1"/>
        <pt x="575" y="556" on="0"/>
        <pt x="574" y="367" on="1"/>
        <pt x="701" y="367" on="0"/>
        <pt x="752" y="379" on="0"/>
        <pt x="767" y="411" on="0"/>
        <pt x="777" y="463" on="1"/>
        <pt x="812" y="459" on="1"/>
        <pt x="804" y="401" on="0"/>
        <pt x="804" y="295" on="0"/>
        <pt x="812" y="236" on="1"/>
        <pt x="777" y="231" on="1"/>
        <pt x="767" y="283" on="0"/>
        <pt x="752" y="315" on="0"/>
        <pt x="701" y="327" on="0"/>
        <pt x="574" y="327" on="1"/>
        <pt x="574" y="152" on="0"/>
        <pt x="582" y="87" on="1"/>
        <pt x="585" y="68" on="1"/>
        <pt x="594" y="36" on="0"/>
        <pt x="686" y="36" on="1"/>
        <pt x="732" y="36" on="0"/>
        <pt x="787" y="43" on="0"/>
        <pt x="818" y="56" on="1"/>
        <pt x="876" y="79" on="0"/>
        <pt x="906" y="171" on="1"/>
        <pt x="933" y="159" on="1"/>
        <pt x="915" y="104" on="0"/>
        <pt x="909" y="0" on="1"/>
        <pt x="509" y="0" on="1"/>
        <pt x="452" y="0" on="0"/>
        <pt x="389" y="-3" on="1"/>
        <pt x="386" y="26" on="1"/>
        <pt x="437" y="36" on="0"/>
        <pt x="473" y="52" on="0"/>
        <pt x="475" y="69" on="1"/>
        <pt x="483" y="125" on="0"/>
        <pt x="484" y="327" on="1"/>
      </contour>
      <contour>
        <pt x="418" y="649" on="1"/>
        <pt x="293" y="367" on="1"/>
        <pt x="484" y="367" on="1"/>
        <pt x="479" y="619" on="1"/>
        <pt x="477" y="637" on="0"/>
        <pt x="452" y="649" on="0"/>
      </contour>
    </TTGlyph>
    <TTGlyph name="Aacute" xMin="0" yMin="-3" xMax="694" yMax="951">
      <contour>
        <pt x="250" y="-3" on="1"/>
        <pt x="187" y="0" on="0"/>
        <pt x="66" y="0" on="0"/>
        <pt x="3" y="-3" on="1"/>
        <pt x="0" y="26" on="1"/>
        <pt x="46" y="35" on="0"/>
        <pt x="84" y="56" on="0"/>
        <pt x="90" y="75" on="1"/>
        <pt x="289" y="684" on="1"/>
        <pt x="376" y="694" on="1"/>
        <pt x="609" y="69" on="1"/>
        <pt x="616" y="52" on="0"/>
        <pt x="649" y="35" on="0"/>
        <pt x="694" y="26" on="1"/>
        <pt x="691" y="-3" on="1"/>
        <pt x="628" y="0" on="0"/>
        <pt x="480" y="0" on="0"/>
        <pt x="417" y="-3" on="1"/>
        <pt x="414" y="26" on="1"/>
        <pt x="485" y="40" on="0"/>
        <pt x="496" y="52" on="1"/>
        <pt x="502" y="57" on="0"/>
        <pt x="502" y="68" on="0"/>
        <pt x="447" y="242" on="1"/>
        <pt x="221" y="242" on="1"/>
        <pt x="167" y="64" on="1"/>
        <pt x="167" y="51" on="0"/>
        <pt x="207" y="35" on="0"/>
        <pt x="253" y="26" on="1"/>
      </contour>
      <contour>
        <pt x="330" y="590" on="1"/>
        <pt x="326" y="590" on="1"/>
        <pt x="319" y="566" on="0"/>
        <pt x="298" y="499" on="0"/>
        <pt x="256" y="358" on="0"/>
        <pt x="235" y="288" on="1"/>
        <pt x="431" y="288" on="1"/>
      </contour>
      <contour>
        <pt x="478" y="909" on="1"/>
        <pt x="305" y="747" on="1"/>
        <pt x="275" y="752" on="1"/>
        <pt x="409" y="951" on="1"/>
        <pt x="434" y="951" on="0"/>
        <pt x="476" y="926" on="0"/>
      </contour>
    </TTGlyph>
    <TTGlyph name="Acircumflex" xMin="0" yMin="-3" xMax="694" yMax="950">
      <contour>
        <pt x="250" y="-3" on="1"/>
        <pt x="187" y="0" on="0"/>
        <pt x="66" y="0" on="0"/>
        <pt x="3" y="-3" on="1"/>
        <pt x="0" y="26" on="1"/>
        <pt x="46" y="35" on="0"/>
        <pt x="84" y="56" on="0"/>
        <pt x="90" y="75" on="1"/>
        <pt x="289" y="684" on="1"/>
        <pt x="376" y="694" on="1"/>
        <pt x="609" y="69" on="1"/>
        <pt x="616" y="52" on="0"/>
        <pt x="649" y="35" on="0"/>
        <pt x="694" y="26" on="1"/>
        <pt x="691" y="-3" on="1"/>
        <pt x="628" y="0" on="0"/>
        <pt x="480" y="0" on="0"/>
        <pt x="417" y="-3" on="1"/>
        <pt x="414" y="26" on="1"/>
        <pt x="485" y="40" on="0"/>
        <pt x="496" y="52" on="1"/>
        <pt x="502" y="57" on="0"/>
        <pt x="502" y="68" on="0"/>
        <pt x="447" y="242" on="1"/>
        <pt x="221" y="242" on="1"/>
        <pt x="167" y="64" on="1"/>
        <pt x="167" y="51" on="0"/>
        <pt x="207" y="35" on="0"/>
        <pt x="253" y="26" on="1"/>
      </contour>
      <contour>
        <pt x="330" y="590" on="1"/>
        <pt x="326" y="590" on="1"/>
        <pt x="319" y="566" on="0"/>
        <pt x="298" y="499" on="0"/>
        <pt x="256" y="358" on="0"/>
        <pt x="235" y="288" on="1"/>
        <pt x="431" y="288" on="1"/>
      </contour>
      <contour>
        <pt x="328" y="947" on="1"/>
        <pt x="334" y="950" on="0"/>
        <pt x="357" y="950" on="0"/>
        <pt x="365" y="946" on="1"/>
        <pt x="459" y="752" on="1"/>
        <pt x="429" y="747" on="1"/>
        <pt x="346" y="851" on="1"/>
        <pt x="264" y="747" on="1"/>
        <pt x="234" y="752" on="1"/>
      </contour>
    </TTGlyph>
    <TTGlyph name="Adieresis" xMin="0" yMin="-3" xMax="694" yMax="898">
      <contour>
        <pt x="250" y="-3" on="1"/>
        <pt x="187" y="0" on="0"/>
        <pt x="66" y="0" on="0"/>
        <pt x="3" y="-3" on="1"/>
        <pt x="0" y="26" on="1"/>
        <pt x="46" y="35" on="0"/>
        <pt x="84" y="56" on="0"/>
        <pt x="90" y="75" on="1"/>
        <pt x="289" y="684" on="1"/>
        <pt x="376" y="694" on="1"/>
        <pt x="609" y="69" on="1"/>
        <pt x="616" y="52" on="0"/>
        <pt x="649" y="35" on="0"/>
        <pt x="694" y="26" on="1"/>
        <pt x="691" y="-3" on="1"/>
        <pt x="628" y="0" on="0"/>
        <pt x="480" y="0" on="0"/>
        <pt x="417" y="-3" on="1"/>
        <pt x="414" y="26" on="1"/>
        <pt x="485" y="40" on="0"/>
        <pt x="496" y="52" on="1"/>
        <pt x="502" y="57" on="0"/>
        <pt x="502" y="68" on="0"/>
        <pt x="447" y="242" on="1"/>
        <pt x="221" y="242" on="1"/>
        <pt x="167" y="64" on="1"/>
        <pt x="167" y="51" on="0"/>
        <pt x="207" y="35" on="0"/>
        <pt x="253" y="26" on="1"/>
      </contour>
      <contour>
        <pt x="330" y="590" on="1"/>
        <pt x="326" y="590" on="1"/>
        <pt x="319" y="566" on="0"/>
        <pt x="298" y="499" on="0"/>
        <pt x="256" y="358" on="0"/>
        <pt x="235" y="288" on="1"/>
        <pt x="431" y="288" on="1"/>
      </contour>
      <contour>
        <pt x="459" y="792" on="0"/>
        <pt x="415" y="792" on="0"/>
        <pt x="385" y="823" on="0"/>
        <pt x="385" y="868" on="0"/>
        <pt x="415" y="898" on="0"/>
        <pt x="459" y="898" on="0"/>
        <pt x="489" y="868" on="0"/>
        <pt x="489" y="823" on="0"/>
      </contour>
      <contour>
        <pt x="279" y="792" on="0"/>
        <pt x="235" y="792" on="0"/>
        <pt x="205" y="823" on="0"/>
        <pt x="205" y="868" on="0"/>
        <pt x="235" y="898" on="0"/>
        <pt x="279" y="898" on="0"/>
        <pt x="309" y="868" on="0"/>
        <pt x="309" y="823" on="0"/>
      </contour>
    </TTGlyph>
    <TTGlyph name="Agrave" xMin="0" yMin="-3" xMax="694" yMax="951">
      <contour>
        <pt x="250" y="-3" on="1"/>
        <pt x="187" y="0" on="0"/>
        <pt x="66" y="0" on="0"/>
        <pt x="3" y="-3" on="1"/>
        <pt x="0" y="26" on="1"/>
        <pt x="46" y="35" on="0"/>
        <pt x="84" y="56" on="0"/>
        <pt x="90" y="75" on="1"/>
        <pt x="289" y="684" on="1"/>
        <pt x="376" y="694" on="1"/>
        <pt x="609" y="69" on="1"/>
        <pt x="616" y="52" on="0"/>
        <pt x="649" y="35" on="0"/>
        <pt x="694" y="26" on="1"/>
        <pt x="691" y="-3" on="1"/>
        <pt x="628" y="0" on="0"/>
        <pt x="480" y="0" on="0"/>
        <pt x="417" y="-3" on="1"/>
        <pt x="414" y="26" on="1"/>
        <pt x="485" y="40" on="0"/>
        <pt x="496" y="52" on="1"/>
        <pt x="502" y="57" on="0"/>
        <pt x="502" y="68" on="0"/>
        <pt x="447" y="242" on="1"/>
        <pt x="221" y="242" on="1"/>
        <pt x="167" y="64" on="1"/>
        <pt x="167" y="51" on="0"/>
        <pt x="207" y="35" on="0"/>
        <pt x="253" y="26" on="1"/>
      </contour>
      <contour>
        <pt x="330" y="590" on="1"/>
        <pt x="326" y="590" on="1"/>
        <pt x="319" y="566" on="0"/>
        <pt x="298" y="499" on="0"/>
        <pt x="256" y="358" on="0"/>
        <pt x="235" y="288" on="1"/>
        <pt x="431" y="288" on="1"/>
      </contour>
      <contour>
        <pt x="362" y="747" on="1"/>
        <pt x="189" y="909" on="1"/>
        <pt x="191" y="926" on="0"/>
        <pt x="233" y="951" on="0"/>
        <pt x="258" y="951" on="1"/>
        <pt x="392" y="752" on="1"/>
      </contour>
    </TTGlyph>
    <TTGlyph name="Aring" xMin="0" yMin="-3" xMax="694" yMax="953">
      <contour>
        <pt x="250" y="-3" on="1"/>
        <pt x="187" y="0" on="0"/>
        <pt x="66" y="0" on="0"/>
        <pt x="3" y="-3" on="1"/>
        <pt x="0" y="26" on="1"/>
        <pt x="46" y="35" on="0"/>
        <pt x="84" y="56" on="0"/>
        <pt x="90" y="75" on="1"/>
        <pt x="289" y="684" on="1"/>
        <pt x="376" y="694" on="1"/>
        <pt x="609" y="69" on="1"/>
        <pt x="616" y="52" on="0"/>
        <pt x="649" y="35" on="0"/>
        <pt x="694" y="26" on="1"/>
        <pt x="691" y="-3" on="1"/>
        <pt x="628" y="0" on="0"/>
        <pt x="480" y="0" on="0"/>
        <pt x="417" y="-3" on="1"/>
        <pt x="414" y="26" on="1"/>
        <pt x="485" y="40" on="0"/>
        <pt x="496" y="52" on="1"/>
        <pt x="502" y="57" on="0"/>
        <pt x="502" y="68" on="0"/>
        <pt x="447" y="242" on="1"/>
        <pt x="221" y="242" on="1"/>
        <pt x="167" y="64" on="1"/>
        <pt x="167" y="51" on="0"/>
        <pt x="207" y="35" on="0"/>
        <pt x="253" y="26" on="1"/>
      </contour>
      <contour>
        <pt x="330" y="590" on="1"/>
        <pt x="326" y="590" on="1"/>
        <pt x="319" y="566" on="0"/>
        <pt x="298" y="499" on="0"/>
        <pt x="256" y="358" on="0"/>
        <pt x="235" y="288" on="1"/>
        <pt x="431" y="288" on="1"/>
      </contour>
      <contour>
        <pt x="346" y="774" on="1"/>
        <pt x="395" y="774" on="0"/>
        <pt x="395" y="923" on="0"/>
        <pt x="294" y="923" on="0"/>
        <pt x="294" y="853" on="1"/>
        <pt x="294" y="820" on="0"/>
        <pt x="320" y="774" on="0"/>
      </contour>
      <contour>
        <pt x="303" y="744" on="0"/>
        <pt x="242" y="805" on="0"/>
        <pt x="242" y="892" on="0"/>
        <pt x="304" y="953" on="0"/>
        <pt x="390" y="953" on="0"/>
        <pt x="451" y="892" on="0"/>
        <pt x="451" y="804" on="0"/>
        <pt x="390" y="744" on="0"/>
      </contour>
    </TTGlyph>
    <TTGlyph name="Atilde" xMin="0" yMin="-3" xMax="694" yMax="894">
      <contour>
        <pt x="250" y="-3" on="1"/>
        <pt x="187" y="0" on="0"/>
        <pt x="66" y="0" on="0"/>
        <pt x="3" y="-3" on="1"/>
        <pt x="0" y="26" on="1"/>
        <pt x="45" y="35" on="0"/>
        <pt x="83" y="56" on="0"/>
        <pt x="90" y="75" on="1"/>
        <pt x="289" y="684" on="1"/>
        <pt x="376" y="694" on="1"/>
        <pt x="609" y="69" on="1"/>
        <pt x="616" y="52" on="0"/>
        <pt x="649" y="35" on="0"/>
        <pt x="694" y="26" on="1"/>
        <pt x="691" y="-3" on="1"/>
        <pt x="628" y="0" on="0"/>
        <pt x="480" y="0" on="0"/>
        <pt x="417" y="-3" on="1"/>
        <pt x="414" y="26" on="1"/>
        <pt x="485" y="40" on="0"/>
        <pt x="496" y="52" on="1"/>
        <pt x="502" y="57" on="0"/>
        <pt x="502" y="68" on="0"/>
        <pt x="447" y="242" on="1"/>
        <pt x="221" y="242" on="1"/>
        <pt x="167" y="64" on="1"/>
        <pt x="167" y="51" on="0"/>
        <pt x="207" y="35" on="0"/>
        <pt x="253" y="26" on="1"/>
      </contour>
      <contour>
        <pt x="330" y="590" on="1"/>
        <pt x="326" y="590" on="1"/>
        <pt x="319" y="566" on="0"/>
        <pt x="298" y="499" on="0"/>
        <pt x="256" y="358" on="0"/>
        <pt x="235" y="288" on="1"/>
        <pt x="431" y="288" on="1"/>
      </contour>
      <contour>
        <pt x="421" y="784" on="1"/>
        <pt x="398" y="784" on="0"/>
        <pt x="300" y="823" on="0"/>
        <pt x="276" y="823" on="1"/>
        <pt x="236" y="823" on="0"/>
        <pt x="209" y="785" on="1"/>
        <pt x="183" y="793" on="1"/>
        <pt x="213" y="894" on="0"/>
        <pt x="273" y="894" on="1"/>
        <pt x="295" y="894" on="0"/>
        <pt x="394" y="855" on="0"/>
        <pt x="418" y="855" on="1"/>
        <pt x="456" y="855" on="0"/>
        <pt x="485" y="893" on="1"/>
        <pt x="511" y="885" on="1"/>
        <pt x="480" y="784" on="0"/>
      </contour>
    </TTGlyph>
    <TTGlyph name="B" xMin="29" yMin="-3" xMax="577" yMax="688">
      <contour>
        <pt x="173" y="685" on="1"/>
        <pt x="341" y="685" on="1"/>
        <pt x="435" y="685" on="0"/>
        <pt x="533" y="593" on="0"/>
        <pt x="533" y="525" on="1"/>
        <pt x="533" y="479" on="0"/>
        <pt x="477" y="396" on="0"/>
        <pt x="428" y="372" on="1"/>
        <pt x="507" y="354" on="0"/>
        <pt x="577" y="266" on="0"/>
        <pt x="577" y="116" on="0"/>
        <pt x="451" y="0" on="0"/>
        <pt x="357" y="0" on="1"/>
        <pt x="173" y="0" on="1"/>
        <pt x="95" y="0" on="0"/>
        <pt x="32" y="-3" on="1"/>
        <pt x="29" y="26" on="1"/>
        <pt x="80" y="36" on="0"/>
        <pt x="116" y="52" on="0"/>
        <pt x="118" y="69" on="1"/>
        <pt x="126" y="128" on="0"/>
        <pt x="126" y="283" on="1"/>
        <pt x="126" y="534" on="0"/>
        <pt x="120" y="596" on="1"/>
        <pt x="118" y="616" on="1"/>
        <pt x="116" y="634" on="0"/>
        <pt x="84" y="649" on="0"/>
        <pt x="36" y="659" on="1"/>
        <pt x="39" y="688" on="1"/>
        <pt x="102" y="685" on="0"/>
      </contour>
      <contour>
        <pt x="439" y="525" on="1"/>
        <pt x="439" y="643" on="0"/>
        <pt x="287" y="643" on="1"/>
        <pt x="251" y="643" on="0"/>
        <pt x="230" y="635" on="0"/>
        <pt x="226" y="621" on="1"/>
        <pt x="215" y="570" on="0"/>
        <pt x="215" y="368" on="1"/>
        <pt x="285" y="380" on="0"/>
        <pt x="364" y="380" on="1"/>
        <pt x="439" y="429" on="0"/>
      </contour>
      <contour>
        <pt x="327" y="36" on="1"/>
        <pt x="390" y="36" on="0"/>
        <pt x="482" y="120" on="0"/>
        <pt x="482" y="193" on="1"/>
        <pt x="482" y="338" on="0"/>
        <pt x="278" y="338" on="1"/>
        <pt x="248" y="338" on="0"/>
        <pt x="215" y="335" on="1"/>
        <pt x="215" y="138" on="0"/>
        <pt x="223" y="87" on="1"/>
        <pt x="226" y="68" on="1"/>
        <pt x="235" y="36" on="0"/>
      </contour>
    </TTGlyph>
    <TTGlyph name="C" xMin="48" yMin="-12" xMax="668" yMax="694">
      <contour>
        <pt x="407" y="37" on="1"/>
        <pt x="501" y="37" on="0"/>
        <pt x="621" y="114" on="0"/>
        <pt x="641" y="180" on="1"/>
        <pt x="668" y="168" on="1"/>
        <pt x="657" y="132" on="0"/>
        <pt x="645" y="34" on="1"/>
        <pt x="522" y="-12" on="0"/>
        <pt x="404" y="-12" on="1"/>
        <pt x="240" y="-12" on="0"/>
        <pt x="48" y="167" on="0"/>
        <pt x="48" y="485" on="0"/>
        <pt x="238" y="694" on="0"/>
        <pt x="403" y="694" on="1"/>
        <pt x="449" y="694" on="0"/>
        <pt x="563" y="679" on="0"/>
        <pt x="605" y="679" on="0"/>
        <pt x="629" y="685" on="1"/>
        <pt x="629" y="670" on="1"/>
        <pt x="629" y="597" on="0"/>
        <pt x="641" y="529" on="1"/>
        <pt x="614" y="517" on="1"/>
        <pt x="574" y="648" on="0"/>
        <pt x="402" y="648" on="1"/>
        <pt x="302" y="648" on="0"/>
        <pt x="230" y="577" on="1"/>
        <pt x="194" y="542" on="0"/>
        <pt x="153" y="426" on="0"/>
        <pt x="153" y="293" on="0"/>
        <pt x="181" y="185" on="0"/>
        <pt x="239" y="93" on="0"/>
        <pt x="341" y="37" on="0"/>
      </contour>
    </TTGlyph>
    <TTGlyph name="Ccedilla" xMin="48" yMin="-259" xMax="668" yMax="694">
      <contour>
        <pt x="407" y="37" on="1"/>
        <pt x="501" y="37" on="0"/>
        <pt x="621" y="114" on="0"/>
        <pt x="641" y="180" on="1"/>
        <pt x="668" y="168" on="1"/>
        <pt x="657" y="132" on="0"/>
        <pt x="645" y="34" on="1"/>
        <pt x="522" y="-12" on="0"/>
        <pt x="404" y="-12" on="1"/>
        <pt x="387" y="-12" on="0"/>
        <pt x="359" y="-10" on="1"/>
        <pt x="357" y="-15" on="0"/>
        <pt x="357" y="-39" on="0"/>
        <pt x="435" y="-100" on="0"/>
        <pt x="435" y="-125" on="1"/>
        <pt x="435" y="-160" on="0"/>
        <pt x="355" y="-230" on="0"/>
        <pt x="277" y="-259" on="1"/>
        <pt x="261" y="-246" on="0"/>
        <pt x="261" y="-199" on="0"/>
        <pt x="284" y="-180" on="1"/>
        <pt x="381" y="-175" on="0"/>
        <pt x="381" y="-145" on="1"/>
        <pt x="381" y="-130" on="0"/>
        <pt x="314" y="-78" on="0"/>
        <pt x="314" y="-31" on="0"/>
        <pt x="330" y="-7" on="1"/>
        <pt x="198" y="12" on="0"/>
        <pt x="48" y="187" on="0"/>
        <pt x="48" y="485" on="0"/>
        <pt x="238" y="694" on="0"/>
        <pt x="403" y="694" on="1"/>
        <pt x="449" y="694" on="0"/>
        <pt x="563" y="679" on="0"/>
        <pt x="605" y="679" on="0"/>
        <pt x="629" y="685" on="1"/>
        <pt x="629" y="670" on="1"/>
        <pt x="629" y="597" on="0"/>
        <pt x="641" y="529" on="1"/>
        <pt x="614" y="517" on="1"/>
        <pt x="574" y="648" on="0"/>
        <pt x="402" y="648" on="1"/>
        <pt x="302" y="648" on="0"/>
        <pt x="230" y="577" on="1"/>
        <pt x="194" y="542" on="0"/>
        <pt x="153" y="426" on="0"/>
        <pt x="153" y="293" on="0"/>
        <pt x="181" y="185" on="0"/>
        <pt x="239" y="93" on="0"/>
        <pt x="341" y="37" on="0"/>
      </contour>
    </TTGlyph>
    <TTGlyph name="D" xMin="29" yMin="-3" xMax="720" yMax="688">
      <contour>
        <pt x="173" y="685" on="1"/>
        <pt x="351" y="685" on="1"/>
        <pt x="467" y="685" on="0"/>
        <pt x="558" y="640" on="1"/>
        <pt x="659" y="588" on="0"/>
        <pt x="698" y="488" on="1"/>
        <pt x="720" y="433" on="0"/>
        <pt x="720" y="365" on="1"/>
        <pt x="720" y="204" on="0"/>
        <pt x="522" y="0" on="0"/>
        <pt x="334" y="0" on="1"/>
        <pt x="173" y="0" on="1"/>
        <pt x="95" y="0" on="0"/>
        <pt x="32" y="-3" on="1"/>
        <pt x="29" y="26" on="1"/>
        <pt x="80" y="36" on="0"/>
        <pt x="116" y="52" on="0"/>
        <pt x="118" y="69" on="1"/>
        <pt x="126" y="128" on="0"/>
        <pt x="126" y="283" on="1"/>
        <pt x="126" y="534" on="0"/>
        <pt x="120" y="596" on="1"/>
        <pt x="118" y="616" on="1"/>
        <pt x="116" y="634" on="0"/>
        <pt x="84" y="649" on="0"/>
        <pt x="36" y="659" on="1"/>
        <pt x="39" y="688" on="1"/>
        <pt x="102" y="685" on="0"/>
      </contour>
      <contour>
        <pt x="227" y="60" on="1"/>
        <pt x="281" y="48" on="0"/>
        <pt x="403" y="48" on="0"/>
        <pt x="513" y="97" on="0"/>
        <pt x="571" y="164" on="0"/>
        <pt x="588" y="210" on="1"/>
        <pt x="615" y="278" on="0"/>
        <pt x="615" y="350" on="1"/>
        <pt x="615" y="643" on="0"/>
        <pt x="289" y="643" on="1"/>
        <pt x="253" y="643" on="0"/>
        <pt x="230" y="635" on="0"/>
        <pt x="227" y="622" on="1"/>
        <pt x="216" y="557" on="0"/>
        <pt x="216" y="402" on="1"/>
        <pt x="216" y="161" on="0"/>
        <pt x="224" y="83" on="1"/>
      </contour>
    </TTGlyph>
    <TTGlyph name="Delta" xMin="0" yMin="0" xMax="615" yMax="691">
      <contour>
        <pt x="321" y="691" on="1"/>
        <pt x="332" y="691" on="1"/>
        <pt x="615" y="0" on="1"/>
        <pt x="0" y="0" on="1"/>
      </contour>
      <contour>
        <pt x="488" y="50" on="1"/>
        <pt x="290" y="528" on="1"/>
        <pt x="67" y="50" on="1"/>
      </contour>
    </TTGlyph>
    <TTGlyph name="E" xMin="27" yMin="-3" xMax="574" yMax="691">
      <contour>
        <pt x="215" y="327" on="1"/>
        <pt x="215" y="138" on="0"/>
        <pt x="223" y="87" on="1"/>
        <pt x="226" y="68" on="1"/>
        <pt x="235" y="36" on="0"/>
        <pt x="327" y="36" on="1"/>
        <pt x="373" y="36" on="0"/>
        <pt x="428" y="43" on="0"/>
        <pt x="459" y="56" on="1"/>
        <pt x="517" y="79" on="0"/>
        <pt x="547" y="171" on="1"/>
        <pt x="574" y="159" on="1"/>
        <pt x="556" y="104" on="0"/>
        <pt x="550" y="0" on="1"/>
        <pt x="150" y="0" on="1"/>
        <pt x="93" y="0" on="0"/>
        <pt x="30" y="-3" on="1"/>
        <pt x="27" y="26" on="1"/>
        <pt x="78" y="36" on="0"/>
        <pt x="114" y="52" on="0"/>
        <pt x="116" y="69" on="1"/>
        <pt x="125" y="127" on="0"/>
        <pt x="125" y="282" on="1"/>
        <pt x="125" y="534" on="0"/>
        <pt x="119" y="596" on="1"/>
        <pt x="117" y="616" on="1"/>
        <pt x="115" y="634" on="0"/>
        <pt x="83" y="649" on="0"/>
        <pt x="35" y="659" on="1"/>
        <pt x="38" y="688" on="1"/>
        <pt x="101" y="685" on="0"/>
        <pt x="449" y="685" on="0"/>
        <pt x="531" y="691" on="1"/>
        <pt x="531" y="676" on="1"/>
        <pt x="531" y="597" on="0"/>
        <pt x="543" y="529" on="1"/>
        <pt x="516" y="517" on="1"/>
        <pt x="490" y="599" on="0"/>
        <pt x="418" y="643" on="0"/>
        <pt x="318" y="643" on="1"/>
        <pt x="273" y="643" on="0"/>
        <pt x="229" y="635" on="0"/>
        <pt x="226" y="621" on="1"/>
        <pt x="216" y="556" on="0"/>
        <pt x="215" y="367" on="1"/>
        <pt x="342" y="367" on="0"/>
        <pt x="393" y="379" on="0"/>
        <pt x="408" y="411" on="0"/>
        <pt x="418" y="463" on="1"/>
        <pt x="453" y="459" on="1"/>
        <pt x="445" y="401" on="0"/>
        <pt x="445" y="295" on="0"/>
        <pt x="453" y="236" on="1"/>
        <pt x="418" y="231" on="1"/>
        <pt x="408" y="283" on="0"/>
        <pt x="393" y="315" on="0"/>
        <pt x="342" y="327" on="0"/>
      </contour>
    </TTGlyph>
    <TTGlyph name="Eacute" xMin="27" yMin="-3" xMax="574" yMax="951">
      <contour>
        <pt x="215" y="327" on="1"/>
        <pt x="215" y="138" on="0"/>
        <pt x="223" y="87" on="1"/>
        <pt x="226" y="68" on="1"/>
        <pt x="235" y="36" on="0"/>
        <pt x="327" y="36" on="1"/>
        <pt x="373" y="36" on="0"/>
        <pt x="428" y="43" on="0"/>
        <pt x="459" y="56" on="1"/>
        <pt x="517" y="79" on="0"/>
        <pt x="547" y="171" on="1"/>
        <pt x="574" y="159" on="1"/>
        <pt x="556" y="104" on="0"/>
        <pt x="550" y="0" on="1"/>
        <pt x="150" y="0" on="1"/>
        <pt x="93" y="0" on="0"/>
        <pt x="30" y="-3" on="1"/>
        <pt x="27" y="26" on="1"/>
        <pt x="78" y="36" on="0"/>
        <pt x="114" y="52" on="0"/>
        <pt x="116" y="69" on="1"/>
        <pt x="125" y="127" on="0"/>
        <pt x="125" y="282" on="1"/>
        <pt x="125" y="534" on="0"/>
        <pt x="119" y="596" on="1"/>
        <pt x="117" y="616" on="1"/>
        <pt x="115" y="634" on="0"/>
        <pt x="83" y="649" on="0"/>
        <pt x="35" y="659" on="1"/>
        <pt x="38" y="688" on="1"/>
        <pt x="101" y="685" on="0"/>
        <pt x="449" y="685" on="0"/>
        <pt x="531" y="691" on="1"/>
        <pt x="531" y="676" on="1"/>
        <pt x="531" y="597" on="0"/>
        <pt x="543" y="529" on="1"/>
        <pt x="516" y="517" on="1"/>
        <pt x="490" y="599" on="0"/>
        <pt x="418" y="643" on="0"/>
        <pt x="318" y="643" on="1"/>
        <pt x="273" y="643" on="0"/>
        <pt x="229" y="635" on="0"/>
        <pt x="226" y="621" on="1"/>
        <pt x="216" y="556" on="0"/>
        <pt x="215" y="367" on="1"/>
        <pt x="342" y="367" on="0"/>
        <pt x="393" y="379" on="0"/>
        <pt x="408" y="411" on="0"/>
        <pt x="418" y="463" on="1"/>
        <pt x="453" y="459" on="1"/>
        <pt x="445" y="401" on="0"/>
        <pt x="445" y="295" on="0"/>
        <pt x="453" y="236" on="1"/>
        <pt x="418" y="231" on="1"/>
        <pt x="408" y="283" on="0"/>
        <pt x="393" y="315" on="0"/>
        <pt x="342" y="327" on="0"/>
      </contour>
      <contour>
        <pt x="435" y="909" on="1"/>
        <pt x="262" y="747" on="1"/>
        <pt x="232" y="752" on="1"/>
        <pt x="366" y="951" on="1"/>
        <pt x="391" y="951" on="0"/>
        <pt x="433" y="926" on="0"/>
      </contour>
    </TTGlyph>
    <TTGlyph name="Ecircumflex" xMin="27" yMin="-3" xMax="574" yMax="950">
      <contour>
        <pt x="215" y="327" on="1"/>
        <pt x="215" y="138" on="0"/>
        <pt x="223" y="87" on="1"/>
        <pt x="226" y="68" on="1"/>
        <pt x="235" y="36" on="0"/>
        <pt x="327" y="36" on="1"/>
        <pt x="373" y="36" on="0"/>
        <pt x="428" y="43" on="0"/>
        <pt x="459" y="56" on="1"/>
        <pt x="517" y="79" on="0"/>
        <pt x="547" y="171" on="1"/>
        <pt x="574" y="159" on="1"/>
        <pt x="556" y="104" on="0"/>
        <pt x="550" y="0" on="1"/>
        <pt x="150" y="0" on="1"/>
        <pt x="93" y="0" on="0"/>
        <pt x="30" y="-3" on="1"/>
        <pt x="27" y="26" on="1"/>
        <pt x="78" y="36" on="0"/>
        <pt x="114" y="52" on="0"/>
        <pt x="116" y="69" on="1"/>
        <pt x="125" y="127" on="0"/>
        <pt x="125" y="282" on="1"/>
        <pt x="125" y="534" on="0"/>
        <pt x="119" y="596" on="1"/>
        <pt x="117" y="616" on="1"/>
        <pt x="115" y="634" on="0"/>
        <pt x="83" y="649" on="0"/>
        <pt x="35" y="659" on="1"/>
        <pt x="38" y="688" on="1"/>
        <pt x="101" y="685" on="0"/>
        <pt x="449" y="685" on="0"/>
        <pt x="531" y="691" on="1"/>
        <pt x="531" y="676" on="1"/>
        <pt x="531" y="597" on="0"/>
        <pt x="543" y="529" on="1"/>
        <pt x="516" y="517" on="1"/>
        <pt x="490" y="599" on="0"/>
        <pt x="418" y="643" on="0"/>
        <pt x="318" y="643" on="1"/>
        <pt x="273" y="643" on="0"/>
        <pt x="229" y="635" on="0"/>
        <pt x="226" y="621" on="1"/>
        <pt x="216" y="556" on="0"/>
        <pt x="215" y="367" on="1"/>
        <pt x="342" y="367" on="0"/>
        <pt x="393" y="379" on="0"/>
        <pt x="408" y="411" on="0"/>
        <pt x="418" y="463" on="1"/>
        <pt x="453" y="459" on="1"/>
        <pt x="445" y="401" on="0"/>
        <pt x="445" y="295" on="0"/>
        <pt x="453" y="236" on="1"/>
        <pt x="418" y="231" on="1"/>
        <pt x="408" y="283" on="0"/>
        <pt x="393" y="315" on="0"/>
        <pt x="342" y="327" on="0"/>
      </contour>
      <contour>
        <pt x="285" y="947" on="1"/>
        <pt x="291" y="950" on="0"/>
        <pt x="314" y="950" on="0"/>
        <pt x="322" y="946" on="1"/>
        <pt x="416" y="752" on="1"/>
        <pt x="386" y="747" on="1"/>
        <pt x="303" y="851" on="1"/>
        <pt x="221" y="747" on="1"/>
        <pt x="191" y="752" on="1"/>
      </contour>
    </TTGlyph>
    <TTGlyph name="Edieresis" xMin="27" yMin="-3" xMax="574" yMax="898">
      <contour>
        <pt x="215" y="327" on="1"/>
        <pt x="215" y="138" on="0"/>
        <pt x="223" y="87" on="1"/>
        <pt x="226" y="68" on="1"/>
        <pt x="235" y="36" on="0"/>
        <pt x="327" y="36" on="1"/>
        <pt x="373" y="36" on="0"/>
        <pt x="428" y="43" on="0"/>
        <pt x="459" y="56" on="1"/>
        <pt x="517" y="79" on="0"/>
        <pt x="547" y="171" on="1"/>
        <pt x="574" y="159" on="1"/>
        <pt x="556" y="104" on="0"/>
        <pt x="550" y="0" on="1"/>
        <pt x="150" y="0" on="1"/>
        <pt x="93" y="0" on="0"/>
        <pt x="30" y="-3" on="1"/>
        <pt x="27" y="26" on="1"/>
        <pt x="78" y="36" on="0"/>
        <pt x="114" y="52" on="0"/>
        <pt x="116" y="69" on="1"/>
        <pt x="125" y="127" on="0"/>
        <pt x="125" y="282" on="1"/>
        <pt x="125" y="534" on="0"/>
        <pt x="119" y="596" on="1"/>
        <pt x="117" y="616" on="1"/>
        <pt x="115" y="634" on="0"/>
        <pt x="83" y="649" on="0"/>
        <pt x="35" y="659" on="1"/>
        <pt x="38" y="688" on="1"/>
        <pt x="101" y="685" on="0"/>
        <pt x="449" y="685" on="0"/>
        <pt x="531" y="691" on="1"/>
        <pt x="531" y="676" on="1"/>
        <pt x="531" y="597" on="0"/>
        <pt x="543" y="529" on="1"/>
        <pt x="516" y="517" on="1"/>
        <pt x="490" y="599" on="0"/>
        <pt x="418" y="643" on="0"/>
        <pt x="318" y="643" on="1"/>
        <pt x="273" y="643" on="0"/>
        <pt x="229" y="635" on="0"/>
        <pt x="226" y="621" on="1"/>
        <pt x="216" y="556" on="0"/>
        <pt x="215" y="367" on="1"/>
        <pt x="342" y="367" on="0"/>
        <pt x="393" y="379" on="0"/>
        <pt x="408" y="411" on="0"/>
        <pt x="418" y="463" on="1"/>
        <pt x="453" y="459" on="1"/>
        <pt x="445" y="401" on="0"/>
        <pt x="445" y="295" on="0"/>
        <pt x="453" y="236" on="1"/>
        <pt x="418" y="231" on="1"/>
        <pt x="408" y="283" on="0"/>
        <pt x="393" y="315" on="0"/>
        <pt x="342" y="327" on="0"/>
      </contour>
      <contour>
        <pt x="416" y="792" on="0"/>
        <pt x="372" y="792" on="0"/>
        <pt x="342" y="823" on="0"/>
        <pt x="342" y="868" on="0"/>
        <pt x="372" y="898" on="0"/>
        <pt x="416" y="898" on="0"/>
        <pt x="446" y="868" on="0"/>
        <pt x="446" y="823" on="0"/>
      </contour>
      <contour>
        <pt x="236" y="792" on="0"/>
        <pt x="192" y="792" on="0"/>
        <pt x="162" y="823" on="0"/>
        <pt x="162" y="868" on="0"/>
        <pt x="192" y="898" on="0"/>
        <pt x="236" y="898" on="0"/>
        <pt x="266" y="868" on="0"/>
        <pt x="266" y="823" on="0"/>
      </contour>
    </TTGlyph>
    <TTGlyph name="Egrave" xMin="27" yMin="-3" xMax="574" yMax="951">
      <contour>
        <pt x="215" y="327" on="1"/>
        <pt x="215" y="138" on="0"/>
        <pt x="223" y="87" on="1"/>
        <pt x="226" y="68" on="1"/>
        <pt x="235" y="36" on="0"/>
        <pt x="327" y="36" on="1"/>
        <pt x="373" y="36" on="0"/>
        <pt x="428" y="43" on="0"/>
        <pt x="459" y="56" on="1"/>
        <pt x="517" y="79" on="0"/>
        <pt x="547" y="171" on="1"/>
        <pt x="574" y="159" on="1"/>
        <pt x="556" y="104" on="0"/>
        <pt x="550" y="0" on="1"/>
        <pt x="150" y="0" on="1"/>
        <pt x="93" y="0" on="0"/>
        <pt x="30" y="-3" on="1"/>
        <pt x="27" y="26" on="1"/>
        <pt x="78" y="36" on="0"/>
        <pt x="114" y="52" on="0"/>
        <pt x="116" y="69" on="1"/>
        <pt x="125" y="127" on="0"/>
        <pt x="125" y="282" on="1"/>
        <pt x="125" y="534" on="0"/>
        <pt x="119" y="596" on="1"/>
        <pt x="117" y="616" on="1"/>
        <pt x="115" y="634" on="0"/>
        <pt x="83" y="649" on="0"/>
        <pt x="35" y="659" on="1"/>
        <pt x="38" y="688" on="1"/>
        <pt x="101" y="685" on="0"/>
        <pt x="449" y="685" on="0"/>
        <pt x="531" y="691" on="1"/>
        <pt x="531" y="676" on="1"/>
        <pt x="531" y="597" on="0"/>
        <pt x="543" y="529" on="1"/>
        <pt x="516" y="517" on="1"/>
        <pt x="490" y="599" on="0"/>
        <pt x="418" y="643" on="0"/>
        <pt x="318" y="643" on="1"/>
        <pt x="273" y="643" on="0"/>
        <pt x="229" y="635" on="0"/>
        <pt x="226" y="621" on="1"/>
        <pt x="216" y="556" on="0"/>
        <pt x="215" y="367" on="1"/>
        <pt x="342" y="367" on="0"/>
        <pt x="393" y="379" on="0"/>
        <pt x="408" y="411" on="0"/>
        <pt x="418" y="463" on="1"/>
        <pt x="453" y="459" on="1"/>
        <pt x="445" y="401" on="0"/>
        <pt x="445" y="295" on="0"/>
        <pt x="453" y="236" on="1"/>
        <pt x="418" y="231" on="1"/>
        <pt x="408" y="283" on="0"/>
        <pt x="393" y="315" on="0"/>
        <pt x="342" y="327" on="0"/>
      </contour>
      <contour>
        <pt x="341" y="747" on="1"/>
        <pt x="168" y="909" on="1"/>
        <pt x="170" y="926" on="0"/>
        <pt x="212" y="951" on="0"/>
        <pt x="237" y="951" on="1"/>
        <pt x="371" y="752" on="1"/>
      </contour>
    </TTGlyph>
    <TTGlyph name="Eth" xMin="29" yMin="-3" xMax="720" yMax="688">
      <contour>
        <pt x="173" y="685" on="1"/>
        <pt x="351" y="685" on="1"/>
        <pt x="467" y="685" on="0"/>
        <pt x="558" y="640" on="1"/>
        <pt x="659" y="588" on="0"/>
        <pt x="698" y="488" on="1"/>
        <pt x="720" y="433" on="0"/>
        <pt x="720" y="365" on="1"/>
        <pt x="720" y="204" on="0"/>
        <pt x="522" y="0" on="0"/>
        <pt x="334" y="0" on="1"/>
        <pt x="173" y="0" on="1"/>
        <pt x="95" y="0" on="0"/>
        <pt x="32" y="-3" on="1"/>
        <pt x="29" y="26" on="1"/>
        <pt x="80" y="36" on="0"/>
        <pt x="116" y="52" on="0"/>
        <pt x="118" y="69" on="1"/>
        <pt x="125" y="124" on="0"/>
        <pt x="126" y="316" on="1"/>
        <pt x="38" y="316" on="1"/>
        <pt x="38" y="369" on="1"/>
        <pt x="126" y="369" on="1"/>
        <pt x="126" y="540" on="0"/>
        <pt x="120" y="597" on="1"/>
        <pt x="118" y="616" on="1"/>
        <pt x="116" y="634" on="0"/>
        <pt x="84" y="649" on="0"/>
        <pt x="36" y="659" on="1"/>
        <pt x="39" y="688" on="1"/>
        <pt x="102" y="685" on="0"/>
      </contour>
      <contour>
        <pt x="227" y="60" on="1"/>
        <pt x="281" y="48" on="0"/>
        <pt x="403" y="48" on="0"/>
        <pt x="513" y="97" on="0"/>
        <pt x="571" y="164" on="0"/>
        <pt x="588" y="210" on="1"/>
        <pt x="615" y="278" on="0"/>
        <pt x="615" y="350" on="1"/>
        <pt x="615" y="643" on="0"/>
        <pt x="289" y="643" on="1"/>
        <pt x="253" y="643" on="0"/>
        <pt x="230" y="635" on="0"/>
        <pt x="227" y="622" on="1"/>
        <pt x="217" y="561" on="0"/>
        <pt x="216" y="369" on="1"/>
        <pt x="420" y="369" on="1"/>
        <pt x="420" y="315" on="1"/>
        <pt x="216" y="315" on="1"/>
        <pt x="216" y="152" on="0"/>
        <pt x="224" y="81" on="1"/>
      </contour>
    </TTGlyph>
    <TTGlyph name="Euro" xMin="31" yMin="-9" xMax="491" yMax="641">
      <contour>
        <pt x="327" y="641" on="1"/>
        <pt x="353" y="641" on="0"/>
        <pt x="418" y="628" on="0"/>
        <pt x="448" y="628" on="0"/>
        <pt x="473" y="633" on="1"/>
        <pt x="473" y="620" on="1"/>
        <pt x="473" y="562" on="0"/>
        <pt x="484" y="496" on="1"/>
        <pt x="460" y="485" on="1"/>
        <pt x="442" y="549" on="0"/>
        <pt x="380" y="597" on="0"/>
        <pt x="328" y="597" on="1"/>
        <pt x="206" y="597" on="0"/>
        <pt x="188" y="379" on="1"/>
        <pt x="375" y="379" on="1"/>
        <pt x="369" y="336" on="1"/>
        <pt x="186" y="336" on="1"/>
        <pt x="185" y="319" on="0"/>
        <pt x="185" y="284" on="1"/>
        <pt x="375" y="284" on="1"/>
        <pt x="369" y="241" on="1"/>
        <pt x="186" y="241" on="1"/>
        <pt x="192" y="145" on="0"/>
        <pt x="274" y="52" on="0"/>
        <pt x="352" y="52" on="1"/>
        <pt x="411" y="52" on="0"/>
        <pt x="477" y="82" on="1"/>
        <pt x="491" y="53" on="1"/>
        <pt x="414" y="-9" on="0"/>
        <pt x="220" y="-9" on="0"/>
        <pt x="93" y="127" on="0"/>
        <pt x="81" y="241" on="1"/>
        <pt x="31" y="241" on="1"/>
        <pt x="37" y="284" on="1"/>
        <pt x="78" y="284" on="1"/>
        <pt x="78" y="291" on="1"/>
        <pt x="78" y="306" on="0"/>
        <pt x="80" y="336" on="1"/>
        <pt x="31" y="336" on="1"/>
        <pt x="37" y="379" on="1"/>
        <pt x="84" y="379" on="1"/>
        <pt x="103" y="493" on="0"/>
        <pt x="226" y="641" on="0"/>
      </contour>
    </TTGlyph>
    <TTGlyph name="F" xMin="29" yMin="-3" xMax="531" yMax="691">
      <contour>
        <pt x="216" y="327" on="1"/>
        <pt x="216" y="149" on="0"/>
        <pt x="222" y="89" on="1"/>
        <pt x="224" y="69" on="1"/>
        <pt x="226" y="51" on="0"/>
        <pt x="260" y="36" on="0"/>
        <pt x="309" y="26" on="1"/>
        <pt x="306" y="-3" on="1"/>
        <pt x="243" y="0" on="0"/>
        <pt x="95" y="0" on="0"/>
        <pt x="32" y="-3" on="1"/>
        <pt x="29" y="26" on="1"/>
        <pt x="80" y="36" on="0"/>
        <pt x="116" y="52" on="0"/>
        <pt x="118" y="69" on="1"/>
        <pt x="126" y="128" on="0"/>
        <pt x="126" y="283" on="1"/>
        <pt x="126" y="534" on="0"/>
        <pt x="120" y="596" on="1"/>
        <pt x="118" y="616" on="1"/>
        <pt x="116" y="634" on="0"/>
        <pt x="84" y="649" on="0"/>
        <pt x="36" y="659" on="1"/>
        <pt x="39" y="688" on="1"/>
        <pt x="102" y="685" on="0"/>
        <pt x="437" y="685" on="0"/>
        <pt x="519" y="691" on="1"/>
        <pt x="519" y="676" on="1"/>
        <pt x="519" y="597" on="0"/>
        <pt x="531" y="529" on="1"/>
        <pt x="504" y="517" on="1"/>
        <pt x="478" y="599" on="0"/>
        <pt x="406" y="643" on="0"/>
        <pt x="306" y="643" on="1"/>
        <pt x="242" y="643" on="0"/>
        <pt x="231" y="634" on="1"/>
        <pt x="226" y="629" on="0"/>
        <pt x="225" y="621" on="1"/>
        <pt x="217" y="558" on="0"/>
        <pt x="216" y="367" on="1"/>
        <pt x="351" y="367" on="0"/>
        <pt x="402" y="379" on="0"/>
        <pt x="417" y="411" on="0"/>
        <pt x="427" y="463" on="1"/>
        <pt x="462" y="459" on="1"/>
        <pt x="454" y="401" on="0"/>
        <pt x="454" y="295" on="0"/>
        <pt x="462" y="236" on="1"/>
        <pt x="427" y="231" on="1"/>
        <pt x="417" y="283" on="0"/>
        <pt x="402" y="315" on="0"/>
        <pt x="351" y="327" on="0"/>
      </contour>
    </TTGlyph>
    <TTGlyph name="G" xMin="48" yMin="-12" xMax="739" yMax="694">
      <contour>
        <pt x="407" y="37" on="1"/>
        <pt x="517" y="37" on="0"/>
        <pt x="585" y="73" on="1"/>
        <pt x="578" y="235" on="1"/>
        <pt x="576" y="253" on="0"/>
        <pt x="544" y="268" on="0"/>
        <pt x="496" y="278" on="1"/>
        <pt x="499" y="307" on="1"/>
        <pt x="562" y="304" on="0"/>
        <pt x="673" y="304" on="0"/>
        <pt x="736" y="307" on="1"/>
        <pt x="739" y="278" on="1"/>
        <pt x="724" y="275" on="0"/>
        <pt x="705" y="269" on="0"/>
        <pt x="693" y="266" on="0"/>
        <pt x="687" y="256" on="0"/>
        <pt x="686" y="255" on="1"/>
        <pt x="684" y="250" on="0"/>
        <pt x="684" y="235" on="1"/>
        <pt x="677" y="55" on="1"/>
        <pt x="519" y="-12" on="0"/>
        <pt x="404" y="-12" on="1"/>
        <pt x="240" y="-12" on="0"/>
        <pt x="48" y="167" on="0"/>
        <pt x="48" y="334" on="1"/>
        <pt x="48" y="432" on="0"/>
        <pt x="131" y="593" on="0"/>
        <pt x="302" y="694" on="0"/>
        <pt x="418" y="694" on="1"/>
        <pt x="466" y="694" on="0"/>
        <pt x="584" y="679" on="0"/>
        <pt x="628" y="679" on="0"/>
        <pt x="653" y="685" on="1"/>
        <pt x="653" y="670" on="1"/>
        <pt x="653" y="597" on="0"/>
        <pt x="665" y="529" on="1"/>
        <pt x="637" y="517" on="1"/>
        <pt x="594" y="648" on="0"/>
        <pt x="414" y="648" on="1"/>
        <pt x="304" y="648" on="0"/>
        <pt x="153" y="496" on="0"/>
        <pt x="153" y="351" on="1"/>
        <pt x="153" y="229" on="0"/>
        <pt x="210" y="139" on="1"/>
        <pt x="239" y="93" on="0"/>
        <pt x="341" y="37" on="0"/>
      </contour>
    </TTGlyph>
    <TTGlyph name="H" xMin="29" yMin="-3" xMax="770" yMax="688">
      <contour>
        <pt x="500" y="688" on="1"/>
        <pt x="563" y="685" on="0"/>
        <pt x="701" y="685" on="0"/>
        <pt x="764" y="688" on="1"/>
        <pt x="767" y="659" on="1"/>
        <pt x="719" y="649" on="0"/>
        <pt x="687" y="634" on="0"/>
        <pt x="685" y="616" on="1"/>
        <pt x="677" y="557" on="0"/>
        <pt x="677" y="402" on="1"/>
        <pt x="677" y="151" on="0"/>
        <pt x="683" y="90" on="1"/>
        <pt x="685" y="69" on="1"/>
        <pt x="687" y="51" on="0"/>
        <pt x="721" y="36" on="0"/>
        <pt x="770" y="26" on="1"/>
        <pt x="767" y="-3" on="1"/>
        <pt x="704" y="0" on="0"/>
        <pt x="556" y="0" on="0"/>
        <pt x="493" y="-3" on="1"/>
        <pt x="490" y="26" on="1"/>
        <pt x="541" y="36" on="0"/>
        <pt x="577" y="52" on="0"/>
        <pt x="579" y="69" on="1"/>
        <pt x="587" y="122" on="0"/>
        <pt x="587" y="328" on="1"/>
        <pt x="548" y="333" on="0"/>
        <pt x="442" y="333" on="1"/>
        <pt x="286" y="333" on="0"/>
        <pt x="230" y="329" on="1"/>
        <pt x="216" y="328" on="1"/>
        <pt x="216" y="143" on="0"/>
        <pt x="222" y="88" on="1"/>
        <pt x="224" y="69" on="1"/>
        <pt x="226" y="51" on="0"/>
        <pt x="260" y="36" on="0"/>
        <pt x="309" y="26" on="1"/>
        <pt x="306" y="-3" on="1"/>
        <pt x="243" y="0" on="0"/>
        <pt x="95" y="0" on="0"/>
        <pt x="32" y="-3" on="1"/>
        <pt x="29" y="26" on="1"/>
        <pt x="80" y="36" on="0"/>
        <pt x="116" y="52" on="0"/>
        <pt x="118" y="69" on="1"/>
        <pt x="126" y="128" on="0"/>
        <pt x="126" y="283" on="1"/>
        <pt x="126" y="534" on="0"/>
        <pt x="120" y="596" on="1"/>
        <pt x="118" y="616" on="1"/>
        <pt x="116" y="634" on="0"/>
        <pt x="84" y="649" on="0"/>
        <pt x="36" y="659" on="1"/>
        <pt x="39" y="688" on="1"/>
        <pt x="102" y="685" on="0"/>
        <pt x="240" y="685" on="0"/>
        <pt x="303" y="688" on="1"/>
        <pt x="306" y="659" on="1"/>
        <pt x="258" y="649" on="0"/>
        <pt x="226" y="634" on="0"/>
        <pt x="224" y="616" on="1"/>
        <pt x="217" y="568" on="0"/>
        <pt x="216" y="384" on="1"/>
        <pt x="255" y="379" on="0"/>
        <pt x="360" y="379" on="1"/>
        <pt x="517" y="379" on="0"/>
        <pt x="573" y="383" on="1"/>
        <pt x="587" y="384" on="1"/>
        <pt x="587" y="548" on="0"/>
        <pt x="581" y="599" on="1"/>
        <pt x="579" y="616" on="1"/>
        <pt x="577" y="634" on="0"/>
        <pt x="545" y="649" on="0"/>
        <pt x="497" y="659" on="1"/>
      </contour>
    </TTGlyph>
    <TTGlyph name="I" xMin="29" yMin="-3" xMax="309" yMax="688">
      <contour>
        <pt x="224" y="616" on="1"/>
        <pt x="216" y="557" on="0"/>
        <pt x="216" y="402" on="1"/>
        <pt x="216" y="151" on="0"/>
        <pt x="222" y="90" on="1"/>
        <pt x="224" y="69" on="1"/>
        <pt x="226" y="51" on="0"/>
        <pt x="260" y="36" on="0"/>
        <pt x="309" y="26" on="1"/>
        <pt x="306" y="-3" on="1"/>
        <pt x="243" y="0" on="0"/>
        <pt x="95" y="0" on="0"/>
        <pt x="32" y="-3" on="1"/>
        <pt x="29" y="26" on="1"/>
        <pt x="80" y="36" on="0"/>
        <pt x="116" y="52" on="0"/>
        <pt x="118" y="69" on="1"/>
        <pt x="126" y="128" on="0"/>
        <pt x="126" y="283" on="1"/>
        <pt x="126" y="534" on="0"/>
        <pt x="120" y="596" on="1"/>
        <pt x="118" y="616" on="1"/>
        <pt x="116" y="634" on="0"/>
        <pt x="84" y="649" on="0"/>
        <pt x="36" y="659" on="1"/>
        <pt x="39" y="688" on="1"/>
        <pt x="102" y="685" on="0"/>
        <pt x="240" y="685" on="0"/>
        <pt x="303" y="688" on="1"/>
        <pt x="306" y="659" on="1"/>
        <pt x="258" y="649" on="0"/>
        <pt x="226" y="634" on="0"/>
      </contour>
    </TTGlyph>
    <TTGlyph name="Iacute" xMin="29" yMin="-3" xMax="309" yMax="951">
      <contour>
        <pt x="224" y="616" on="1"/>
        <pt x="216" y="557" on="0"/>
        <pt x="216" y="402" on="1"/>
        <pt x="216" y="151" on="0"/>
        <pt x="222" y="90" on="1"/>
        <pt x="224" y="69" on="1"/>
        <pt x="226" y="51" on="0"/>
        <pt x="260" y="36" on="0"/>
        <pt x="309" y="26" on="1"/>
        <pt x="306" y="-3" on="1"/>
        <pt x="243" y="0" on="0"/>
        <pt x="95" y="0" on="0"/>
        <pt x="32" y="-3" on="1"/>
        <pt x="29" y="26" on="1"/>
        <pt x="80" y="36" on="0"/>
        <pt x="116" y="52" on="0"/>
        <pt x="118" y="69" on="1"/>
        <pt x="126" y="128" on="0"/>
        <pt x="126" y="283" on="1"/>
        <pt x="126" y="534" on="0"/>
        <pt x="120" y="596" on="1"/>
        <pt x="118" y="616" on="1"/>
        <pt x="116" y="634" on="0"/>
        <pt x="84" y="649" on="0"/>
        <pt x="36" y="659" on="1"/>
        <pt x="39" y="688" on="1"/>
        <pt x="102" y="685" on="0"/>
        <pt x="240" y="685" on="0"/>
        <pt x="303" y="688" on="1"/>
        <pt x="306" y="659" on="1"/>
        <pt x="258" y="649" on="0"/>
        <pt x="226" y="634" on="0"/>
      </contour>
      <contour>
        <pt x="302" y="909" on="1"/>
        <pt x="129" y="747" on="1"/>
        <pt x="99" y="752" on="1"/>
        <pt x="233" y="951" on="1"/>
        <pt x="258" y="951" on="0"/>
        <pt x="300" y="926" on="0"/>
      </contour>
    </TTGlyph>
    <TTGlyph name="Icircumflex" xMin="29" yMin="-3" xMax="309" yMax="950">
      <contour>
        <pt x="224" y="616" on="1"/>
        <pt x="216" y="557" on="0"/>
        <pt x="216" y="402" on="1"/>
        <pt x="216" y="151" on="0"/>
        <pt x="222" y="90" on="1"/>
        <pt x="224" y="69" on="1"/>
        <pt x="226" y="51" on="0"/>
        <pt x="260" y="36" on="0"/>
        <pt x="309" y="26" on="1"/>
        <pt x="306" y="-3" on="1"/>
        <pt x="243" y="0" on="0"/>
        <pt x="95" y="0" on="0"/>
        <pt x="32" y="-3" on="1"/>
        <pt x="29" y="26" on="1"/>
        <pt x="80" y="36" on="0"/>
        <pt x="116" y="52" on="0"/>
        <pt x="118" y="69" on="1"/>
        <pt x="126" y="128" on="0"/>
        <pt x="126" y="283" on="1"/>
        <pt x="126" y="534" on="0"/>
        <pt x="120" y="596" on="1"/>
        <pt x="118" y="616" on="1"/>
        <pt x="116" y="634" on="0"/>
        <pt x="84" y="649" on="0"/>
        <pt x="36" y="659" on="1"/>
        <pt x="39" y="688" on="1"/>
        <pt x="102" y="685" on="0"/>
        <pt x="240" y="685" on="0"/>
        <pt x="303" y="688" on="1"/>
        <pt x="306" y="659" on="1"/>
        <pt x="258" y="649" on="0"/>
        <pt x="226" y="634" on="0"/>
      </contour>
      <contour>
        <pt x="152" y="947" on="1"/>
        <pt x="158" y="950" on="0"/>
        <pt x="181" y="950" on="0"/>
        <pt x="189" y="946" on="1"/>
        <pt x="283" y="752" on="1"/>
        <pt x="253" y="747" on="1"/>
        <pt x="170" y="851" on="1"/>
        <pt x="88" y="747" on="1"/>
        <pt x="58" y="752" on="1"/>
      </contour>
    </TTGlyph>
    <TTGlyph name="Idieresis" xMin="29" yMin="-3" xMax="313" yMax="898">
      <contour>
        <pt x="224" y="616" on="1"/>
        <pt x="216" y="557" on="0"/>
        <pt x="216" y="402" on="1"/>
        <pt x="216" y="151" on="0"/>
        <pt x="222" y="90" on="1"/>
        <pt x="224" y="69" on="1"/>
        <pt x="226" y="51" on="0"/>
        <pt x="260" y="36" on="0"/>
        <pt x="309" y="26" on="1"/>
        <pt x="306" y="-3" on="1"/>
        <pt x="243" y="0" on="0"/>
        <pt x="95" y="0" on="0"/>
        <pt x="32" y="-3" on="1"/>
        <pt x="29" y="26" on="1"/>
        <pt x="80" y="36" on="0"/>
        <pt x="116" y="52" on="0"/>
        <pt x="118" y="69" on="1"/>
        <pt x="126" y="128" on="0"/>
        <pt x="126" y="283" on="1"/>
        <pt x="126" y="534" on="0"/>
        <pt x="120" y="596" on="1"/>
        <pt x="118" y="616" on="1"/>
        <pt x="116" y="634" on="0"/>
        <pt x="84" y="649" on="0"/>
        <pt x="36" y="659" on="1"/>
        <pt x="39" y="688" on="1"/>
        <pt x="102" y="685" on="0"/>
        <pt x="240" y="685" on="0"/>
        <pt x="303" y="688" on="1"/>
        <pt x="306" y="659" on="1"/>
        <pt x="258" y="649" on="0"/>
        <pt x="226" y="634" on="0"/>
      </contour>
      <contour>
        <pt x="283" y="792" on="0"/>
        <pt x="239" y="792" on="0"/>
        <pt x="209" y="823" on="0"/>
        <pt x="209" y="868" on="0"/>
        <pt x="239" y="898" on="0"/>
        <pt x="283" y="898" on="0"/>
        <pt x="313" y="868" on="0"/>
        <pt x="313" y="823" on="0"/>
      </contour>
      <contour>
        <pt x="103" y="792" on="0"/>
        <pt x="59" y="792" on="0"/>
        <pt x="29" y="823" on="0"/>
        <pt x="29" y="868" on="0"/>
        <pt x="59" y="898" on="0"/>
        <pt x="103" y="898" on="0"/>
        <pt x="133" y="868" on="0"/>
        <pt x="133" y="823" on="0"/>
      </contour>
    </TTGlyph>
    <TTGlyph name="Igrave" xMin="29" yMin="-3" xMax="309" yMax="951">
      <contour>
        <pt x="224" y="616" on="1"/>
        <pt x="216" y="557" on="0"/>
        <pt x="216" y="402" on="1"/>
        <pt x="216" y="151" on="0"/>
        <pt x="222" y="90" on="1"/>
        <pt x="224" y="69" on="1"/>
        <pt x="226" y="51" on="0"/>
        <pt x="260" y="36" on="0"/>
        <pt x="309" y="26" on="1"/>
        <pt x="306" y="-3" on="1"/>
        <pt x="243" y="0" on="0"/>
        <pt x="95" y="0" on="0"/>
        <pt x="32" y="-3" on="1"/>
        <pt x="29" y="26" on="1"/>
        <pt x="80" y="36" on="0"/>
        <pt x="116" y="52" on="0"/>
        <pt x="118" y="69" on="1"/>
        <pt x="126" y="128" on="0"/>
        <pt x="126" y="283" on="1"/>
        <pt x="126" y="534" on="0"/>
        <pt x="120" y="596" on="1"/>
        <pt x="118" y="616" on="1"/>
        <pt x="116" y="634" on="0"/>
        <pt x="84" y="649" on="0"/>
        <pt x="36" y="659" on="1"/>
        <pt x="39" y="688" on="1"/>
        <pt x="102" y="685" on="0"/>
        <pt x="240" y="685" on="0"/>
        <pt x="303" y="688" on="1"/>
        <pt x="306" y="659" on="1"/>
        <pt x="258" y="649" on="0"/>
        <pt x="226" y="634" on="0"/>
      </contour>
      <contour>
        <pt x="218" y="747" on="1"/>
        <pt x="45" y="909" on="1"/>
        <pt x="47" y="926" on="0"/>
        <pt x="89" y="951" on="0"/>
        <pt x="114" y="951" on="1"/>
        <pt x="248" y="752" on="1"/>
      </contour>
    </TTGlyph>
    <TTGlyph name="J" xMin="-33" yMin="-178" xMax="327" yMax="688">
      <contour>
        <pt x="29" y="-178" on="1"/>
        <pt x="20" y="-178" on="0"/>
        <pt x="-27" y="-129" on="0"/>
        <pt x="-33" y="-105" on="1"/>
        <pt x="-17" y="-85" on="1"/>
        <pt x="12" y="-105" on="0"/>
        <pt x="78" y="-105" on="0"/>
        <pt x="108" y="-80" on="0"/>
        <pt x="122" y="-40" on="1"/>
        <pt x="147" y="36" on="0"/>
        <pt x="147" y="299" on="1"/>
        <pt x="147" y="490" on="0"/>
        <pt x="141" y="584" on="1"/>
        <pt x="139" y="616" on="1"/>
        <pt x="137" y="634" on="0"/>
        <pt x="105" y="649" on="0"/>
        <pt x="57" y="659" on="1"/>
        <pt x="60" y="688" on="1"/>
        <pt x="123" y="685" on="0"/>
        <pt x="261" y="685" on="0"/>
        <pt x="324" y="688" on="1"/>
        <pt x="327" y="659" on="1"/>
        <pt x="278" y="649" on="0"/>
        <pt x="244" y="634" on="0"/>
        <pt x="242" y="616" on="1"/>
        <pt x="237" y="430" on="0"/>
        <pt x="237" y="215" on="1"/>
        <pt x="237" y="123" on="0"/>
        <pt x="193" y="-33" on="0"/>
        <pt x="127" y="-126" on="0"/>
        <pt x="57" y="-178" on="0"/>
      </contour>
    </TTGlyph>
    <TTGlyph name="K" xMin="29" yMin="-9" xMax="695" yMax="688">
      <contour>
        <pt x="306" y="-3" on="1"/>
        <pt x="243" y="0" on="0"/>
        <pt x="95" y="0" on="0"/>
        <pt x="32" y="-3" on="1"/>
        <pt x="29" y="26" on="1"/>
        <pt x="80" y="36" on="0"/>
        <pt x="116" y="52" on="0"/>
        <pt x="118" y="69" on="1"/>
        <pt x="126" y="128" on="0"/>
        <pt x="126" y="283" on="1"/>
        <pt x="126" y="534" on="0"/>
        <pt x="120" y="596" on="1"/>
        <pt x="118" y="616" on="1"/>
        <pt x="116" y="634" on="0"/>
        <pt x="84" y="649" on="0"/>
        <pt x="36" y="659" on="1"/>
        <pt x="39" y="688" on="1"/>
        <pt x="102" y="685" on="0"/>
        <pt x="240" y="685" on="0"/>
        <pt x="303" y="688" on="1"/>
        <pt x="306" y="659" on="1"/>
        <pt x="258" y="649" on="0"/>
        <pt x="226" y="634" on="0"/>
        <pt x="224" y="616" on="1"/>
        <pt x="216" y="560" on="0"/>
        <pt x="216" y="365" on="1"/>
        <pt x="480" y="618" on="1"/>
        <pt x="484" y="621" on="0"/>
        <pt x="484" y="625" on="1"/>
        <pt x="484" y="644" on="0"/>
        <pt x="410" y="659" on="1"/>
        <pt x="413" y="688" on="1"/>
        <pt x="476" y="685" on="0"/>
        <pt x="597" y="685" on="0"/>
        <pt x="660" y="688" on="1"/>
        <pt x="663" y="659" on="1"/>
        <pt x="583" y="643" on="0"/>
        <pt x="549" y="611" on="1"/>
        <pt x="334" y="407" on="1"/>
        <pt x="612" y="43" on="1"/>
        <pt x="635" y="31" on="0"/>
        <pt x="695" y="26" on="1"/>
        <pt x="692" y="-3" on="1"/>
        <pt x="525" y="-9" on="1"/>
        <pt x="269" y="346" on="1"/>
        <pt x="216" y="296" on="1"/>
        <pt x="216" y="139" on="0"/>
        <pt x="222" y="86" on="1"/>
        <pt x="224" y="69" on="1"/>
        <pt x="226" y="51" on="0"/>
        <pt x="260" y="36" on="0"/>
        <pt x="309" y="26" on="1"/>
      </contour>
    </TTGlyph>
    <TTGlyph name="L" xMin="28" yMin="-3" xMax="568" yMax="688">
      <contour>
        <pt x="225" y="54" on="0"/>
        <pt x="286" y="36" on="0"/>
        <pt x="367" y="36" on="0"/>
        <pt x="422" y="43" on="0"/>
        <pt x="453" y="56" on="1"/>
        <pt x="511" y="79" on="0"/>
        <pt x="541" y="171" on="1"/>
        <pt x="568" y="159" on="1"/>
        <pt x="550" y="104" on="0"/>
        <pt x="544" y="0" on="1"/>
        <pt x="151" y="0" on="1"/>
        <pt x="94" y="0" on="0"/>
        <pt x="31" y="-3" on="1"/>
        <pt x="28" y="26" on="1"/>
        <pt x="79" y="36" on="0"/>
        <pt x="115" y="52" on="0"/>
        <pt x="117" y="69" on="1"/>
        <pt x="126" y="127" on="0"/>
        <pt x="126" y="282" on="1"/>
        <pt x="126" y="534" on="0"/>
        <pt x="120" y="596" on="1"/>
        <pt x="118" y="616" on="1"/>
        <pt x="116" y="634" on="0"/>
        <pt x="84" y="649" on="0"/>
        <pt x="36" y="659" on="1"/>
        <pt x="39" y="688" on="1"/>
        <pt x="102" y="685" on="0"/>
        <pt x="240" y="685" on="0"/>
        <pt x="303" y="688" on="1"/>
        <pt x="306" y="659" on="1"/>
        <pt x="258" y="649" on="0"/>
        <pt x="226" y="634" on="0"/>
        <pt x="224" y="616" on="1"/>
        <pt x="216" y="557" on="0"/>
        <pt x="216" y="402" on="1"/>
        <pt x="216" y="151" on="0"/>
        <pt x="222" y="90" on="1"/>
        <pt x="224" y="69" on="1"/>
      </contour>
    </TTGlyph>
    <TTGlyph name="Lslash" xMin="28" yMin="-3" xMax="568" yMax="688">
      <contour>
        <pt x="225" y="54" on="0"/>
        <pt x="286" y="36" on="0"/>
        <pt x="367" y="36" on="0"/>
        <pt x="422" y="43" on="0"/>
        <pt x="453" y="56" on="1"/>
        <pt x="511" y="79" on="0"/>
        <pt x="541" y="171" on="1"/>
        <pt x="568" y="159" on="1"/>
        <pt x="550" y="104" on="0"/>
        <pt x="544" y="0" on="1"/>
        <pt x="151" y="0" on="1"/>
        <pt x="94" y="0" on="0"/>
        <pt x="31" y="-3" on="1"/>
        <pt x="28" y="26" on="1"/>
        <pt x="79" y="36" on="0"/>
        <pt x="115" y="52" on="0"/>
        <pt x="117" y="69" on="1"/>
        <pt x="123" y="115" on="0"/>
        <pt x="125" y="264" on="1"/>
        <pt x="38" y="200" on="1"/>
        <pt x="38" y="261" on="1"/>
        <pt x="126" y="325" on="1"/>
        <pt x="126" y="342" on="1"/>
        <pt x="126" y="534" on="0"/>
        <pt x="120" y="596" on="1"/>
        <pt x="118" y="616" on="1"/>
        <pt x="116" y="634" on="0"/>
        <pt x="84" y="649" on="0"/>
        <pt x="36" y="659" on="1"/>
        <pt x="39" y="688" on="1"/>
        <pt x="102" y="685" on="0"/>
        <pt x="240" y="685" on="0"/>
        <pt x="303" y="688" on="1"/>
        <pt x="306" y="659" on="1"/>
        <pt x="258" y="649" on="0"/>
        <pt x="226" y="634" on="0"/>
        <pt x="224" y="616" on="1"/>
        <pt x="217" y="564" on="0"/>
        <pt x="216" y="391" on="1"/>
        <pt x="420" y="540" on="1"/>
        <pt x="420" y="479" on="1"/>
        <pt x="216" y="330" on="1"/>
        <pt x="216" y="147" on="0"/>
        <pt x="222" y="88" on="1"/>
        <pt x="224" y="69" on="1"/>
      </contour>
    </TTGlyph>
    <TTGlyph name="M" xMin="23" yMin="-10" xMax="898" yMax="688">
      <contour>
        <pt x="195" y="526" on="1"/>
        <pt x="185" y="276" on="0"/>
        <pt x="185" y="174" on="1"/>
        <pt x="188" y="69" on="1"/>
        <pt x="191" y="45" on="0"/>
        <pt x="241" y="34" on="1"/>
        <pt x="253" y="32" on="0"/>
        <pt x="282" y="26" on="1"/>
        <pt x="279" y="-3" on="1"/>
        <pt x="216" y="0" on="0"/>
        <pt x="68" y="0" on="0"/>
        <pt x="26" y="-3" on="1"/>
        <pt x="23" y="26" on="1"/>
        <pt x="71" y="36" on="0"/>
        <pt x="107" y="52" on="0"/>
        <pt x="109" y="69" on="1"/>
        <pt x="129" y="231" on="0"/>
        <pt x="129" y="483" on="1"/>
        <pt x="125" y="616" on="1"/>
        <pt x="123" y="634" on="0"/>
        <pt x="91" y="649" on="0"/>
        <pt x="43" y="659" on="1"/>
        <pt x="46" y="688" on="1"/>
        <pt x="109" y="685" on="0"/>
        <pt x="220" y="685" on="1"/>
        <pt x="458" y="95" on="1"/>
        <pt x="696" y="685" on="1"/>
        <pt x="810" y="685" on="0"/>
        <pt x="873" y="688" on="1"/>
        <pt x="876" y="659" on="1"/>
        <pt x="828" y="649" on="0"/>
        <pt x="796" y="634" on="0"/>
        <pt x="790" y="596" on="0"/>
        <pt x="790" y="502" on="0"/>
        <pt x="795" y="342" on="1"/>
        <pt x="805" y="144" on="0"/>
        <pt x="811" y="88" on="1"/>
        <pt x="813" y="69" on="1"/>
        <pt x="815" y="51" on="0"/>
        <pt x="849" y="36" on="0"/>
        <pt x="898" y="26" on="1"/>
        <pt x="895" y="-3" on="1"/>
        <pt x="832" y="0" on="0"/>
        <pt x="684" y="0" on="0"/>
        <pt x="621" y="-3" on="1"/>
        <pt x="618" y="26" on="1"/>
        <pt x="670" y="36" on="0"/>
        <pt x="707" y="52" on="0"/>
        <pt x="707" y="69" on="1"/>
        <pt x="708" y="102" on="0"/>
        <pt x="708" y="320" on="0"/>
        <pt x="695" y="526" on="1"/>
        <pt x="689" y="526" on="1"/>
        <pt x="475" y="1" on="1"/>
        <pt x="413" y="-10" on="1"/>
        <pt x="199" y="526" on="1"/>
      </contour>
    </TTGlyph>
    <TTGlyph name="N" xMin="21" yMin="-9" xMax="762" yMax="688">
      <contour>
        <pt x="608" y="132" on="1"/>
        <pt x="610" y="188" on="0"/>
        <pt x="610" y="313" on="1"/>
        <pt x="610" y="542" on="0"/>
        <pt x="604" y="596" on="1"/>
        <pt x="601" y="616" on="1"/>
        <pt x="598" y="640" on="0"/>
        <pt x="548" y="650" on="1"/>
        <pt x="536" y="653" on="0"/>
        <pt x="507" y="659" on="1"/>
        <pt x="510" y="688" on="1"/>
        <pt x="573" y="685" on="0"/>
        <pt x="696" y="685" on="0"/>
        <pt x="759" y="688" on="1"/>
        <pt x="762" y="659" on="1"/>
        <pt x="714" y="649" on="0"/>
        <pt x="682" y="634" on="0"/>
        <pt x="680" y="616" on="1"/>
        <pt x="670" y="557" on="0"/>
        <pt x="670" y="402" on="1"/>
        <pt x="670" y="165" on="0"/>
        <pt x="678" y="38" on="1"/>
        <pt x="681" y="0" on="1"/>
        <pt x="601" y="-9" on="1"/>
        <pt x="195" y="537" on="1"/>
        <pt x="190" y="537" on="1"/>
        <pt x="186" y="449" on="0"/>
        <pt x="186" y="348" on="1"/>
        <pt x="186" y="159" on="0"/>
        <pt x="194" y="90" on="1"/>
        <pt x="197" y="69" on="1"/>
        <pt x="200" y="45" on="0"/>
        <pt x="250" y="34" on="1"/>
        <pt x="262" y="32" on="0"/>
        <pt x="291" y="26" on="1"/>
        <pt x="288" y="-3" on="1"/>
        <pt x="225" y="0" on="0"/>
        <pt x="87" y="0" on="0"/>
        <pt x="24" y="-3" on="1"/>
        <pt x="21" y="26" on="1"/>
        <pt x="74" y="36" on="0"/>
        <pt x="116" y="52" on="0"/>
        <pt x="118" y="69" on="1"/>
        <pt x="126" y="127" on="0"/>
        <pt x="126" y="282" on="1"/>
        <pt x="126" y="534" on="0"/>
        <pt x="120" y="596" on="1"/>
        <pt x="118" y="616" on="1"/>
        <pt x="116" y="634" on="0"/>
        <pt x="84" y="649" on="0"/>
        <pt x="36" y="659" on="1"/>
        <pt x="39" y="688" on="1"/>
        <pt x="102" y="685" on="0"/>
        <pt x="188" y="685" on="1"/>
        <pt x="603" y="132" on="1"/>
      </contour>
    </TTGlyph>
    <TTGlyph name="Ntilde" xMin="21" yMin="-9" xMax="762" yMax="894">
      <contour>
        <pt x="608" y="132" on="1"/>
        <pt x="610" y="188" on="0"/>
        <pt x="610" y="313" on="1"/>
        <pt x="610" y="542" on="0"/>
        <pt x="604" y="596" on="1"/>
        <pt x="601" y="616" on="1"/>
        <pt x="598" y="640" on="0"/>
        <pt x="548" y="650" on="1"/>
        <pt x="536" y="653" on="0"/>
        <pt x="507" y="659" on="1"/>
        <pt x="510" y="688" on="1"/>
        <pt x="573" y="685" on="0"/>
        <pt x="696" y="685" on="0"/>
        <pt x="759" y="688" on="1"/>
        <pt x="762" y="659" on="1"/>
        <pt x="714" y="649" on="0"/>
        <pt x="682" y="634" on="0"/>
        <pt x="680" y="616" on="1"/>
        <pt x="670" y="557" on="0"/>
        <pt x="670" y="402" on="1"/>
        <pt x="670" y="165" on="0"/>
        <pt x="678" y="38" on="1"/>
        <pt x="681" y="0" on="1"/>
        <pt x="601" y="-9" on="1"/>
        <pt x="195" y="537" on="1"/>
        <pt x="190" y="537" on="1"/>
        <pt x="186" y="449" on="0"/>
        <pt x="186" y="348" on="1"/>
        <pt x="186" y="159" on="0"/>
        <pt x="194" y="90" on="1"/>
        <pt x="197" y="69" on="1"/>
        <pt x="200" y="45" on="0"/>
        <pt x="250" y="34" on="1"/>
        <pt x="262" y="32" on="0"/>
        <pt x="291" y="26" on="1"/>
        <pt x="288" y="-3" on="1"/>
        <pt x="225" y="0" on="0"/>
        <pt x="87" y="0" on="0"/>
        <pt x="24" y="-3" on="1"/>
        <pt x="21" y="26" on="1"/>
        <pt x="74" y="36" on="0"/>
        <pt x="116" y="52" on="0"/>
        <pt x="118" y="69" on="1"/>
        <pt x="126" y="127" on="0"/>
        <pt x="126" y="282" on="1"/>
        <pt x="126" y="534" on="0"/>
        <pt x="120" y="596" on="1"/>
        <pt x="118" y="616" on="1"/>
        <pt x="116" y="634" on="0"/>
        <pt x="84" y="649" on="0"/>
        <pt x="36" y="659" on="1"/>
        <pt x="39" y="688" on="1"/>
        <pt x="102" y="685" on="0"/>
        <pt x="188" y="685" on="1"/>
        <pt x="603" y="132" on="1"/>
      </contour>
      <contour>
        <pt x="466" y="784" on="1"/>
        <pt x="443" y="784" on="0"/>
        <pt x="345" y="823" on="0"/>
        <pt x="321" y="823" on="1"/>
        <pt x="281" y="823" on="0"/>
        <pt x="254" y="785" on="1"/>
        <pt x="228" y="793" on="1"/>
        <pt x="258" y="894" on="0"/>
        <pt x="318" y="894" on="1"/>
        <pt x="340" y="894" on="0"/>
        <pt x="439" y="855" on="0"/>
        <pt x="463" y="855" on="1"/>
        <pt x="502" y="855" on="0"/>
        <pt x="530" y="893" on="1"/>
        <pt x="556" y="885" on="1"/>
        <pt x="525" y="784" on="0"/>
      </contour>
    </TTGlyph>
    <TTGlyph name="O" xMin="49" yMin="-16" xMax="737" yMax="698">
      <contour>
        <pt x="398" y="650" on="1"/>
        <pt x="340" y="650" on="0"/>
        <pt x="250" y="604" on="0"/>
        <pt x="198" y="536" on="0"/>
        <pt x="182" y="493" on="1"/>
        <pt x="154" y="421" on="0"/>
        <pt x="154" y="285" on="0"/>
        <pt x="178" y="176" on="0"/>
        <pt x="230" y="84" on="0"/>
        <pt x="324" y="32" on="0"/>
        <pt x="441" y="32" on="0"/>
        <pt x="527" y="72" on="0"/>
        <pt x="580" y="133" on="0"/>
        <pt x="598" y="172" on="1"/>
        <pt x="630" y="241" on="0"/>
        <pt x="632" y="312" on="1"/>
        <pt x="632" y="650" on="0"/>
      </contour>
      <contour>
        <pt x="653" y="104" on="1"/>
        <pt x="611" y="49" on="0"/>
        <pt x="467" y="-16" on="0"/>
        <pt x="372" y="-16" on="1"/>
        <pt x="208" y="-16" on="0"/>
        <pt x="49" y="161" on="0"/>
        <pt x="49" y="314" on="1"/>
        <pt x="49" y="468" on="0"/>
        <pt x="133" y="578" on="1"/>
        <pt x="175" y="633" on="0"/>
        <pt x="319" y="698" on="0"/>
        <pt x="414" y="698" on="1"/>
        <pt x="578" y="698" on="0"/>
        <pt x="737" y="522" on="0"/>
        <pt x="737" y="216" on="0"/>
      </contour>
    </TTGlyph>
    <TTGlyph name="OE" xMin="49" yMin="-12" xMax="949" yMax="691">
      <contour>
        <pt x="372" y="-12" on="1"/>
        <pt x="208" y="-12" on="0"/>
        <pt x="49" y="162" on="0"/>
        <pt x="49" y="314" on="1"/>
        <pt x="49" y="466" on="0"/>
        <pt x="133" y="572" on="1"/>
        <pt x="175" y="626" on="0"/>
        <pt x="319" y="688" on="0"/>
        <pt x="414" y="688" on="1"/>
        <pt x="518" y="682" on="0"/>
        <pt x="820" y="682" on="0"/>
        <pt x="906" y="691" on="1"/>
        <pt x="906" y="676" on="1"/>
        <pt x="906" y="595" on="0"/>
        <pt x="918" y="529" on="1"/>
        <pt x="891" y="517" on="1"/>
        <pt x="881" y="549" on="0"/>
        <pt x="863" y="590" on="0"/>
        <pt x="832" y="619" on="0"/>
        <pt x="806" y="634" on="0"/>
        <pt x="748" y="642" on="0"/>
        <pt x="702" y="643" on="0"/>
        <pt x="604" y="643" on="0"/>
        <pt x="601" y="621" on="1"/>
        <pt x="591" y="556" on="0"/>
        <pt x="590" y="367" on="1"/>
        <pt x="717" y="367" on="0"/>
        <pt x="768" y="379" on="0"/>
        <pt x="783" y="411" on="0"/>
        <pt x="793" y="463" on="1"/>
        <pt x="828" y="459" on="1"/>
        <pt x="820" y="410" on="0"/>
        <pt x="820" y="284" on="0"/>
        <pt x="828" y="236" on="1"/>
        <pt x="793" y="231" on="1"/>
        <pt x="783" y="283" on="0"/>
        <pt x="768" y="315" on="0"/>
        <pt x="717" y="327" on="0"/>
        <pt x="590" y="327" on="1"/>
        <pt x="590" y="152" on="0"/>
        <pt x="598" y="87" on="1"/>
        <pt x="601" y="68" on="1"/>
        <pt x="610" y="36" on="0"/>
        <pt x="702" y="36" on="1"/>
        <pt x="748" y="36" on="0"/>
        <pt x="803" y="43" on="0"/>
        <pt x="834" y="56" on="1"/>
        <pt x="892" y="79" on="0"/>
        <pt x="922" y="171" on="1"/>
        <pt x="949" y="159" on="1"/>
        <pt x="931" y="104" on="0"/>
        <pt x="925" y="0" on="1"/>
        <pt x="712" y="0" on="0"/>
        <pt x="412" y="-12" on="0"/>
      </contour>
      <contour>
        <pt x="235" y="87" on="0"/>
        <pt x="332" y="32" on="0"/>
        <pt x="384" y="32" on="1"/>
        <pt x="487" y="32" on="0"/>
        <pt x="491" y="69" on="1"/>
        <pt x="500" y="127" on="0"/>
        <pt x="500" y="282" on="1"/>
        <pt x="500" y="534" on="0"/>
        <pt x="494" y="596" on="1"/>
        <pt x="492" y="616" on="1"/>
        <pt x="488" y="646" on="0"/>
        <pt x="410" y="646" on="1"/>
        <pt x="353" y="646" on="0"/>
        <pt x="260" y="604" on="0"/>
        <pt x="205" y="540" on="0"/>
        <pt x="186" y="499" on="1"/>
        <pt x="154" y="427" on="0"/>
        <pt x="154" y="289" on="0"/>
        <pt x="181" y="180" on="0"/>
      </contour>
    </TTGlyph>
    <TTGlyph name="Oacute" xMin="49" yMin="-16" xMax="737" yMax="951">
      <contour>
        <pt x="398" y="650" on="1"/>
        <pt x="340" y="650" on="0"/>
        <pt x="250" y="604" on="0"/>
        <pt x="198" y="536" on="0"/>
        <pt x="182" y="493" on="1"/>
        <pt x="154" y="421" on="0"/>
        <pt x="154" y="285" on="0"/>
        <pt x="178" y="176" on="0"/>
        <pt x="230" y="84" on="0"/>
        <pt x="324" y="32" on="0"/>
        <pt x="441" y="32" on="0"/>
        <pt x="527" y="72" on="0"/>
        <pt x="580" y="133" on="0"/>
        <pt x="598" y="172" on="1"/>
        <pt x="630" y="241" on="0"/>
        <pt x="632" y="312" on="1"/>
        <pt x="632" y="650" on="0"/>
      </contour>
      <contour>
        <pt x="653" y="104" on="1"/>
        <pt x="611" y="49" on="0"/>
        <pt x="467" y="-16" on="0"/>
        <pt x="372" y="-16" on="1"/>
        <pt x="208" y="-16" on="0"/>
        <pt x="49" y="161" on="0"/>
        <pt x="49" y="314" on="1"/>
        <pt x="49" y="468" on="0"/>
        <pt x="133" y="578" on="1"/>
        <pt x="175" y="633" on="0"/>
        <pt x="319" y="698" on="0"/>
        <pt x="414" y="698" on="1"/>
        <pt x="578" y="698" on="0"/>
        <pt x="737" y="522" on="0"/>
        <pt x="737" y="216" on="0"/>
      </contour>
      <contour>
        <pt x="543" y="909" on="1"/>
        <pt x="370" y="747" on="1"/>
        <pt x="340" y="752" on="1"/>
        <pt x="474" y="951" on="1"/>
        <pt x="499" y="951" on="0"/>
        <pt x="541" y="926" on="0"/>
      </contour>
    </TTGlyph>
    <TTGlyph name="Ocircumflex" xMin="49" yMin="-16" xMax="737" yMax="950">
      <contour>
        <pt x="398" y="650" on="1"/>
        <pt x="340" y="650" on="0"/>
        <pt x="250" y="604" on="0"/>
        <pt x="198" y="536" on="0"/>
        <pt x="182" y="493" on="1"/>
        <pt x="154" y="421" on="0"/>
        <pt x="154" y="285" on="0"/>
        <pt x="178" y="176" on="0"/>
        <pt x="230" y="84" on="0"/>
        <pt x="324" y="32" on="0"/>
        <pt x="441" y="32" on="0"/>
        <pt x="527" y="72" on="0"/>
        <pt x="580" y="133" on="0"/>
        <pt x="598" y="172" on="1"/>
        <pt x="630" y="241" on="0"/>
        <pt x="632" y="312" on="1"/>
        <pt x="632" y="650" on="0"/>
      </contour>
      <contour>
        <pt x="653" y="104" on="1"/>
        <pt x="611" y="49" on="0"/>
        <pt x="467" y="-16" on="0"/>
        <pt x="372" y="-16" on="1"/>
        <pt x="208" y="-16" on="0"/>
        <pt x="49" y="161" on="0"/>
        <pt x="49" y="314" on="1"/>
        <pt x="49" y="468" on="0"/>
        <pt x="133" y="578" on="1"/>
        <pt x="175" y="633" on="0"/>
        <pt x="319" y="698" on="0"/>
        <pt x="414" y="698" on="1"/>
        <pt x="578" y="698" on="0"/>
        <pt x="737" y="522" on="0"/>
        <pt x="737" y="216" on="0"/>
      </contour>
      <contour>
        <pt x="374" y="947" on="1"/>
        <pt x="380" y="950" on="0"/>
        <pt x="403" y="950" on="0"/>
        <pt x="411" y="946" on="1"/>
        <pt x="505" y="752" on="1"/>
        <pt x="475" y="747" on="1"/>
        <pt x="392" y="851" on="1"/>
        <pt x="310" y="747" on="1"/>
        <pt x="280" y="752" on="1"/>
      </contour>
    </TTGlyph>
    <TTGlyph name="Odieresis" xMin="49" yMin="-16" xMax="737" yMax="898">
      <contour>
        <pt x="398" y="650" on="1"/>
        <pt x="340" y="650" on="0"/>
        <pt x="250" y="604" on="0"/>
        <pt x="198" y="536" on="0"/>
        <pt x="182" y="493" on="1"/>
        <pt x="154" y="421" on="0"/>
        <pt x="154" y="285" on="0"/>
        <pt x="178" y="176" on="0"/>
        <pt x="230" y="84" on="0"/>
        <pt x="324" y="32" on="0"/>
        <pt x="441" y="32" on="0"/>
        <pt x="527" y="72" on="0"/>
        <pt x="580" y="133" on="0"/>
        <pt x="598" y="172" on="1"/>
        <pt x="630" y="241" on="0"/>
        <pt x="632" y="312" on="1"/>
        <pt x="632" y="650" on="0"/>
      </contour>
      <contour>
        <pt x="653" y="104" on="1"/>
        <pt x="611" y="49" on="0"/>
        <pt x="467" y="-16" on="0"/>
        <pt x="372" y="-16" on="1"/>
        <pt x="208" y="-16" on="0"/>
        <pt x="49" y="161" on="0"/>
        <pt x="49" y="314" on="1"/>
        <pt x="49" y="468" on="0"/>
        <pt x="133" y="578" on="1"/>
        <pt x="175" y="633" on="0"/>
        <pt x="319" y="698" on="0"/>
        <pt x="414" y="698" on="1"/>
        <pt x="578" y="698" on="0"/>
        <pt x="737" y="522" on="0"/>
        <pt x="737" y="216" on="0"/>
      </contour>
      <contour>
        <pt x="505" y="792" on="0"/>
        <pt x="461" y="792" on="0"/>
        <pt x="431" y="823" on="0"/>
        <pt x="431" y="868" on="0"/>
        <pt x="461" y="898" on="0"/>
        <pt x="505" y="898" on="0"/>
        <pt x="535" y="868" on="0"/>
        <pt x="535" y="823" on="0"/>
      </contour>
      <contour>
        <pt x="325" y="792" on="0"/>
        <pt x="281" y="792" on="0"/>
        <pt x="251" y="823" on="0"/>
        <pt x="251" y="868" on="0"/>
        <pt x="281" y="898" on="0"/>
        <pt x="325" y="898" on="0"/>
        <pt x="355" y="868" on="0"/>
        <pt x="355" y="823" on="0"/>
      </contour>
    </TTGlyph>
    <TTGlyph name="Ograve" xMin="49" yMin="-16" xMax="737" yMax="951">
      <contour>
        <pt x="398" y="650" on="1"/>
        <pt x="340" y="650" on="0"/>
        <pt x="250" y="604" on="0"/>
        <pt x="198" y="536" on="0"/>
        <pt x="182" y="493" on="1"/>
        <pt x="154" y="421" on="0"/>
        <pt x="154" y="285" on="0"/>
        <pt x="178" y="176" on="0"/>
        <pt x="230" y="84" on="0"/>
        <pt x="324" y="32" on="0"/>
        <pt x="441" y="32" on="0"/>
        <pt x="527" y="72" on="0"/>
        <pt x="580" y="133" on="0"/>
        <pt x="598" y="172" on="1"/>
        <pt x="630" y="241" on="0"/>
        <pt x="632" y="312" on="1"/>
        <pt x="632" y="650" on="0"/>
      </contour>
      <contour>
        <pt x="653" y="104" on="1"/>
        <pt x="611" y="49" on="0"/>
        <pt x="467" y="-16" on="0"/>
        <pt x="372" y="-16" on="1"/>
        <pt x="208" y="-16" on="0"/>
        <pt x="49" y="161" on="0"/>
        <pt x="49" y="314" on="1"/>
        <pt x="49" y="468" on="0"/>
        <pt x="133" y="578" on="1"/>
        <pt x="175" y="633" on="0"/>
        <pt x="319" y="698" on="0"/>
        <pt x="414" y="698" on="1"/>
        <pt x="578" y="698" on="0"/>
        <pt x="737" y="522" on="0"/>
        <pt x="737" y="216" on="0"/>
      </contour>
      <contour>
        <pt x="423" y="747" on="1"/>
        <pt x="250" y="909" on="1"/>
        <pt x="252" y="926" on="0"/>
        <pt x="294" y="951" on="0"/>
        <pt x="319" y="951" on="1"/>
        <pt x="453" y="752" on="1"/>
      </contour>
    </TTGlyph>
    <TTGlyph name="Omega" xMin="20" yMin="0" xMax="796" yMax="691">
      <contour>
        <pt x="180" y="51" on="1"/>
        <pt x="202" y="51" on="0"/>
        <pt x="230" y="57" on="1"/>
        <pt x="235" y="75" on="1"/>
        <pt x="158" y="121" on="0"/>
        <pt x="68" y="271" on="0"/>
        <pt x="68" y="360" on="1"/>
        <pt x="68" y="497" on="0"/>
        <pt x="267" y="691" on="0"/>
        <pt x="549" y="691" on="0"/>
        <pt x="748" y="497" on="0"/>
        <pt x="748" y="360" on="1"/>
        <pt x="748" y="271" on="0"/>
        <pt x="658" y="121" on="0"/>
        <pt x="581" y="75" on="1"/>
        <pt x="586" y="57" on="1"/>
        <pt x="614" y="51" on="0"/>
        <pt x="636" y="51" on="1"/>
        <pt x="689" y="51" on="0"/>
        <pt x="750" y="111" on="0"/>
        <pt x="769" y="171" on="1"/>
        <pt x="796" y="159" on="1"/>
        <pt x="778" y="104" on="0"/>
        <pt x="772" y="0" on="1"/>
        <pt x="546" y="0" on="1"/>
        <pt x="522" y="89" on="1"/>
        <pt x="577" y="124" on="0"/>
        <pt x="640" y="289" on="0"/>
        <pt x="640" y="372" on="1"/>
        <pt x="640" y="483" on="0"/>
        <pt x="504" y="638" on="0"/>
        <pt x="312" y="638" on="0"/>
        <pt x="176" y="483" on="0"/>
        <pt x="176" y="372" on="1"/>
        <pt x="176" y="289" on="0"/>
        <pt x="239" y="124" on="0"/>
        <pt x="294" y="89" on="1"/>
        <pt x="270" y="0" on="1"/>
        <pt x="44" y="0" on="1"/>
        <pt x="38" y="104" on="0"/>
        <pt x="20" y="159" on="1"/>
        <pt x="47" y="171" on="1"/>
        <pt x="66" y="111" on="0"/>
        <pt x="127" y="51" on="0"/>
      </contour>
    </TTGlyph>
    <TTGlyph name="Oslash" xMin="49" yMin="-80" xMax="737" yMax="761">
      <contour>
        <pt x="414" y="698" on="1"/>
        <pt x="439" y="697" on="1"/>
        <pt x="453" y="761" on="1"/>
        <pt x="518" y="761" on="1"/>
        <pt x="502" y="690" on="1"/>
        <pt x="621" y="667" on="0"/>
        <pt x="737" y="499" on="0"/>
        <pt x="737" y="369" on="1"/>
        <pt x="737" y="216" on="0"/>
        <pt x="653" y="104" on="1"/>
        <pt x="611" y="49" on="0"/>
        <pt x="467" y="-16" on="0"/>
        <pt x="372" y="-16" on="1"/>
        <pt x="355" y="-16" on="0"/>
        <pt x="347" y="-15" on="1"/>
        <pt x="333" y="-80" on="1"/>
        <pt x="268" y="-80" on="1"/>
        <pt x="284" y="-8" on="1"/>
        <pt x="165" y="15" on="0"/>
        <pt x="49" y="183" on="0"/>
        <pt x="49" y="314" on="1"/>
        <pt x="49" y="468" on="0"/>
        <pt x="133" y="578" on="1"/>
        <pt x="175" y="633" on="0"/>
        <pt x="319" y="698" on="0"/>
      </contour>
      <contour>
        <pt x="154" y="350" on="1"/>
        <pt x="154" y="107" on="0"/>
        <pt x="296" y="48" on="1"/>
        <pt x="428" y="648" on="1"/>
        <pt x="408" y="650" on="0"/>
        <pt x="398" y="650" on="1"/>
        <pt x="340" y="650" on="0"/>
        <pt x="250" y="604" on="0"/>
        <pt x="198" y="536" on="0"/>
        <pt x="182" y="493" on="1"/>
        <pt x="154" y="421" on="0"/>
      </contour>
      <contour>
        <pt x="388" y="32" on="1"/>
        <pt x="441" y="32" on="0"/>
        <pt x="527" y="72" on="0"/>
        <pt x="580" y="133" on="0"/>
        <pt x="598" y="172" on="1"/>
        <pt x="630" y="241" on="0"/>
        <pt x="632" y="312" on="1"/>
        <pt x="632" y="575" on="0"/>
        <pt x="490" y="633" on="1"/>
        <pt x="358" y="33" on="1"/>
        <pt x="367" y="32" on="0"/>
      </contour>
    </TTGlyph>
    <TTGlyph name="Otilde" xMin="49" yMin="-16" xMax="737" yMax="894">
      <contour>
        <pt x="398" y="650" on="1"/>
        <pt x="340" y="650" on="0"/>
        <pt x="250" y="604" on="0"/>
        <pt x="198" y="536" on="0"/>
        <pt x="182" y="493" on="1"/>
        <pt x="154" y="421" on="0"/>
        <pt x="154" y="285" on="0"/>
        <pt x="178" y="176" on="0"/>
        <pt x="230" y="84" on="0"/>
        <pt x="324" y="32" on="0"/>
        <pt x="441" y="32" on="0"/>
        <pt x="527" y="72" on="0"/>
        <pt x="580" y="133" on="0"/>
        <pt x="598" y="172" on="1"/>
        <pt x="630" y="241" on="0"/>
        <pt x="632" y="312" on="1"/>
        <pt x="632" y="650" on="0"/>
      </contour>
      <contour>
        <pt x="653" y="104" on="1"/>
        <pt x="611" y="49" on="0"/>
        <pt x="467" y="-16" on="0"/>
        <pt x="372" y="-16" on="1"/>
        <pt x="208" y="-16" on="0"/>
        <pt x="49" y="161" on="0"/>
        <pt x="49" y="314" on="1"/>
        <pt x="49" y="468" on="0"/>
        <pt x="133" y="578" on="1"/>
        <pt x="175" y="633" on="0"/>
        <pt x="319" y="698" on="0"/>
        <pt x="414" y="698" on="1"/>
        <pt x="578" y="698" on="0"/>
        <pt x="737" y="522" on="0"/>
        <pt x="737" y="216" on="0"/>
      </contour>
      <contour>
        <pt x="467" y="784" on="1"/>
        <pt x="444" y="784" on="0"/>
        <pt x="346" y="823" on="0"/>
        <pt x="322" y="823" on="1"/>
        <pt x="282" y="823" on="0"/>
        <pt x="255" y="785" on="1"/>
        <pt x="229" y="793" on="1"/>
        <pt x="259" y="894" on="0"/>
        <pt x="319" y="894" on="1"/>
        <pt x="341" y="894" on="0"/>
        <pt x="440" y="855" on="0"/>
        <pt x="464" y="855" on="1"/>
        <pt x="502" y="855" on="0"/>
        <pt x="531" y="893" on="1"/>
        <pt x="557" y="885" on="1"/>
        <pt x="526" y="784" on="0"/>
      </contour>
    </TTGlyph>
    <TTGlyph name="P" xMin="29" yMin="-3" xMax="551" yMax="688">
      <contour>
        <pt x="173" y="685" on="1"/>
        <pt x="325" y="685" on="1"/>
        <pt x="435" y="685" on="0"/>
        <pt x="551" y="579" on="0"/>
        <pt x="551" y="416" on="0"/>
        <pt x="407" y="280" on="0"/>
        <pt x="287" y="280" on="1"/>
        <pt x="254" y="280" on="0"/>
        <pt x="216" y="286" on="1"/>
        <pt x="224" y="69" on="1"/>
        <pt x="226" y="51" on="0"/>
        <pt x="260" y="36" on="0"/>
        <pt x="309" y="26" on="1"/>
        <pt x="306" y="-3" on="1"/>
        <pt x="243" y="0" on="0"/>
        <pt x="95" y="0" on="0"/>
        <pt x="32" y="-3" on="1"/>
        <pt x="29" y="26" on="1"/>
        <pt x="80" y="36" on="0"/>
        <pt x="116" y="52" on="0"/>
        <pt x="118" y="69" on="1"/>
        <pt x="126" y="128" on="0"/>
        <pt x="126" y="283" on="1"/>
        <pt x="126" y="534" on="0"/>
        <pt x="120" y="596" on="1"/>
        <pt x="118" y="616" on="1"/>
        <pt x="116" y="634" on="0"/>
        <pt x="84" y="649" on="0"/>
        <pt x="36" y="659" on="1"/>
        <pt x="39" y="688" on="1"/>
        <pt x="102" y="685" on="0"/>
      </contour>
      <contour>
        <pt x="271" y="322" on="1"/>
        <pt x="357" y="322" on="0"/>
        <pt x="455" y="404" on="0"/>
        <pt x="455" y="571" on="0"/>
        <pt x="371" y="643" on="0"/>
        <pt x="287" y="643" on="1"/>
        <pt x="250" y="643" on="0"/>
        <pt x="230" y="633" on="0"/>
        <pt x="226" y="609" on="1"/>
        <pt x="216" y="557" on="0"/>
        <pt x="216" y="325" on="1"/>
        <pt x="245" y="322" on="0"/>
      </contour>
    </TTGlyph>
    <TTGlyph name="Q" xMin="49" yMin="-217" xMax="800" yMax="698">
      <contour>
        <pt x="383" y="-15" on="1"/>
        <pt x="372" y="-16" on="1"/>
        <pt x="208" y="-16" on="0"/>
        <pt x="49" y="161" on="0"/>
        <pt x="49" y="314" on="1"/>
        <pt x="49" y="468" on="0"/>
        <pt x="133" y="578" on="1"/>
        <pt x="175" y="633" on="0"/>
        <pt x="319" y="698" on="0"/>
        <pt x="414" y="698" on="1"/>
        <pt x="578" y="698" on="0"/>
        <pt x="737" y="522" on="0"/>
        <pt x="737" y="369" on="1"/>
        <pt x="737" y="238" on="0"/>
        <pt x="613" y="33" on="0"/>
        <pt x="488" y="-1" on="1"/>
        <pt x="800" y="-156" on="1"/>
        <pt x="800" y="-178" on="1"/>
        <pt x="717" y="-217" on="1"/>
        <pt x="512" y="-77" on="0"/>
      </contour>
      <contour>
        <pt x="398" y="650" on="1"/>
        <pt x="340" y="650" on="0"/>
        <pt x="250" y="604" on="0"/>
        <pt x="198" y="536" on="0"/>
        <pt x="182" y="493" on="1"/>
        <pt x="154" y="421" on="0"/>
        <pt x="154" y="285" on="0"/>
        <pt x="178" y="176" on="0"/>
        <pt x="230" y="84" on="0"/>
        <pt x="324" y="32" on="0"/>
        <pt x="441" y="32" on="0"/>
        <pt x="527" y="72" on="0"/>
        <pt x="580" y="133" on="0"/>
        <pt x="598" y="172" on="1"/>
        <pt x="630" y="241" on="0"/>
        <pt x="632" y="312" on="1"/>
        <pt x="632" y="650" on="0"/>
      </contour>
    </TTGlyph>
    <TTGlyph name="R" xMin="29" yMin="-9" xMax="668" yMax="688">
      <contour>
        <pt x="311" y="-3" on="1"/>
        <pt x="246" y="0" on="0"/>
        <pt x="95" y="0" on="0"/>
        <pt x="32" y="-3" on="1"/>
        <pt x="29" y="26" on="1"/>
        <pt x="80" y="36" on="0"/>
        <pt x="116" y="52" on="0"/>
        <pt x="118" y="69" on="1"/>
        <pt x="126" y="128" on="0"/>
        <pt x="126" y="283" on="1"/>
        <pt x="126" y="534" on="0"/>
        <pt x="120" y="596" on="1"/>
        <pt x="118" y="616" on="1"/>
        <pt x="116" y="634" on="0"/>
        <pt x="84" y="649" on="0"/>
        <pt x="36" y="659" on="1"/>
        <pt x="39" y="688" on="1"/>
        <pt x="102" y="685" on="0"/>
        <pt x="173" y="685" on="1"/>
        <pt x="346" y="685" on="1"/>
        <pt x="443" y="685" on="0"/>
        <pt x="544" y="593" on="0"/>
        <pt x="544" y="525" on="1"/>
        <pt x="544" y="403" on="0"/>
        <pt x="409" y="336" on="1"/>
        <pt x="585" y="43" on="1"/>
        <pt x="608" y="31" on="0"/>
        <pt x="668" y="26" on="1"/>
        <pt x="665" y="-3" on="1"/>
        <pt x="496" y="-9" on="1"/>
        <pt x="319" y="322" on="1"/>
        <pt x="285" y="320" on="0"/>
        <pt x="216" y="320" on="1"/>
        <pt x="216" y="135" on="0"/>
        <pt x="224" y="84" on="1"/>
        <pt x="227" y="69" on="1"/>
        <pt x="229" y="51" on="0"/>
        <pt x="264" y="36" on="0"/>
        <pt x="314" y="26" on="1"/>
      </contour>
      <contour>
        <pt x="453" y="525" on="1"/>
        <pt x="453" y="643" on="0"/>
        <pt x="287" y="643" on="1"/>
        <pt x="251" y="643" on="0"/>
        <pt x="230" y="635" on="0"/>
        <pt x="226" y="621" on="1"/>
        <pt x="216" y="561" on="0"/>
        <pt x="216" y="359" on="1"/>
        <pt x="326" y="359" on="0"/>
        <pt x="373" y="369" on="1"/>
        <pt x="453" y="418" on="0"/>
      </contour>
    </TTGlyph>
    <TTGlyph name="S" xMin="48" yMin="-10" xMax="480" yMax="694">
      <contour>
        <pt x="396" y="590" on="0"/>
        <pt x="325" y="644" on="0"/>
        <pt x="211" y="644" on="0"/>
        <pt x="151" y="589" on="0"/>
        <pt x="151" y="549" on="1"/>
        <pt x="151" y="484" on="0"/>
        <pt x="218" y="440" on="1"/>
        <pt x="376" y="337" on="1"/>
        <pt x="480" y="269" on="0"/>
        <pt x="480" y="176" on="1"/>
        <pt x="480" y="101" on="0"/>
        <pt x="361" y="-10" on="0"/>
        <pt x="133" y="-10" on="0"/>
        <pt x="48" y="26" on="1"/>
        <pt x="64" y="108" on="0"/>
        <pt x="64" y="173" on="1"/>
        <pt x="91" y="185" on="1"/>
        <pt x="106" y="103" on="0"/>
        <pt x="170" y="41" on="0"/>
        <pt x="305" y="41" on="0"/>
        <pt x="376" y="107" on="0"/>
        <pt x="376" y="152" on="1"/>
        <pt x="376" y="213" on="0"/>
        <pt x="311" y="255" on="1"/>
        <pt x="151" y="360" on="1"/>
        <pt x="59" y="420" on="0"/>
        <pt x="59" y="514" on="1"/>
        <pt x="59" y="587" on="0"/>
        <pt x="173" y="694" on="0"/>
        <pt x="265" y="694" on="1"/>
        <pt x="295" y="694" on="0"/>
        <pt x="368" y="679" on="0"/>
        <pt x="406" y="679" on="0"/>
        <pt x="431" y="685" on="1"/>
        <pt x="431" y="670" on="1"/>
        <pt x="431" y="597" on="0"/>
        <pt x="443" y="529" on="1"/>
        <pt x="416" y="517" on="1"/>
      </contour>
    </TTGlyph>
    <TTGlyph name="Scaron" xMin="48" yMin="-10" xMax="480" yMax="951">
      <contour>
        <pt x="396" y="590" on="0"/>
        <pt x="325" y="644" on="0"/>
        <pt x="211" y="644" on="0"/>
        <pt x="151" y="589" on="0"/>
        <pt x="151" y="549" on="1"/>
        <pt x="151" y="484" on="0"/>
        <pt x="218" y="440" on="1"/>
        <pt x="376" y="337" on="1"/>
        <pt x="480" y="269" on="0"/>
        <pt x="480" y="176" on="1"/>
        <pt x="480" y="101" on="0"/>
        <pt x="361" y="-10" on="0"/>
        <pt x="133" y="-10" on="0"/>
        <pt x="48" y="26" on="1"/>
        <pt x="64" y="108" on="0"/>
        <pt x="64" y="173" on="1"/>
        <pt x="91" y="185" on="1"/>
        <pt x="106" y="103" on="0"/>
        <pt x="170" y="41" on="0"/>
        <pt x="305" y="41" on="0"/>
        <pt x="376" y="107" on="0"/>
        <pt x="376" y="152" on="1"/>
        <pt x="376" y="213" on="0"/>
        <pt x="311" y="255" on="1"/>
        <pt x="151" y="360" on="1"/>
        <pt x="59" y="420" on="0"/>
        <pt x="59" y="514" on="1"/>
        <pt x="59" y="587" on="0"/>
        <pt x="173" y="694" on="0"/>
        <pt x="265" y="694" on="1"/>
        <pt x="295" y="694" on="0"/>
        <pt x="368" y="679" on="0"/>
        <pt x="406" y="679" on="0"/>
        <pt x="431" y="685" on="1"/>
        <pt x="431" y="670" on="1"/>
        <pt x="431" y="597" on="0"/>
        <pt x="443" y="529" on="1"/>
        <pt x="416" y="517" on="1"/>
      </contour>
      <contour>
        <pt x="282" y="752" on="1"/>
        <pt x="274" y="748" on="0"/>
        <pt x="251" y="748" on="0"/>
        <pt x="245" y="751" on="1"/>
        <pt x="141" y="946" on="1"/>
        <pt x="171" y="951" on="1"/>
        <pt x="263" y="837" on="1"/>
        <pt x="356" y="951" on="1"/>
        <pt x="386" y="946" on="1"/>
      </contour>
    </TTGlyph>
    <TTGlyph name="T" xMin="11" yMin="-3" xMax="631" yMax="691">
      <contour>
        <pt x="23" y="691" on="1"/>
        <pt x="105" y="685" on="0"/>
        <pt x="537" y="685" on="0"/>
        <pt x="619" y="691" on="1"/>
        <pt x="619" y="676" on="1"/>
        <pt x="619" y="597" on="0"/>
        <pt x="631" y="529" on="1"/>
        <pt x="604" y="517" on="1"/>
        <pt x="578" y="599" on="0"/>
        <pt x="506" y="643" on="0"/>
        <pt x="406" y="643" on="1"/>
        <pt x="376" y="643" on="0"/>
        <pt x="373" y="616" on="1"/>
        <pt x="365" y="557" on="0"/>
        <pt x="365" y="402" on="1"/>
        <pt x="365" y="151" on="0"/>
        <pt x="371" y="90" on="1"/>
        <pt x="373" y="69" on="1"/>
        <pt x="375" y="51" on="0"/>
        <pt x="409" y="36" on="0"/>
        <pt x="458" y="26" on="1"/>
        <pt x="455" y="-3" on="1"/>
        <pt x="392" y="0" on="0"/>
        <pt x="244" y="0" on="0"/>
        <pt x="181" y="-3" on="1"/>
        <pt x="178" y="26" on="1"/>
        <pt x="229" y="36" on="0"/>
        <pt x="265" y="52" on="0"/>
        <pt x="267" y="69" on="1"/>
        <pt x="275" y="128" on="0"/>
        <pt x="275" y="283" on="1"/>
        <pt x="275" y="534" on="0"/>
        <pt x="269" y="596" on="1"/>
        <pt x="267" y="616" on="1"/>
        <pt x="264" y="643" on="0"/>
        <pt x="236" y="643" on="1"/>
        <pt x="136" y="643" on="0"/>
        <pt x="64" y="599" on="0"/>
        <pt x="38" y="517" on="1"/>
        <pt x="11" y="529" on="1"/>
        <pt x="23" y="597" on="0"/>
        <pt x="23" y="676" on="1"/>
      </contour>
    </TTGlyph>
    <TTGlyph name="Thorn" xMin="29" yMin="-3" xMax="551" yMax="688">
      <contour>
        <pt x="306" y="-3" on="1"/>
        <pt x="243" y="0" on="0"/>
        <pt x="95" y="0" on="0"/>
        <pt x="32" y="-3" on="1"/>
        <pt x="29" y="26" on="1"/>
        <pt x="80" y="36" on="0"/>
        <pt x="116" y="52" on="0"/>
        <pt x="118" y="69" on="1"/>
        <pt x="126" y="128" on="0"/>
        <pt x="126" y="283" on="1"/>
        <pt x="126" y="534" on="0"/>
        <pt x="120" y="596" on="1"/>
        <pt x="118" y="616" on="1"/>
        <pt x="116" y="634" on="0"/>
        <pt x="84" y="649" on="0"/>
        <pt x="36" y="659" on="1"/>
        <pt x="39" y="688" on="1"/>
        <pt x="102" y="685" on="0"/>
        <pt x="240" y="685" on="0"/>
        <pt x="303" y="688" on="1"/>
        <pt x="306" y="659" on="1"/>
        <pt x="258" y="649" on="0"/>
        <pt x="226" y="634" on="0"/>
        <pt x="222" y="606" on="0"/>
        <pt x="221" y="580" on="1"/>
        <pt x="325" y="580" on="1"/>
        <pt x="435" y="580" on="0"/>
        <pt x="551" y="474" on="0"/>
        <pt x="551" y="311" on="0"/>
        <pt x="407" y="175" on="0"/>
        <pt x="287" y="175" on="1"/>
        <pt x="248" y="175" on="0"/>
        <pt x="218" y="180" on="1"/>
        <pt x="224" y="69" on="1"/>
        <pt x="226" y="51" on="0"/>
        <pt x="260" y="36" on="0"/>
        <pt x="309" y="26" on="1"/>
      </contour>
      <contour>
        <pt x="271" y="217" on="1"/>
        <pt x="357" y="217" on="0"/>
        <pt x="455" y="299" on="0"/>
        <pt x="455" y="466" on="0"/>
        <pt x="371" y="538" on="0"/>
        <pt x="287" y="538" on="1"/>
        <pt x="250" y="538" on="0"/>
        <pt x="230" y="528" on="0"/>
        <pt x="226" y="504" on="1"/>
        <pt x="216" y="452" on="0"/>
        <pt x="216" y="220" on="1"/>
        <pt x="244" y="217" on="0"/>
      </contour>
    </TTGlyph>
    <TTGlyph name="U" xMin="22" yMin="-12" xMax="745" yMax="688">
      <contour>
        <pt x="493" y="688" on="1"/>
        <pt x="556" y="685" on="0"/>
        <pt x="679" y="685" on="0"/>
        <pt x="742" y="688" on="1"/>
        <pt x="745" y="659" on="1"/>
        <pt x="696" y="649" on="0"/>
        <pt x="664" y="634" on="0"/>
        <pt x="663" y="616" on="1"/>
        <pt x="658" y="508" on="0"/>
        <pt x="652" y="247" on="1"/>
        <pt x="649" y="130" on="0"/>
        <pt x="519" y="-12" on="0"/>
        <pt x="380" y="-12" on="1"/>
        <pt x="313" y="-12" on="0"/>
        <pt x="220" y="9" on="0"/>
        <pt x="184" y="36" on="1"/>
        <pt x="113" y="89" on="0"/>
        <pt x="111" y="236" on="1"/>
        <pt x="107" y="487" on="0"/>
        <pt x="104" y="616" on="1"/>
        <pt x="104" y="634" on="0"/>
        <pt x="71" y="649" on="0"/>
        <pt x="22" y="659" on="1"/>
        <pt x="25" y="688" on="1"/>
        <pt x="88" y="685" on="0"/>
        <pt x="226" y="685" on="0"/>
        <pt x="289" y="688" on="1"/>
        <pt x="292" y="659" on="1"/>
        <pt x="244" y="649" on="0"/>
        <pt x="212" y="634" on="0"/>
        <pt x="210" y="616" on="1"/>
        <pt x="201" y="551" on="0"/>
        <pt x="201" y="282" on="0"/>
        <pt x="202" y="238" on="0"/>
        <pt x="206" y="175" on="0"/>
        <pt x="216" y="141" on="0"/>
        <pt x="233" y="98" on="0"/>
        <pt x="259" y="76" on="0"/>
        <pt x="278" y="65" on="1"/>
        <pt x="311" y="45" on="0"/>
        <pt x="446" y="45" on="0"/>
        <pt x="532" y="86" on="0"/>
        <pt x="576" y="169" on="0"/>
        <pt x="592" y="267" on="0"/>
        <pt x="592" y="351" on="1"/>
        <pt x="592" y="530" on="0"/>
        <pt x="586" y="594" on="1"/>
        <pt x="584" y="616" on="1"/>
        <pt x="581" y="640" on="0"/>
        <pt x="531" y="650" on="1"/>
        <pt x="519" y="653" on="0"/>
        <pt x="490" y="659" on="1"/>
      </contour>
    </TTGlyph>
    <TTGlyph name="Uacute" xMin="22" yMin="-12" xMax="745" yMax="951">
      <contour>
        <pt x="493" y="688" on="1"/>
        <pt x="556" y="685" on="0"/>
        <pt x="679" y="685" on="0"/>
        <pt x="742" y="688" on="1"/>
        <pt x="745" y="659" on="1"/>
        <pt x="696" y="649" on="0"/>
        <pt x="664" y="634" on="0"/>
        <pt x="663" y="616" on="1"/>
        <pt x="658" y="508" on="0"/>
        <pt x="652" y="247" on="1"/>
        <pt x="649" y="130" on="0"/>
        <pt x="519" y="-12" on="0"/>
        <pt x="380" y="-12" on="1"/>
        <pt x="313" y="-12" on="0"/>
        <pt x="220" y="9" on="0"/>
        <pt x="184" y="36" on="1"/>
        <pt x="113" y="89" on="0"/>
        <pt x="111" y="236" on="1"/>
        <pt x="107" y="487" on="0"/>
        <pt x="104" y="616" on="1"/>
        <pt x="104" y="634" on="0"/>
        <pt x="71" y="649" on="0"/>
        <pt x="22" y="659" on="1"/>
        <pt x="25" y="688" on="1"/>
        <pt x="88" y="685" on="0"/>
        <pt x="226" y="685" on="0"/>
        <pt x="289" y="688" on="1"/>
        <pt x="292" y="659" on="1"/>
        <pt x="244" y="649" on="0"/>
        <pt x="212" y="634" on="0"/>
        <pt x="210" y="616" on="1"/>
        <pt x="201" y="551" on="0"/>
        <pt x="201" y="282" on="0"/>
        <pt x="202" y="238" on="0"/>
        <pt x="206" y="175" on="0"/>
        <pt x="216" y="141" on="0"/>
        <pt x="233" y="98" on="0"/>
        <pt x="259" y="76" on="0"/>
        <pt x="278" y="65" on="1"/>
        <pt x="311" y="45" on="0"/>
        <pt x="446" y="45" on="0"/>
        <pt x="532" y="86" on="0"/>
        <pt x="576" y="169" on="0"/>
        <pt x="592" y="267" on="0"/>
        <pt x="592" y="351" on="1"/>
        <pt x="592" y="530" on="0"/>
        <pt x="586" y="594" on="1"/>
        <pt x="584" y="616" on="1"/>
        <pt x="581" y="640" on="0"/>
        <pt x="531" y="650" on="1"/>
        <pt x="519" y="653" on="0"/>
        <pt x="490" y="659" on="1"/>
      </contour>
      <contour>
        <pt x="566" y="909" on="1"/>
        <pt x="393" y="747" on="1"/>
        <pt x="363" y="752" on="1"/>
        <pt x="497" y="951" on="1"/>
        <pt x="522" y="951" on="0"/>
        <pt x="564" y="926" on="0"/>
      </contour>
    </TTGlyph>
    <TTGlyph name="Ucircumflex" xMin="22" yMin="-12" xMax="745" yMax="950">
      <contour>
        <pt x="493" y="688" on="1"/>
        <pt x="556" y="685" on="0"/>
        <pt x="679" y="685" on="0"/>
        <pt x="742" y="688" on="1"/>
        <pt x="745" y="659" on="1"/>
        <pt x="696" y="649" on="0"/>
        <pt x="664" y="634" on="0"/>
        <pt x="663" y="616" on="1"/>
        <pt x="658" y="508" on="0"/>
        <pt x="652" y="247" on="1"/>
        <pt x="649" y="130" on="0"/>
        <pt x="519" y="-12" on="0"/>
        <pt x="380" y="-12" on="1"/>
        <pt x="313" y="-12" on="0"/>
        <pt x="220" y="9" on="0"/>
        <pt x="184" y="36" on="1"/>
        <pt x="113" y="89" on="0"/>
        <pt x="111" y="236" on="1"/>
        <pt x="107" y="487" on="0"/>
        <pt x="104" y="616" on="1"/>
        <pt x="104" y="634" on="0"/>
        <pt x="71" y="649" on="0"/>
        <pt x="22" y="659" on="1"/>
        <pt x="25" y="688" on="1"/>
        <pt x="88" y="685" on="0"/>
        <pt x="226" y="685" on="0"/>
        <pt x="289" y="688" on="1"/>
        <pt x="292" y="659" on="1"/>
        <pt x="244" y="649" on="0"/>
        <pt x="212" y="634" on="0"/>
        <pt x="210" y="616" on="1"/>
        <pt x="201" y="551" on="0"/>
        <pt x="201" y="282" on="0"/>
        <pt x="202" y="238" on="0"/>
        <pt x="206" y="175" on="0"/>
        <pt x="216" y="141" on="0"/>
        <pt x="233" y="98" on="0"/>
        <pt x="259" y="76" on="0"/>
        <pt x="278" y="65" on="1"/>
        <pt x="311" y="45" on="0"/>
        <pt x="446" y="45" on="0"/>
        <pt x="532" y="86" on="0"/>
        <pt x="576" y="169" on="0"/>
        <pt x="592" y="267" on="0"/>
        <pt x="592" y="351" on="1"/>
        <pt x="592" y="530" on="0"/>
        <pt x="586" y="594" on="1"/>
        <pt x="584" y="616" on="1"/>
        <pt x="581" y="640" on="0"/>
        <pt x="531" y="650" on="1"/>
        <pt x="519" y="653" on="0"/>
        <pt x="490" y="659" on="1"/>
      </contour>
      <contour>
        <pt x="376" y="947" on="1"/>
        <pt x="382" y="950" on="0"/>
        <pt x="405" y="950" on="0"/>
        <pt x="413" y="946" on="1"/>
        <pt x="507" y="752" on="1"/>
        <pt x="477" y="747" on="1"/>
        <pt x="394" y="851" on="1"/>
        <pt x="312" y="747" on="1"/>
        <pt x="282" y="752" on="1"/>
      </contour>
    </TTGlyph>
    <TTGlyph name="Udieresis" xMin="22" yMin="-12" xMax="745" yMax="898">
      <contour>
        <pt x="493" y="688" on="1"/>
        <pt x="556" y="685" on="0"/>
        <pt x="679" y="685" on="0"/>
        <pt x="742" y="688" on="1"/>
        <pt x="745" y="659" on="1"/>
        <pt x="696" y="649" on="0"/>
        <pt x="664" y="634" on="0"/>
        <pt x="663" y="616" on="1"/>
        <pt x="658" y="508" on="0"/>
        <pt x="652" y="247" on="1"/>
        <pt x="649" y="130" on="0"/>
        <pt x="519" y="-12" on="0"/>
        <pt x="380" y="-12" on="1"/>
        <pt x="313" y="-12" on="0"/>
        <pt x="220" y="9" on="0"/>
        <pt x="184" y="36" on="1"/>
        <pt x="113" y="89" on="0"/>
        <pt x="111" y="236" on="1"/>
        <pt x="107" y="487" on="0"/>
        <pt x="104" y="616" on="1"/>
        <pt x="104" y="634" on="0"/>
        <pt x="71" y="649" on="0"/>
        <pt x="22" y="659" on="1"/>
        <pt x="25" y="688" on="1"/>
        <pt x="88" y="685" on="0"/>
        <pt x="226" y="685" on="0"/>
        <pt x="289" y="688" on="1"/>
        <pt x="292" y="659" on="1"/>
        <pt x="244" y="649" on="0"/>
        <pt x="212" y="634" on="0"/>
        <pt x="210" y="616" on="1"/>
        <pt x="201" y="551" on="0"/>
        <pt x="201" y="282" on="0"/>
        <pt x="202" y="238" on="0"/>
        <pt x="206" y="175" on="0"/>
        <pt x="216" y="141" on="0"/>
        <pt x="233" y="98" on="0"/>
        <pt x="259" y="76" on="0"/>
        <pt x="278" y="65" on="1"/>
        <pt x="311" y="45" on="0"/>
        <pt x="446" y="45" on="0"/>
        <pt x="532" y="86" on="0"/>
        <pt x="576" y="169" on="0"/>
        <pt x="592" y="267" on="0"/>
        <pt x="592" y="351" on="1"/>
        <pt x="592" y="530" on="0"/>
        <pt x="586" y="594" on="1"/>
        <pt x="584" y="616" on="1"/>
        <pt x="581" y="640" on="0"/>
        <pt x="531" y="650" on="1"/>
        <pt x="519" y="653" on="0"/>
        <pt x="490" y="659" on="1"/>
      </contour>
      <contour>
        <pt x="521" y="792" on="0"/>
        <pt x="477" y="792" on="0"/>
        <pt x="447" y="823" on="0"/>
        <pt x="447" y="868" on="0"/>
        <pt x="477" y="898" on="0"/>
        <pt x="521" y="898" on="0"/>
        <pt x="551" y="868" on="0"/>
        <pt x="551" y="823" on="0"/>
      </contour>
      <contour>
        <pt x="341" y="792" on="0"/>
        <pt x="297" y="792" on="0"/>
        <pt x="267" y="823" on="0"/>
        <pt x="267" y="868" on="0"/>
        <pt x="297" y="898" on="0"/>
        <pt x="341" y="898" on="0"/>
        <pt x="371" y="868" on="0"/>
        <pt x="371" y="823" on="0"/>
      </contour>
    </TTGlyph>
    <TTGlyph name="Ugrave" xMin="22" yMin="-12" xMax="745" yMax="951">
      <contour>
        <pt x="493" y="688" on="1"/>
        <pt x="556" y="685" on="0"/>
        <pt x="679" y="685" on="0"/>
        <pt x="742" y="688" on="1"/>
        <pt x="745" y="659" on="1"/>
        <pt x="696" y="649" on="0"/>
        <pt x="664" y="634" on="0"/>
        <pt x="663" y="616" on="1"/>
        <pt x="658" y="508" on="0"/>
        <pt x="652" y="247" on="1"/>
        <pt x="649" y="130" on="0"/>
        <pt x="519" y="-12" on="0"/>
        <pt x="380" y="-12" on="1"/>
        <pt x="313" y="-12" on="0"/>
        <pt x="220" y="9" on="0"/>
        <pt x="184" y="36" on="1"/>
        <pt x="113" y="89" on="0"/>
        <pt x="111" y="236" on="1"/>
        <pt x="107" y="487" on="0"/>
        <pt x="104" y="616" on="1"/>
        <pt x="104" y="634" on="0"/>
        <pt x="71" y="649" on="0"/>
        <pt x="22" y="659" on="1"/>
        <pt x="25" y="688" on="1"/>
        <pt x="88" y="685" on="0"/>
        <pt x="226" y="685" on="0"/>
        <pt x="289" y="688" on="1"/>
        <pt x="292" y="659" on="1"/>
        <pt x="244" y="649" on="0"/>
        <pt x="212" y="634" on="0"/>
        <pt x="210" y="616" on="1"/>
        <pt x="201" y="551" on="0"/>
        <pt x="201" y="282" on="0"/>
        <pt x="202" y="238" on="0"/>
        <pt x="206" y="175" on="0"/>
        <pt x="216" y="141" on="0"/>
        <pt x="233" y="98" on="0"/>
        <pt x="259" y="76" on="0"/>
        <pt x="278" y="65" on="1"/>
        <pt x="311" y="45" on="0"/>
        <pt x="446" y="45" on="0"/>
        <pt x="532" y="86" on="0"/>
        <pt x="576" y="169" on="0"/>
        <pt x="592" y="267" on="0"/>
        <pt x="592" y="351" on="1"/>
        <pt x="592" y="530" on="0"/>
        <pt x="586" y="594" on="1"/>
        <pt x="584" y="616" on="1"/>
        <pt x="581" y="640" on="0"/>
        <pt x="531" y="650" on="1"/>
        <pt x="519" y="653" on="0"/>
        <pt x="490" y="659" on="1"/>
      </contour>
      <contour>
        <pt x="415" y="747" on="1"/>
        <pt x="242" y="909" on="1"/>
        <pt x="244" y="926" on="0"/>
        <pt x="286" y="951" on="0"/>
        <pt x="311" y="951" on="1"/>
        <pt x="445" y="752" on="1"/>
      </contour>
    </TTGlyph>
    <TTGlyph name="V" xMin="-2" yMin="-9" xMax="694" yMax="688">
      <contour>
        <pt x="444" y="688" on="1"/>
        <pt x="507" y="685" on="0"/>
        <pt x="628" y="685" on="0"/>
        <pt x="691" y="688" on="1"/>
        <pt x="694" y="659" on="1"/>
        <pt x="650" y="650" on="0"/>
        <pt x="612" y="629" on="0"/>
        <pt x="604" y="610" on="1"/>
        <pt x="452" y="203" on="0"/>
        <pt x="395" y="0" on="1"/>
        <pt x="297" y="-9" on="1"/>
        <pt x="83" y="616" on="1"/>
        <pt x="75" y="633" on="0"/>
        <pt x="43" y="650" on="0"/>
        <pt x="-2" y="659" on="1"/>
        <pt x="1" y="688" on="1"/>
        <pt x="64" y="685" on="0"/>
        <pt x="203" y="685" on="0"/>
        <pt x="266" y="688" on="1"/>
        <pt x="269" y="659" on="1"/>
        <pt x="199" y="646" on="0"/>
        <pt x="186" y="634" on="1"/>
        <pt x="181" y="629" on="0"/>
        <pt x="181" y="616" on="0"/>
        <pt x="237" y="445" on="0"/>
        <pt x="332" y="161" on="0"/>
        <pt x="356" y="87" on="1"/>
        <pt x="361" y="87" on="1"/>
        <pt x="383" y="156" on="0"/>
        <pt x="431" y="306" on="1"/>
        <pt x="529" y="611" on="0"/>
        <pt x="527" y="634" on="0"/>
        <pt x="488" y="650" on="0"/>
        <pt x="441" y="659" on="1"/>
      </contour>
    </TTGlyph>
    <TTGlyph name="W" xMin="-2" yMin="-9" xMax="997" yMax="688">
      <contour>
        <pt x="184" y="622" on="1"/>
        <pt x="306" y="109" on="1"/>
        <pt x="311" y="109" on="1"/>
        <pt x="379" y="330" on="0"/>
        <pt x="448" y="602" on="1"/>
        <pt x="470" y="685" on="1"/>
        <pt x="535" y="685" on="1"/>
        <pt x="711" y="109" on="1"/>
        <pt x="716" y="109" on="1"/>
        <pt x="830" y="580" on="0"/>
        <pt x="830" y="621" on="1"/>
        <pt x="830" y="634" on="0"/>
        <pt x="791" y="650" on="0"/>
        <pt x="744" y="659" on="1"/>
        <pt x="747" y="688" on="1"/>
        <pt x="810" y="685" on="0"/>
        <pt x="931" y="685" on="0"/>
        <pt x="994" y="688" on="1"/>
        <pt x="997" y="659" on="1"/>
        <pt x="951" y="650" on="0"/>
        <pt x="911" y="629" on="0"/>
        <pt x="907" y="610" on="1"/>
        <pt x="806" y="203" on="0"/>
        <pt x="749" y="0" on="1"/>
        <pt x="657" y="-9" on="1"/>
        <pt x="491" y="531" on="1"/>
        <pt x="487" y="531" on="1"/>
        <pt x="338" y="0" on="1"/>
        <pt x="246" y="-9" on="1"/>
        <pt x="83" y="616" on="1"/>
        <pt x="76" y="633" on="0"/>
        <pt x="43" y="650" on="0"/>
        <pt x="-2" y="659" on="1"/>
        <pt x="1" y="688" on="1"/>
        <pt x="64" y="685" on="0"/>
        <pt x="206" y="685" on="0"/>
        <pt x="269" y="688" on="1"/>
        <pt x="272" y="659" on="1"/>
        <pt x="202" y="646" on="0"/>
        <pt x="190" y="634" on="1"/>
        <pt x="184" y="629" on="0"/>
      </contour>
    </TTGlyph>
    <TTGlyph name="X" xMin="7" yMin="-3" xMax="696" yMax="688">
      <contour>
        <pt x="173" y="62" on="1"/>
        <pt x="173" y="44" on="0"/>
        <pt x="260" y="26" on="1"/>
        <pt x="257" y="-3" on="1"/>
        <pt x="194" y="0" on="0"/>
        <pt x="73" y="0" on="0"/>
        <pt x="10" y="-3" on="1"/>
        <pt x="7" y="26" on="1"/>
        <pt x="48" y="34" on="0"/>
        <pt x="83" y="56" on="0"/>
        <pt x="97" y="75" on="1"/>
        <pt x="206" y="208" on="0"/>
        <pt x="307" y="341" on="1"/>
        <pt x="113" y="612" on="0"/>
        <pt x="99" y="633" on="0"/>
        <pt x="68" y="651" on="0"/>
        <pt x="26" y="659" on="1"/>
        <pt x="29" y="688" on="1"/>
        <pt x="92" y="685" on="0"/>
        <pt x="240" y="685" on="0"/>
        <pt x="303" y="688" on="1"/>
        <pt x="306" y="659" on="1"/>
        <pt x="217" y="642" on="0"/>
        <pt x="217" y="623" on="1"/>
        <pt x="217" y="613" on="0"/>
        <pt x="366" y="409" on="1"/>
        <pt x="509" y="616" on="1"/>
        <pt x="512" y="620" on="0"/>
        <pt x="512" y="623" on="1"/>
        <pt x="512" y="642" on="0"/>
        <pt x="424" y="659" on="1"/>
        <pt x="427" y="688" on="1"/>
        <pt x="490" y="685" on="0"/>
        <pt x="611" y="685" on="0"/>
        <pt x="674" y="688" on="1"/>
        <pt x="677" y="659" on="1"/>
        <pt x="636" y="651" on="0"/>
        <pt x="601" y="629" on="0"/>
        <pt x="587" y="610" on="1"/>
        <pt x="401" y="360" on="1"/>
        <pt x="439" y="307" on="0"/>
        <pt x="488" y="240" on="1"/>
        <pt x="564" y="135" on="0"/>
        <pt x="611" y="69" on="1"/>
        <pt x="623" y="52" on="0"/>
        <pt x="654" y="34" on="0"/>
        <pt x="696" y="26" on="1"/>
        <pt x="693" y="-3" on="1"/>
        <pt x="630" y="0" on="0"/>
        <pt x="482" y="0" on="0"/>
        <pt x="419" y="-3" on="1"/>
        <pt x="416" y="26" on="1"/>
        <pt x="464" y="36" on="0"/>
        <pt x="505" y="51" on="0"/>
        <pt x="505" y="63" on="1"/>
        <pt x="505" y="64" on="0"/>
        <pt x="503" y="70" on="1"/>
        <pt x="427" y="176" on="0"/>
        <pt x="341" y="295" on="1"/>
        <pt x="175" y="69" on="1"/>
        <pt x="173" y="67" on="0"/>
      </contour>
    </TTGlyph>
    <TTGlyph name="Y" xMin="-4" yMin="-3" xMax="648" yMax="688">
      <contour>
        <pt x="482" y="623" on="1"/>
        <pt x="482" y="641" on="0"/>
        <pt x="395" y="659" on="1"/>
        <pt x="398" y="688" on="1"/>
        <pt x="461" y="685" on="0"/>
        <pt x="582" y="685" on="0"/>
        <pt x="645" y="688" on="1"/>
        <pt x="648" y="659" on="1"/>
        <pt x="604" y="650" on="0"/>
        <pt x="566" y="629" on="0"/>
        <pt x="558" y="610" on="1"/>
        <pt x="365" y="269" on="1"/>
        <pt x="365" y="133" on="0"/>
        <pt x="371" y="85" on="1"/>
        <pt x="373" y="69" on="1"/>
        <pt x="375" y="51" on="0"/>
        <pt x="409" y="36" on="0"/>
        <pt x="458" y="26" on="1"/>
        <pt x="455" y="-3" on="1"/>
        <pt x="392" y="0" on="0"/>
        <pt x="244" y="0" on="0"/>
        <pt x="181" y="-3" on="1"/>
        <pt x="178" y="26" on="1"/>
        <pt x="229" y="36" on="0"/>
        <pt x="265" y="52" on="0"/>
        <pt x="267" y="69" on="1"/>
        <pt x="273" y="113" on="0"/>
        <pt x="274" y="262" on="1"/>
        <pt x="81" y="616" on="1"/>
        <pt x="72" y="633" on="0"/>
        <pt x="39" y="650" on="0"/>
        <pt x="-4" y="659" on="1"/>
        <pt x="-1" y="688" on="1"/>
        <pt x="62" y="685" on="0"/>
        <pt x="210" y="685" on="0"/>
        <pt x="273" y="688" on="1"/>
        <pt x="276" y="659" on="1"/>
        <pt x="187" y="642" on="0"/>
        <pt x="187" y="623" on="1"/>
        <pt x="187" y="621" on="0"/>
        <pt x="189" y="615" on="1"/>
        <pt x="337" y="324" on="1"/>
        <pt x="480" y="616" on="1"/>
        <pt x="482" y="620" on="0"/>
      </contour>
    </TTGlyph>
    <TTGlyph name="Yacute" xMin="-4" yMin="-3" xMax="648" yMax="951">
      <contour>
        <pt x="482" y="623" on="1"/>
        <pt x="482" y="641" on="0"/>
        <pt x="395" y="659" on="1"/>
        <pt x="398" y="688" on="1"/>
        <pt x="461" y="685" on="0"/>
        <pt x="582" y="685" on="0"/>
        <pt x="645" y="688" on="1"/>
        <pt x="648" y="659" on="1"/>
        <pt x="604" y="650" on="0"/>
        <pt x="566" y="629" on="0"/>
        <pt x="558" y="610" on="1"/>
        <pt x="365" y="269" on="1"/>
        <pt x="365" y="133" on="0"/>
        <pt x="371" y="85" on="1"/>
        <pt x="373" y="69" on="1"/>
        <pt x="375" y="51" on="0"/>
        <pt x="409" y="36" on="0"/>
        <pt x="458" y="26" on="1"/>
        <pt x="455" y="-3" on="1"/>
        <pt x="392" y="0" on="0"/>
        <pt x="244" y="0" on="0"/>
        <pt x="181" y="-3" on="1"/>
        <pt x="178" y="26" on="1"/>
        <pt x="229" y="36" on="0"/>
        <pt x="265" y="52" on="0"/>
        <pt x="267" y="69" on="1"/>
        <pt x="273" y="113" on="0"/>
        <pt x="274" y="262" on="1"/>
        <pt x="81" y="616" on="1"/>
        <pt x="72" y="633" on="0"/>
        <pt x="39" y="650" on="0"/>
        <pt x="-4" y="659" on="1"/>
        <pt x="-1" y="688" on="1"/>
        <pt x="62" y="685" on="0"/>
        <pt x="210" y="685" on="0"/>
        <pt x="273" y="688" on="1"/>
        <pt x="276" y="659" on="1"/>
        <pt x="187" y="642" on="0"/>
        <pt x="187" y="623" on="1"/>
        <pt x="187" y="621" on="0"/>
        <pt x="189" y="615" on="1"/>
        <pt x="337" y="324" on="1"/>
        <pt x="480" y="616" on="1"/>
        <pt x="482" y="620" on="0"/>
      </contour>
      <contour>
        <pt x="511" y="909" on="1"/>
        <pt x="338" y="747" on="1"/>
        <pt x="308" y="752" on="1"/>
        <pt x="442" y="951" on="1"/>
        <pt x="467" y="951" on="0"/>
        <pt x="509" y="926" on="0"/>
      </contour>
    </TTGlyph>
    <TTGlyph name="Ydieresis" xMin="-4" yMin="-3" xMax="648" yMax="898">
      <contour>
        <pt x="482" y="623" on="1"/>
        <pt x="482" y="641" on="0"/>
        <pt x="395" y="659" on="1"/>
        <pt x="398" y="688" on="1"/>
        <pt x="461" y="685" on="0"/>
        <pt x="582" y="685" on="0"/>
        <pt x="645" y="688" on="1"/>
        <pt x="648" y="659" on="1"/>
        <pt x="604" y="650" on="0"/>
        <pt x="566" y="629" on="0"/>
        <pt x="558" y="610" on="1"/>
        <pt x="365" y="269" on="1"/>
        <pt x="365" y="133" on="0"/>
        <pt x="371" y="85" on="1"/>
        <pt x="373" y="69" on="1"/>
        <pt x="375" y="51" on="0"/>
        <pt x="409" y="36" on="0"/>
        <pt x="458" y="26" on="1"/>
        <pt x="455" y="-3" on="1"/>
        <pt x="392" y="0" on="0"/>
        <pt x="244" y="0" on="0"/>
        <pt x="181" y="-3" on="1"/>
        <pt x="178" y="26" on="1"/>
        <pt x="229" y="36" on="0"/>
        <pt x="265" y="52" on="0"/>
        <pt x="267" y="69" on="1"/>
        <pt x="273" y="113" on="0"/>
        <pt x="274" y="262" on="1"/>
        <pt x="81" y="616" on="1"/>
        <pt x="72" y="633" on="0"/>
        <pt x="39" y="650" on="0"/>
        <pt x="-4" y="659" on="1"/>
        <pt x="-1" y="688" on="1"/>
        <pt x="62" y="685" on="0"/>
        <pt x="210" y="685" on="0"/>
        <pt x="273" y="688" on="1"/>
        <pt x="276" y="659" on="1"/>
        <pt x="187" y="642" on="0"/>
        <pt x="187" y="623" on="1"/>
        <pt x="187" y="621" on="0"/>
        <pt x="189" y="615" on="1"/>
        <pt x="337" y="324" on="1"/>
        <pt x="480" y="616" on="1"/>
        <pt x="482" y="620" on="0"/>
      </contour>
      <contour>
        <pt x="448" y="792" on="0"/>
        <pt x="404" y="792" on="0"/>
        <pt x="374" y="823" on="0"/>
        <pt x="374" y="868" on="0"/>
        <pt x="404" y="898" on="0"/>
        <pt x="448" y="898" on="0"/>
        <pt x="478" y="868" on="0"/>
        <pt x="478" y="823" on="0"/>
      </contour>
      <contour>
        <pt x="268" y="792" on="0"/>
        <pt x="224" y="792" on="0"/>
        <pt x="194" y="823" on="0"/>
        <pt x="194" y="868" on="0"/>
        <pt x="224" y="898" on="0"/>
        <pt x="268" y="898" on="0"/>
        <pt x="298" y="868" on="0"/>
        <pt x="298" y="823" on="0"/>
      </contour>
    </TTGlyph>
    <TTGlyph name="Z" xMin="30" yMin="0" xMax="614" yMax="691">
      <contour>
        <pt x="267" y="53" on="1"/>
        <pt x="451" y="53" on="0"/>
        <pt x="498" y="70" on="1"/>
        <pt x="547" y="89" on="0"/>
        <pt x="567" y="124" on="1"/>
        <pt x="578" y="143" on="0"/>
        <pt x="587" y="171" on="1"/>
        <pt x="614" y="159" on="1"/>
        <pt x="596" y="104" on="0"/>
        <pt x="590" y="0" on="1"/>
        <pt x="54" y="0" on="1"/>
        <pt x="30" y="35" on="1"/>
        <pt x="478" y="631" on="1"/>
        <pt x="214" y="631" on="0"/>
        <pt x="109" y="601" on="0"/>
        <pt x="83" y="517" on="1"/>
        <pt x="56" y="529" on="1"/>
        <pt x="68" y="597" on="0"/>
        <pt x="68" y="676" on="1"/>
        <pt x="68" y="691" on="1"/>
        <pt x="150" y="685" on="0"/>
        <pt x="448" y="685" on="1"/>
        <pt x="580" y="685" on="1"/>
        <pt x="598" y="652" on="1"/>
        <pt x="151" y="53" on="1"/>
      </contour>
    </TTGlyph>
    <TTGlyph name="Zcaron" xMin="30" yMin="0" xMax="614" yMax="951">
      <contour>
        <pt x="267" y="53" on="1"/>
        <pt x="451" y="53" on="0"/>
        <pt x="498" y="70" on="1"/>
        <pt x="547" y="89" on="0"/>
        <pt x="567" y="124" on="1"/>
        <pt x="578" y="143" on="0"/>
        <pt x="587" y="171" on="1"/>
        <pt x="614" y="159" on="1"/>
        <pt x="596" y="104" on="0"/>
        <pt x="590" y="0" on="1"/>
        <pt x="54" y="0" on="1"/>
        <pt x="30" y="35" on="1"/>
        <pt x="478" y="631" on="1"/>
        <pt x="214" y="631" on="0"/>
        <pt x="109" y="601" on="0"/>
        <pt x="83" y="517" on="1"/>
        <pt x="56" y="529" on="1"/>
        <pt x="68" y="597" on="0"/>
        <pt x="68" y="676" on="1"/>
        <pt x="68" y="691" on="1"/>
        <pt x="150" y="685" on="0"/>
        <pt x="448" y="685" on="1"/>
        <pt x="580" y="685" on="1"/>
        <pt x="598" y="652" on="1"/>
        <pt x="151" y="53" on="1"/>
      </contour>
      <contour>
        <pt x="338" y="752" on="1"/>
        <pt x="330" y="748" on="0"/>
        <pt x="307" y="748" on="0"/>
        <pt x="301" y="751" on="1"/>
        <pt x="197" y="946" on="1"/>
        <pt x="227" y="951" on="1"/>
        <pt x="319" y="837" on="1"/>
        <pt x="412" y="951" on="1"/>
        <pt x="442" y="946" on="1"/>
      </contour>
    </TTGlyph>
    <TTGlyph name="a" xMin="39" yMin="-9" xMax="447" yMax="460">
      <contour>
        <pt x="209" y="208" on="0"/>
        <pt x="123" y="150" on="0"/>
        <pt x="123" y="82" on="0"/>
        <pt x="158" y="51" on="0"/>
        <pt x="236" y="51" on="0"/>
        <pt x="291" y="84" on="1"/>
        <pt x="291" y="210" on="1"/>
      </contour>
      <contour>
        <pt x="364" y="-9" on="1"/>
        <pt x="304" y="-9" on="0"/>
        <pt x="294" y="56" on="1"/>
        <pt x="206" y="-9" on="0"/>
        <pt x="142" y="-9" on="1"/>
        <pt x="99" y="-9" on="0"/>
        <pt x="39" y="44" on="0"/>
        <pt x="39" y="156" on="0"/>
        <pt x="158" y="246" on="0"/>
        <pt x="291" y="255" on="1"/>
        <pt x="291" y="348" on="1"/>
        <pt x="291" y="376" on="0"/>
        <pt x="250" y="406" on="0"/>
        <pt x="176" y="406" on="0"/>
        <pt x="132" y="365" on="0"/>
        <pt x="132" y="333" on="1"/>
        <pt x="132" y="321" on="0"/>
        <pt x="135" y="306" on="1"/>
        <pt x="113" y="296" on="1"/>
        <pt x="93" y="307" on="0"/>
        <pt x="58" y="345" on="0"/>
        <pt x="58" y="362" on="0"/>
        <pt x="85" y="395" on="0"/>
        <pt x="131" y="433" on="0"/>
        <pt x="208" y="460" on="0"/>
        <pt x="304" y="460" on="0"/>
        <pt x="364" y="413" on="0"/>
        <pt x="364" y="290" on="0"/>
        <pt x="370" y="92" on="1"/>
        <pt x="371" y="44" on="0"/>
        <pt x="406" y="44" on="1"/>
        <pt x="421" y="44" on="0"/>
        <pt x="437" y="52" on="1"/>
        <pt x="447" y="26" on="1"/>
        <pt x="409" y="-9" on="0"/>
      </contour>
    </TTGlyph>
    <TTGlyph name="aacute" xMin="39" yMin="-9" xMax="447" yMax="722">
      <contour>
        <pt x="209" y="208" on="0"/>
        <pt x="123" y="150" on="0"/>
        <pt x="123" y="82" on="0"/>
        <pt x="158" y="51" on="0"/>
        <pt x="236" y="51" on="0"/>
        <pt x="291" y="84" on="1"/>
        <pt x="291" y="210" on="1"/>
      </contour>
      <contour>
        <pt x="364" y="-9" on="1"/>
        <pt x="304" y="-9" on="0"/>
        <pt x="294" y="56" on="1"/>
        <pt x="206" y="-9" on="0"/>
        <pt x="142" y="-9" on="1"/>
        <pt x="99" y="-9" on="0"/>
        <pt x="39" y="44" on="0"/>
        <pt x="39" y="156" on="0"/>
        <pt x="158" y="246" on="0"/>
        <pt x="291" y="255" on="1"/>
        <pt x="291" y="348" on="1"/>
        <pt x="291" y="376" on="0"/>
        <pt x="250" y="406" on="0"/>
        <pt x="176" y="406" on="0"/>
        <pt x="132" y="365" on="0"/>
        <pt x="132" y="333" on="1"/>
        <pt x="132" y="321" on="0"/>
        <pt x="135" y="306" on="1"/>
        <pt x="113" y="296" on="1"/>
        <pt x="93" y="307" on="0"/>
        <pt x="58" y="345" on="0"/>
        <pt x="58" y="362" on="0"/>
        <pt x="85" y="395" on="0"/>
        <pt x="131" y="433" on="0"/>
        <pt x="208" y="460" on="0"/>
        <pt x="304" y="460" on="0"/>
        <pt x="364" y="413" on="0"/>
        <pt x="364" y="290" on="0"/>
        <pt x="370" y="92" on="1"/>
        <pt x="371" y="44" on="0"/>
        <pt x="406" y="44" on="1"/>
        <pt x="421" y="44" on="0"/>
        <pt x="437" y="52" on="1"/>
        <pt x="447" y="26" on="1"/>
        <pt x="409" y="-9" on="0"/>
      </contour>
      <contour>
        <pt x="375" y="680" on="1"/>
        <pt x="202" y="518" on="1"/>
        <pt x="172" y="523" on="1"/>
        <pt x="306" y="722" on="1"/>
        <pt x="331" y="722" on="0"/>
        <pt x="373" y="697" on="0"/>
      </contour>
    </TTGlyph>
    <TTGlyph name="acircumflex" xMin="39" yMin="-9" xMax="447" yMax="721">
      <contour>
        <pt x="209" y="208" on="0"/>
        <pt x="123" y="150" on="0"/>
        <pt x="123" y="82" on="0"/>
        <pt x="158" y="51" on="0"/>
        <pt x="236" y="51" on="0"/>
        <pt x="291" y="84" on="1"/>
        <pt x="291" y="210" on="1"/>
      </contour>
      <contour>
        <pt x="364" y="-9" on="1"/>
        <pt x="304" y="-9" on="0"/>
        <pt x="294" y="56" on="1"/>
        <pt x="206" y="-9" on="0"/>
        <pt x="142" y="-9" on="1"/>
        <pt x="99" y="-9" on="0"/>
        <pt x="39" y="44" on="0"/>
        <pt x="39" y="156" on="0"/>
        <pt x="158" y="246" on="0"/>
        <pt x="291" y="255" on="1"/>
        <pt x="291" y="348" on="1"/>
        <pt x="291" y="376" on="0"/>
        <pt x="250" y="406" on="0"/>
        <pt x="176" y="406" on="0"/>
        <pt x="132" y="365" on="0"/>
        <pt x="132" y="333" on="1"/>
        <pt x="132" y="321" on="0"/>
        <pt x="135" y="306" on="1"/>
        <pt x="113" y="296" on="1"/>
        <pt x="93" y="307" on="0"/>
        <pt x="58" y="345" on="0"/>
        <pt x="58" y="362" on="0"/>
        <pt x="85" y="395" on="0"/>
        <pt x="131" y="433" on="0"/>
        <pt x="208" y="460" on="0"/>
        <pt x="304" y="460" on="0"/>
        <pt x="364" y="413" on="0"/>
        <pt x="364" y="290" on="0"/>
        <pt x="370" y="92" on="1"/>
        <pt x="371" y="44" on="0"/>
        <pt x="406" y="44" on="1"/>
        <pt x="421" y="44" on="0"/>
        <pt x="437" y="52" on="1"/>
        <pt x="447" y="26" on="1"/>
        <pt x="409" y="-9" on="0"/>
      </contour>
      <contour>
        <pt x="209" y="718" on="1"/>
        <pt x="215" y="721" on="0"/>
        <pt x="238" y="721" on="0"/>
        <pt x="246" y="717" on="1"/>
        <pt x="340" y="523" on="1"/>
        <pt x="310" y="518" on="1"/>
        <pt x="227" y="622" on="1"/>
        <pt x="145" y="518" on="1"/>
        <pt x="115" y="523" on="1"/>
      </contour>
    </TTGlyph>
    <TTGlyph name="acute" xMin="70" yMin="518" xMax="273" yMax="722">
      <contour>
        <pt x="273" y="680" on="1"/>
        <pt x="100" y="518" on="1"/>
        <pt x="70" y="523" on="1"/>
        <pt x="204" y="722" on="1"/>
        <pt x="229" y="722" on="0"/>
        <pt x="271" y="697" on="0"/>
      </contour>
    </TTGlyph>
    <TTGlyph name="adieresis" xMin="39" yMin="-9" xMax="447" yMax="669">
      <contour>
        <pt x="209" y="208" on="0"/>
        <pt x="123" y="150" on="0"/>
        <pt x="123" y="82" on="0"/>
        <pt x="158" y="51" on="0"/>
        <pt x="236" y="51" on="0"/>
        <pt x="291" y="84" on="1"/>
        <pt x="291" y="210" on="1"/>
      </contour>
      <contour>
        <pt x="364" y="-9" on="1"/>
        <pt x="304" y="-9" on="0"/>
        <pt x="294" y="56" on="1"/>
        <pt x="206" y="-9" on="0"/>
        <pt x="142" y="-9" on="1"/>
        <pt x="99" y="-9" on="0"/>
        <pt x="39" y="44" on="0"/>
        <pt x="39" y="156" on="0"/>
        <pt x="158" y="246" on="0"/>
        <pt x="291" y="255" on="1"/>
        <pt x="291" y="348" on="1"/>
        <pt x="291" y="376" on="0"/>
        <pt x="250" y="406" on="0"/>
        <pt x="176" y="406" on="0"/>
        <pt x="132" y="365" on="0"/>
        <pt x="132" y="333" on="1"/>
        <pt x="132" y="321" on="0"/>
        <pt x="135" y="306" on="1"/>
        <pt x="113" y="296" on="1"/>
        <pt x="93" y="307" on="0"/>
        <pt x="58" y="345" on="0"/>
        <pt x="58" y="362" on="0"/>
        <pt x="85" y="395" on="0"/>
        <pt x="131" y="433" on="0"/>
        <pt x="208" y="460" on="0"/>
        <pt x="304" y="460" on="0"/>
        <pt x="364" y="413" on="0"/>
        <pt x="364" y="290" on="0"/>
        <pt x="370" y="92" on="1"/>
        <pt x="371" y="44" on="0"/>
        <pt x="406" y="44" on="1"/>
        <pt x="421" y="44" on="0"/>
        <pt x="437" y="52" on="1"/>
        <pt x="447" y="26" on="1"/>
        <pt x="409" y="-9" on="0"/>
      </contour>
      <contour>
        <pt x="339" y="563" on="0"/>
        <pt x="295" y="563" on="0"/>
        <pt x="265" y="594" on="0"/>
        <pt x="265" y="639" on="0"/>
        <pt x="295" y="669" on="0"/>
        <pt x="339" y="669" on="0"/>
        <pt x="369" y="639" on="0"/>
        <pt x="369" y="594" on="0"/>
      </contour>
      <contour>
        <pt x="159" y="563" on="0"/>
        <pt x="115" y="563" on="0"/>
        <pt x="85" y="594" on="0"/>
        <pt x="85" y="639" on="0"/>
        <pt x="115" y="669" on="0"/>
        <pt x="159" y="669" on="0"/>
        <pt x="189" y="639" on="0"/>
        <pt x="189" y="594" on="0"/>
      </contour>
    </TTGlyph>
    <TTGlyph name="ae" xMin="39" yMin="-9" xMax="669" yMax="460">
      <contour>
        <pt x="579" y="316" on="1"/>
        <pt x="579" y="362" on="0"/>
        <pt x="526" y="411" on="0"/>
        <pt x="495" y="411" on="1"/>
        <pt x="446" y="411" on="0"/>
        <pt x="382" y="332" on="0"/>
        <pt x="371" y="262" on="1"/>
        <pt x="526" y="279" on="0"/>
        <pt x="576" y="287" on="1"/>
        <pt x="579" y="302" on="0"/>
      </contour>
      <contour>
        <pt x="284" y="351" on="1"/>
        <pt x="284" y="379" on="0"/>
        <pt x="243" y="407" on="0"/>
        <pt x="168" y="407" on="0"/>
        <pt x="125" y="368" on="0"/>
        <pt x="125" y="334" on="1"/>
        <pt x="125" y="321" on="0"/>
        <pt x="128" y="306" on="1"/>
        <pt x="106" y="296" on="1"/>
        <pt x="86" y="307" on="0"/>
        <pt x="51" y="345" on="0"/>
        <pt x="51" y="362" on="0"/>
        <pt x="78" y="395" on="0"/>
        <pt x="124" y="433" on="0"/>
        <pt x="201" y="460" on="0"/>
        <pt x="290" y="460" on="0"/>
        <pt x="344" y="437" on="0"/>
        <pt x="354" y="403" on="1"/>
        <pt x="418" y="460" on="0"/>
        <pt x="517" y="460" on="1"/>
        <pt x="577" y="460" on="0"/>
        <pt x="669" y="371" on="0"/>
        <pt x="669" y="285" on="1"/>
        <pt x="635" y="244" on="1"/>
        <pt x="554" y="234" on="0"/>
        <pt x="396" y="223" on="0"/>
        <pt x="366" y="220" on="1"/>
        <pt x="366" y="53" on="0"/>
        <pt x="516" y="53" on="1"/>
        <pt x="584" y="53" on="0"/>
        <pt x="644" y="83" on="1"/>
        <pt x="656" y="53" on="1"/>
        <pt x="583" y="-9" on="0"/>
        <pt x="492" y="-9" on="1"/>
        <pt x="379" y="-9" on="0"/>
        <pt x="322" y="63" on="1"/>
        <pt x="236" y="-9" on="0"/>
        <pt x="142" y="-9" on="1"/>
        <pt x="99" y="-9" on="0"/>
        <pt x="39" y="44" on="0"/>
        <pt x="39" y="156" on="0"/>
        <pt x="155" y="246" on="0"/>
        <pt x="284" y="255" on="1"/>
      </contour>
      <contour>
        <pt x="203" y="206" on="0"/>
        <pt x="123" y="149" on="0"/>
        <pt x="123" y="116" on="1"/>
        <pt x="123" y="51" on="0"/>
        <pt x="188" y="51" on="1"/>
        <pt x="243" y="51" on="0"/>
        <pt x="303" y="90" on="1"/>
        <pt x="284" y="152" on="0"/>
        <pt x="284" y="213" on="1"/>
      </contour>
    </TTGlyph>
    <TTGlyph name="agrave" xMin="39" yMin="-9" xMax="447" yMax="722">
      <contour>
        <pt x="209" y="208" on="0"/>
        <pt x="123" y="150" on="0"/>
        <pt x="123" y="82" on="0"/>
        <pt x="158" y="51" on="0"/>
        <pt x="236" y="51" on="0"/>
        <pt x="291" y="84" on="1"/>
        <pt x="291" y="210" on="1"/>
      </contour>
      <contour>
        <pt x="364" y="-9" on="1"/>
        <pt x="304" y="-9" on="0"/>
        <pt x="294" y="56" on="1"/>
        <pt x="206" y="-9" on="0"/>
        <pt x="142" y="-9" on="1"/>
        <pt x="99" y="-9" on="0"/>
        <pt x="39" y="44" on="0"/>
        <pt x="39" y="156" on="0"/>
        <pt x="158" y="246" on="0"/>
        <pt x="291" y="255" on="1"/>
        <pt x="291" y="348" on="1"/>
        <pt x="291" y="376" on="0"/>
        <pt x="250" y="406" on="0"/>
        <pt x="176" y="406" on="0"/>
        <pt x="132" y="365" on="0"/>
        <pt x="132" y="333" on="1"/>
        <pt x="132" y="321" on="0"/>
        <pt x="135" y="306" on="1"/>
        <pt x="113" y="296" on="1"/>
        <pt x="93" y="307" on="0"/>
        <pt x="58" y="345" on="0"/>
        <pt x="58" y="362" on="0"/>
        <pt x="85" y="395" on="0"/>
        <pt x="131" y="433" on="0"/>
        <pt x="208" y="460" on="0"/>
        <pt x="304" y="460" on="0"/>
        <pt x="364" y="413" on="0"/>
        <pt x="364" y="290" on="0"/>
        <pt x="370" y="92" on="1"/>
        <pt x="371" y="44" on="0"/>
        <pt x="406" y="44" on="1"/>
        <pt x="421" y="44" on="0"/>
        <pt x="437" y="52" on="1"/>
        <pt x="447" y="26" on="1"/>
        <pt x="409" y="-9" on="0"/>
      </contour>
      <contour>
        <pt x="261" y="518" on="1"/>
        <pt x="88" y="680" on="1"/>
        <pt x="90" y="697" on="0"/>
        <pt x="132" y="722" on="0"/>
        <pt x="157" y="722" on="1"/>
        <pt x="291" y="523" on="1"/>
      </contour>
    </TTGlyph>
    <TTGlyph name="ampersand" xMin="50" yMin="-13" xMax="739" yMax="707">
      <contour>
        <pt x="245" y="-10" on="1"/>
        <pt x="156" y="-10" on="0"/>
        <pt x="50" y="86" on="0"/>
        <pt x="50" y="224" on="0"/>
        <pt x="131" y="327" on="0"/>
        <pt x="218" y="379" on="1"/>
        <pt x="147" y="498" on="0"/>
        <pt x="147" y="620" on="0"/>
        <pt x="238" y="707" on="0"/>
        <pt x="381" y="707" on="0"/>
        <pt x="476" y="647" on="0"/>
        <pt x="476" y="587" on="1"/>
        <pt x="476" y="527" on="0"/>
        <pt x="416" y="473" on="1"/>
        <pt x="372" y="432" on="0"/>
        <pt x="313" y="393" on="1"/>
        <pt x="389" y="272" on="0"/>
        <pt x="486" y="167" on="1"/>
        <pt x="532" y="239" on="0"/>
        <pt x="532" y="309" on="1"/>
        <pt x="532" y="326" on="0"/>
        <pt x="494" y="346" on="0"/>
        <pt x="446" y="355" on="1"/>
        <pt x="449" y="384" on="1"/>
        <pt x="507" y="378" on="0"/>
        <pt x="654" y="378" on="0"/>
        <pt x="702" y="384" on="1"/>
        <pt x="705" y="355" on="1"/>
        <pt x="624" y="339" on="0"/>
        <pt x="610" y="303" on="1"/>
        <pt x="572" y="207" on="0"/>
        <pt x="516" y="135" on="1"/>
        <pt x="553" y="100" on="0"/>
        <pt x="651" y="63" on="0"/>
        <pt x="736" y="62" on="1"/>
        <pt x="739" y="33" on="1"/>
        <pt x="589" y="1" on="0"/>
        <pt x="536" y="-13" on="1"/>
        <pt x="491" y="32" on="0"/>
        <pt x="456" y="71" on="1"/>
        <pt x="358" y="-10" on="0"/>
      </contour>
      <contour>
        <pt x="143" y="107" on="0"/>
        <pt x="223" y="46" on="0"/>
        <pt x="358" y="46" on="0"/>
        <pt x="428" y="103" on="1"/>
        <pt x="310" y="239" on="0"/>
        <pt x="241" y="345" on="1"/>
        <pt x="143" y="269" on="0"/>
        <pt x="143" y="180" on="1"/>
      </contour>
      <contour>
        <pt x="275" y="666" on="0"/>
        <pt x="233" y="622" on="0"/>
        <pt x="233" y="525" on="0"/>
        <pt x="293" y="423" on="1"/>
        <pt x="387" y="489" on="0"/>
        <pt x="387" y="578" on="1"/>
        <pt x="387" y="620" on="0"/>
        <pt x="338" y="666" on="0"/>
      </contour>
    </TTGlyph>
    <TTGlyph name="apple" xMin="100" yMin="-114" xMax="823" yMax="608">
      <contour>
        <pt x="589" y="-89" on="1"/>
        <pt x="566" y="-88" on="1"/>
        <pt x="552" y="-88" on="0"/>
        <pt x="517" y="-112" on="0"/>
        <pt x="508" y="-112" on="1"/>
        <pt x="462" y="-102" on="1"/>
        <pt x="454" y="-102" on="0"/>
        <pt x="423" y="-114" on="0"/>
        <pt x="406" y="-114" on="0"/>
        <pt x="374" y="-89" on="0"/>
        <pt x="361" y="-89" on="1"/>
        <pt x="337" y="-91" on="1"/>
        <pt x="322" y="-91" on="0"/>
        <pt x="304" y="-74" on="1"/>
        <pt x="286" y="-55" on="1"/>
        <pt x="274" y="-49" on="0"/>
        <pt x="248" y="-47" on="0"/>
        <pt x="230" y="-36" on="0"/>
        <pt x="216" y="-1" on="0"/>
        <pt x="205" y="8" on="0"/>
        <pt x="177" y="19" on="0"/>
        <pt x="171" y="28" on="1"/>
        <pt x="166" y="37" on="0"/>
        <pt x="162" y="66" on="0"/>
        <pt x="154" y="79" on="0"/>
        <pt x="144" y="86" on="1"/>
        <pt x="122" y="104" on="0"/>
        <pt x="122" y="124" on="1"/>
        <pt x="125" y="149" on="1"/>
        <pt x="125" y="158" on="0"/>
        <pt x="100" y="193" on="0"/>
        <pt x="100" y="211" on="0"/>
        <pt x="112" y="240" on="0"/>
        <pt x="112" y="257" on="0"/>
        <pt x="100" y="283" on="0"/>
        <pt x="100" y="301" on="0"/>
        <pt x="125" y="342" on="0"/>
        <pt x="125" y="351" on="1"/>
        <pt x="124" y="376" on="1"/>
        <pt x="124" y="391" on="0"/>
        <pt x="157" y="420" on="0"/>
        <pt x="162" y="430" on="0"/>
        <pt x="166" y="462" on="0"/>
        <pt x="174" y="474" on="0"/>
        <pt x="205" y="486" on="0"/>
        <pt x="215" y="496" on="0"/>
        <pt x="229" y="527" on="0"/>
        <pt x="242" y="538" on="0"/>
        <pt x="280" y="546" on="0"/>
        <pt x="291" y="552" on="0"/>
        <pt x="321" y="586" on="0"/>
        <pt x="335" y="587" on="1"/>
        <pt x="361" y="585" on="1"/>
        <pt x="374" y="585" on="0"/>
        <pt x="405" y="608" on="0"/>
        <pt x="416" y="608" on="1"/>
        <pt x="460" y="596" on="1"/>
        <pt x="505" y="608" on="1"/>
        <pt x="518" y="608" on="0"/>
        <pt x="550" y="583" on="0"/>
        <pt x="562" y="583" on="1"/>
        <pt x="590" y="586" on="1"/>
        <pt x="606" y="586" on="0"/>
        <pt x="632" y="553" on="0"/>
        <pt x="645" y="546" on="0"/>
        <pt x="675" y="540" on="0"/>
        <pt x="690" y="530" on="0"/>
        <pt x="700" y="502" on="0"/>
        <pt x="711" y="492" on="0"/>
        <pt x="751" y="471" on="0"/>
        <pt x="760" y="455" on="0"/>
        <pt x="761" y="423" on="0"/>
        <pt x="766" y="414" on="0"/>
        <pt x="800" y="385" on="0"/>
        <pt x="800" y="369" on="1"/>
        <pt x="799" y="344" on="1"/>
        <pt x="799" y="331" on="0"/>
        <pt x="823" y="294" on="0"/>
        <pt x="823" y="276" on="0"/>
        <pt x="812" y="250" on="0"/>
        <pt x="812" y="236" on="0"/>
        <pt x="823" y="207" on="0"/>
        <pt x="822" y="191" on="0"/>
        <pt x="798" y="166" on="0"/>
        <pt x="798" y="152" on="1"/>
        <pt x="800" y="120" on="1"/>
        <pt x="800" y="104" on="0"/>
        <pt x="768" y="78" on="0"/>
        <pt x="763" y="68" on="0"/>
        <pt x="754" y="30" on="0"/>
        <pt x="743" y="17" on="0"/>
        <pt x="718" y="6" on="0"/>
        <pt x="708" y="-4" on="0"/>
        <pt x="690" y="-37" on="0"/>
        <pt x="676" y="-47" on="0"/>
        <pt x="641" y="-56" on="0"/>
        <pt x="631" y="-62" on="0"/>
        <pt x="604" y="-89" on="0"/>
      </contour>
      <contour>
        <pt x="462" y="-6" on="1"/>
        <pt x="495" y="-13" on="1"/>
        <pt x="501" y="-13" on="0"/>
        <pt x="512" y="-6" on="1"/>
        <pt x="527" y="4" on="0"/>
        <pt x="539" y="4" on="1"/>
        <pt x="554" y="3" on="1"/>
        <pt x="566" y="3" on="0"/>
        <pt x="584" y="23" on="0"/>
        <pt x="591" y="27" on="0"/>
        <pt x="617" y="34" on="0"/>
        <pt x="628" y="42" on="0"/>
        <pt x="641" y="65" on="0"/>
        <pt x="648" y="72" on="0"/>
        <pt x="666" y="80" on="0"/>
        <pt x="674" y="89" on="0"/>
        <pt x="680" y="117" on="0"/>
        <pt x="685" y="125" on="0"/>
        <pt x="707" y="143" on="0"/>
        <pt x="707" y="157" on="1"/>
        <pt x="706" y="177" on="1"/>
        <pt x="706" y="188" on="0"/>
        <pt x="723" y="207" on="0"/>
        <pt x="724" y="213" on="1"/>
        <pt x="716" y="245" on="1"/>
        <pt x="724" y="273" on="1"/>
        <pt x="724" y="281" on="0"/>
        <pt x="706" y="309" on="0"/>
        <pt x="706" y="318" on="1"/>
        <pt x="707" y="335" on="1"/>
        <pt x="707" y="347" on="0"/>
        <pt x="683" y="367" on="0"/>
        <pt x="679" y="375" on="0"/>
        <pt x="678" y="398" on="0"/>
        <pt x="672" y="409" on="0"/>
        <pt x="643" y="424" on="0"/>
        <pt x="635" y="432" on="0"/>
        <pt x="627" y="452" on="0"/>
        <pt x="617" y="460" on="0"/>
        <pt x="595" y="464" on="0"/>
        <pt x="585" y="469" on="0"/>
        <pt x="567" y="493" on="0"/>
        <pt x="555" y="493" on="1"/>
        <pt x="535" y="491" on="1"/>
        <pt x="526" y="491" on="0"/>
        <pt x="504" y="509" on="0"/>
        <pt x="494" y="509" on="1"/>
        <pt x="461" y="500" on="1"/>
        <pt x="429" y="509" on="1"/>
        <pt x="421" y="509" on="0"/>
        <pt x="397" y="492" on="0"/>
        <pt x="387" y="492" on="1"/>
        <pt x="370" y="493" on="1"/>
        <pt x="359" y="493" on="0"/>
        <pt x="338" y="468" on="0"/>
        <pt x="329" y="463" on="0"/>
        <pt x="303" y="458" on="0"/>
        <pt x="293" y="450" on="0"/>
        <pt x="283" y="428" on="0"/>
        <pt x="275" y="420" on="0"/>
        <pt x="254" y="412" on="0"/>
        <pt x="250" y="407" on="1"/>
        <pt x="248" y="403" on="0"/>
        <pt x="244" y="380" on="0"/>
        <pt x="240" y="372" on="0"/>
        <pt x="216" y="351" on="0"/>
        <pt x="216" y="340" on="1"/>
        <pt x="217" y="324" on="1"/>
        <pt x="217" y="316" on="0"/>
        <pt x="200" y="286" on="0"/>
        <pt x="200" y="278" on="1"/>
        <pt x="208" y="248" on="1"/>
        <pt x="200" y="215" on="1"/>
        <pt x="200" y="207" on="0"/>
        <pt x="217" y="182" on="0"/>
        <pt x="217" y="174" on="1"/>
        <pt x="215" y="158" on="1"/>
        <pt x="215" y="147" on="0"/>
        <pt x="240" y="124" on="0"/>
        <pt x="244" y="116" on="0"/>
        <pt x="247" y="95" on="0"/>
        <pt x="255" y="82" on="0"/>
        <pt x="275" y="74" on="0"/>
        <pt x="283" y="67" on="0"/>
        <pt x="294" y="41" on="0"/>
        <pt x="306" y="33" on="0"/>
        <pt x="325" y="33" on="0"/>
        <pt x="337" y="27" on="0"/>
        <pt x="360" y="2" on="0"/>
        <pt x="371" y="2" on="1"/>
        <pt x="386" y="3" on="1"/>
        <pt x="396" y="3" on="0"/>
        <pt x="420" y="-14" on="0"/>
        <pt x="426" y="-15" on="1"/>
      </contour>
      <contour>
        <pt x="392" y="417" on="0"/>
        <pt x="532" y="417" on="0"/>
        <pt x="632" y="318" on="0"/>
        <pt x="632" y="176" on="0"/>
        <pt x="532" y="77" on="0"/>
        <pt x="392" y="77" on="0"/>
        <pt x="292" y="176" on="0"/>
        <pt x="292" y="318" on="0"/>
      </contour>
      <contour>
        <pt x="505" y="292" on="1"/>
        <pt x="557" y="292" on="1"/>
        <pt x="557" y="360" on="1"/>
        <pt x="366" y="360" on="1"/>
        <pt x="366" y="292" on="1"/>
        <pt x="420" y="292" on="1"/>
        <pt x="420" y="117" on="1"/>
        <pt x="505" y="117" on="1"/>
      </contour>
    </TTGlyph>
    <TTGlyph name="approxequal" xMin="24" yMin="165" xMax="499" yMax="443">
      <contour>
        <pt x="499" y="354" on="1"/>
        <pt x="428" y="382" on="0"/>
        <pt x="329" y="382" on="0"/>
        <pt x="192" y="327" on="0"/>
        <pt x="92" y="327" on="0"/>
        <pt x="24" y="354" on="1"/>
        <pt x="24" y="415" on="1"/>
        <pt x="92" y="388" on="0"/>
        <pt x="192" y="388" on="0"/>
        <pt x="329" y="443" on="0"/>
        <pt x="428" y="443" on="0"/>
        <pt x="499" y="415" on="1"/>
      </contour>
      <contour>
        <pt x="499" y="192" on="1"/>
        <pt x="428" y="220" on="0"/>
        <pt x="329" y="220" on="0"/>
        <pt x="192" y="165" on="0"/>
        <pt x="92" y="165" on="0"/>
        <pt x="24" y="192" on="1"/>
        <pt x="24" y="253" on="1"/>
        <pt x="92" y="226" on="0"/>
        <pt x="192" y="226" on="0"/>
        <pt x="329" y="281" on="0"/>
        <pt x="428" y="281" on="0"/>
        <pt x="499" y="253" on="1"/>
      </contour>
    </TTGlyph>
    <TTGlyph name="aring" xMin="39" yMin="-9" xMax="447" yMax="724">
      <contour>
        <pt x="209" y="208" on="0"/>
        <pt x="123" y="150" on="0"/>
        <pt x="123" y="82" on="0"/>
        <pt x="158" y="51" on="0"/>
        <pt x="236" y="51" on="0"/>
        <pt x="291" y="84" on="1"/>
        <pt x="291" y="210" on="1"/>
      </contour>
      <contour>
        <pt x="364" y="-9" on="1"/>
        <pt x="304" y="-9" on="0"/>
        <pt x="294" y="56" on="1"/>
        <pt x="206" y="-9" on="0"/>
        <pt x="142" y="-9" on="1"/>
        <pt x="99" y="-9" on="0"/>
        <pt x="39" y="44" on="0"/>
        <pt x="39" y="156" on="0"/>
        <pt x="158" y="246" on="0"/>
        <pt x="291" y="255" on="1"/>
        <pt x="291" y="348" on="1"/>
        <pt x="291" y="376" on="0"/>
        <pt x="250" y="406" on="0"/>
        <pt x="176" y="406" on="0"/>
        <pt x="132" y="365" on="0"/>
        <pt x="132" y="333" on="1"/>
        <pt x="132" y="321" on="0"/>
        <pt x="135" y="306" on="1"/>
        <pt x="113" y="296" on="1"/>
        <pt x="93" y="307" on="0"/>
        <pt x="58" y="345" on="0"/>
        <pt x="58" y="362" on="0"/>
        <pt x="85" y="395" on="0"/>
        <pt x="131" y="433" on="0"/>
        <pt x="208" y="460" on="0"/>
        <pt x="304" y="460" on="0"/>
        <pt x="364" y="413" on="0"/>
        <pt x="364" y="290" on="0"/>
        <pt x="370" y="92" on="1"/>
        <pt x="371" y="44" on="0"/>
        <pt x="406" y="44" on="1"/>
        <pt x="421" y="44" on="0"/>
        <pt x="437" y="52" on="1"/>
        <pt x="447" y="26" on="1"/>
        <pt x="409" y="-9" on="0"/>
      </contour>
      <contour>
        <pt x="227" y="545" on="1"/>
        <pt x="276" y="545" on="0"/>
        <pt x="276" y="694" on="0"/>
        <pt x="175" y="694" on="0"/>
        <pt x="175" y="624" on="1"/>
        <pt x="175" y="591" on="0"/>
        <pt x="201" y="545" on="0"/>
      </contour>
      <contour>
        <pt x="123" y="576" on="0"/>
        <pt x="123" y="662" on="0"/>
        <pt x="184" y="724" on="0"/>
        <pt x="271" y="724" on="0"/>
        <pt x="332" y="663" on="0"/>
        <pt x="332" y="576" on="0"/>
        <pt x="272" y="515" on="0"/>
        <pt x="184" y="515" on="0"/>
      </contour>
    </TTGlyph>
    <TTGlyph name="asciicircum" xMin="36" yMin="265" xMax="486" yMax="664">
      <contour>
        <pt x="235" y="664" on="1"/>
        <pt x="286" y="664" on="1"/>
        <pt x="486" y="265" on="1"/>
        <pt x="417" y="265" on="1"/>
        <pt x="261" y="601" on="1"/>
        <pt x="105" y="265" on="1"/>
        <pt x="36" y="265" on="1"/>
      </contour>
    </TTGlyph>
    <TTGlyph name="asciitilde" xMin="25" yMin="241" xMax="499" yMax="367">
      <contour>
        <pt x="381" y="241" on="1"/>
        <pt x="341" y="241" on="0"/>
        <pt x="182" y="306" on="0"/>
        <pt x="94" y="306" on="0"/>
        <pt x="56" y="274" on="1"/>
        <pt x="25" y="305" on="1"/>
        <pt x="79" y="367" on="0"/>
        <pt x="143" y="367" on="1"/>
        <pt x="183" y="367" on="0"/>
        <pt x="342" y="302" on="0"/>
        <pt x="428" y="302" on="0"/>
        <pt x="468" y="334" on="1"/>
        <pt x="499" y="303" on="1"/>
        <pt x="445" y="241" on="0"/>
      </contour>
    </TTGlyph>
    <TTGlyph name="asterisk" xMin="31" yMin="348" xMax="427" yMax="742">
      <contour>
        <pt x="321" y="348" on="1"/>
        <pt x="251" y="348" on="1"/>
        <pt x="239" y="424" on="0"/>
        <pt x="216" y="494" on="1"/>
        <pt x="110" y="370" on="1"/>
        <pt x="76" y="380" on="1"/>
        <pt x="53" y="446" on="1"/>
        <pt x="123" y="481" on="0"/>
        <pt x="183" y="524" on="1"/>
        <pt x="82" y="565" on="0"/>
        <pt x="48" y="580" on="1"/>
        <pt x="48" y="580" on="0"/>
        <pt x="31" y="588" on="1"/>
        <pt x="31" y="623" on="1"/>
        <pt x="86" y="664" on="1"/>
        <pt x="141" y="608" on="0"/>
        <pt x="201" y="564" on="1"/>
        <pt x="214" y="730" on="1"/>
        <pt x="248" y="742" on="1"/>
        <pt x="303" y="701" on="1"/>
        <pt x="267" y="631" on="0"/>
        <pt x="244" y="561" on="1"/>
        <pt x="406" y="599" on="1"/>
        <pt x="427" y="571" on="1"/>
        <pt x="406" y="505" on="1"/>
        <pt x="329" y="517" on="0"/>
        <pt x="255" y="518" on="1"/>
        <pt x="340" y="377" on="1"/>
      </contour>
    </TTGlyph>
    <TTGlyph name="at" xMin="40" yMin="-68" xMax="741" yMax="638">
      <contour>
        <pt x="581" y="-12" on="0"/>
        <pt x="435" y="-68" on="0"/>
        <pt x="302" y="-68" on="0"/>
        <pt x="188" y="-26" on="0"/>
        <pt x="95" y="55" on="0"/>
        <pt x="40" y="187" on="0"/>
        <pt x="40" y="337" on="0"/>
        <pt x="93" y="466" on="0"/>
        <pt x="189" y="573" on="0"/>
        <pt x="342" y="638" on="0"/>
        <pt x="434" y="638" on="1"/>
        <pt x="582" y="638" on="0"/>
        <pt x="741" y="485" on="0"/>
        <pt x="741" y="275" on="0"/>
        <pt x="598" y="123" on="0"/>
        <pt x="475" y="123" on="1"/>
        <pt x="443" y="123" on="0"/>
        <pt x="417" y="149" on="0"/>
        <pt x="417" y="190" on="0"/>
        <pt x="429" y="240" on="1"/>
        <pt x="425" y="240" on="1"/>
        <pt x="343" y="124" on="0"/>
        <pt x="290" y="124" on="1"/>
        <pt x="257" y="124" on="0"/>
        <pt x="219" y="179" on="0"/>
        <pt x="219" y="229" on="1"/>
        <pt x="219" y="319" on="0"/>
        <pt x="345" y="460" on="0"/>
        <pt x="444" y="460" on="1"/>
        <pt x="479" y="460" on="0"/>
        <pt x="505" y="450" on="1"/>
        <pt x="535" y="472" on="1"/>
        <pt x="550" y="472" on="1"/>
        <pt x="521" y="380" on="0"/>
        <pt x="484" y="196" on="0"/>
        <pt x="484" y="153" on="1"/>
        <pt x="564" y="153" on="0"/>
        <pt x="665" y="277" on="0"/>
        <pt x="665" y="360" on="1"/>
        <pt x="665" y="495" on="0"/>
        <pt x="552" y="561" on="1"/>
        <pt x="490" y="597" on="0"/>
        <pt x="403" y="597" on="1"/>
        <pt x="280" y="597" on="0"/>
        <pt x="125" y="414" on="0"/>
        <pt x="125" y="159" on="0"/>
        <pt x="266" y="-23" on="0"/>
        <pt x="505" y="-23" on="0"/>
        <pt x="624" y="58" on="1"/>
        <pt x="640" y="35" on="1"/>
      </contour>
      <contour>
        <pt x="447" y="434" on="1"/>
        <pt x="380" y="434" on="0"/>
        <pt x="302" y="303" on="0"/>
        <pt x="302" y="179" on="0"/>
        <pt x="327" y="179" on="1"/>
        <pt x="348" y="179" on="0"/>
        <pt x="438" y="288" on="1"/>
        <pt x="474" y="429" on="1"/>
        <pt x="459" y="434" on="0"/>
      </contour>
    </TTGlyph>
    <TTGlyph name="atilde" xMin="39" yMin="-9" xMax="447" yMax="665">
      <contour>
        <pt x="209" y="208" on="0"/>
        <pt x="123" y="150" on="0"/>
        <pt x="123" y="82" on="0"/>
        <pt x="158" y="51" on="0"/>
        <pt x="236" y="51" on="0"/>
        <pt x="291" y="84" on="1"/>
        <pt x="291" y="210" on="1"/>
      </contour>
      <contour>
        <pt x="364" y="-9" on="1"/>
        <pt x="304" y="-9" on="0"/>
        <pt x="294" y="56" on="1"/>
        <pt x="206" y="-9" on="0"/>
        <pt x="142" y="-9" on="1"/>
        <pt x="99" y="-9" on="0"/>
        <pt x="39" y="44" on="0"/>
        <pt x="39" y="156" on="0"/>
        <pt x="158" y="246" on="0"/>
        <pt x="291" y="255" on="1"/>
        <pt x="291" y="348" on="1"/>
        <pt x="291" y="376" on="0"/>
        <pt x="250" y="406" on="0"/>
        <pt x="176" y="406" on="0"/>
        <pt x="132" y="365" on="0"/>
        <pt x="132" y="333" on="1"/>
        <pt x="132" y="321" on="0"/>
        <pt x="135" y="306" on="1"/>
        <pt x="113" y="296" on="1"/>
        <pt x="93" y="307" on="0"/>
        <pt x="58" y="345" on="0"/>
        <pt x="58" y="362" on="0"/>
        <pt x="85" y="395" on="0"/>
        <pt x="131" y="433" on="0"/>
        <pt x="208" y="460" on="0"/>
        <pt x="304" y="460" on="0"/>
        <pt x="364" y="413" on="0"/>
        <pt x="364" y="290" on="0"/>
        <pt x="370" y="92" on="1"/>
        <pt x="371" y="44" on="0"/>
        <pt x="406" y="44" on="1"/>
        <pt x="421" y="44" on="0"/>
        <pt x="437" y="52" on="1"/>
        <pt x="447" y="26" on="1"/>
        <pt x="409" y="-9" on="0"/>
      </contour>
      <contour>
        <pt x="306" y="555" on="1"/>
        <pt x="283" y="555" on="0"/>
        <pt x="185" y="594" on="0"/>
        <pt x="161" y="594" on="1"/>
        <pt x="121" y="594" on="0"/>
        <pt x="94" y="556" on="1"/>
        <pt x="68" y="564" on="1"/>
        <pt x="98" y="665" on="0"/>
        <pt x="158" y="665" on="1"/>
        <pt x="180" y="665" on="0"/>
        <pt x="279" y="626" on="0"/>
        <pt x="303" y="626" on="1"/>
        <pt x="342" y="626" on="0"/>
        <pt x="370" y="664" on="1"/>
        <pt x="396" y="656" on="1"/>
        <pt x="365" y="555" on="0"/>
      </contour>
    </TTGlyph>
    <TTGlyph name="b" xMin="8" yMin="-10" xMax="495" yMax="730">
      <contour>
        <pt x="250" y="37" on="1"/>
        <pt x="322" y="37" on="0"/>
        <pt x="406" y="154" on="0"/>
        <pt x="406" y="301" on="0"/>
        <pt x="334" y="399" on="0"/>
        <pt x="269" y="399" on="1"/>
        <pt x="220" y="399" on="0"/>
        <pt x="157" y="367" on="1"/>
        <pt x="157" y="126" on="0"/>
        <pt x="166" y="54" on="1"/>
        <pt x="210" y="37" on="0"/>
      </contour>
      <contour>
        <pt x="157" y="402" on="1"/>
        <pt x="240" y="459" on="0"/>
        <pt x="395" y="459" on="0"/>
        <pt x="495" y="324" on="0"/>
        <pt x="495" y="134" on="0"/>
        <pt x="365" y="-10" on="0"/>
        <pt x="240" y="-10" on="1"/>
        <pt x="157" y="-10" on="0"/>
        <pt x="74" y="25" on="1"/>
        <pt x="82" y="113" on="0"/>
        <pt x="82" y="298" on="1"/>
        <pt x="82" y="599" on="0"/>
        <pt x="76" y="650" on="1"/>
        <pt x="74" y="667" on="1"/>
        <pt x="10" y="686" on="1"/>
        <pt x="8" y="712" on="1"/>
        <pt x="72" y="712" on="0"/>
        <pt x="140" y="730" on="1"/>
        <pt x="159" y="721" on="1"/>
        <pt x="157" y="610" on="0"/>
      </contour>
    </TTGlyph>
    <TTGlyph name="backslash" xMin="20" yMin="-140" xMax="270" yMax="701">
      <contour>
        <pt x="85" y="701" on="1"/>
        <pt x="270" y="-140" on="1"/>
        <pt x="205" y="-140" on="1"/>
        <pt x="20" y="701" on="1"/>
      </contour>
    </TTGlyph>
    <TTGlyph name="bar" xMin="112" yMin="-140" xMax="177" yMax="701">
      <contour>
        <pt x="112" y="-140" on="1"/>
        <pt x="112" y="701" on="1"/>
        <pt x="177" y="701" on="1"/>
        <pt x="177" y="-140" on="1"/>
      </contour>
    </TTGlyph>
    <TTGlyph name="braceleft" xMin="60" yMin="-147" xMax="303" yMax="707">
      <contour>
        <pt x="60" y="263" on="1"/>
        <pt x="60" y="297" on="1"/>
        <pt x="103" y="297" on="0"/>
        <pt x="122" y="331" on="1"/>
        <pt x="129" y="345" on="0"/>
        <pt x="129" y="369" on="0"/>
        <pt x="80" y="623" on="0"/>
        <pt x="80" y="660" on="1"/>
        <pt x="80" y="701" on="0"/>
        <pt x="225" y="706" on="1"/>
        <pt x="256" y="707" on="0"/>
        <pt x="303" y="707" on="1"/>
        <pt x="300" y="671" on="1"/>
        <pt x="254" y="670" on="0"/>
        <pt x="164" y="651" on="0"/>
        <pt x="164" y="635" on="1"/>
        <pt x="195" y="531" on="0"/>
        <pt x="195" y="373" on="0"/>
        <pt x="172" y="296" on="0"/>
        <pt x="137" y="280" on="1"/>
        <pt x="172" y="264" on="0"/>
        <pt x="195" y="187" on="0"/>
        <pt x="195" y="135" on="1"/>
        <pt x="195" y="35" on="0"/>
        <pt x="172" y="-46" on="1"/>
        <pt x="164" y="-75" on="1"/>
        <pt x="164" y="-91" on="0"/>
        <pt x="254" y="-110" on="0"/>
        <pt x="300" y="-111" on="1"/>
        <pt x="303" y="-147" on="1"/>
        <pt x="139" y="-147" on="0"/>
        <pt x="99" y="-126" on="1"/>
        <pt x="80" y="-116" on="0"/>
        <pt x="80" y="-100" on="1"/>
        <pt x="80" y="-63" on="0"/>
        <pt x="129" y="191" on="0"/>
        <pt x="129" y="215" on="0"/>
        <pt x="114" y="243" on="0"/>
        <pt x="97" y="255" on="0"/>
        <pt x="85" y="258" on="1"/>
        <pt x="70" y="263" on="0"/>
      </contour>
    </TTGlyph>
    <TTGlyph name="braceright" xMin="50" yMin="-147" xMax="293" yMax="707">
      <contour>
        <pt x="293" y="297" on="1"/>
        <pt x="293" y="263" on="1"/>
        <pt x="250" y="263" on="0"/>
        <pt x="232" y="229" on="1"/>
        <pt x="224" y="215" on="0"/>
        <pt x="224" y="191" on="0"/>
        <pt x="273" y="-63" on="0"/>
        <pt x="273" y="-100" on="1"/>
        <pt x="273" y="-141" on="0"/>
        <pt x="128" y="-146" on="1"/>
        <pt x="97" y="-147" on="0"/>
        <pt x="50" y="-147" on="1"/>
        <pt x="53" y="-111" on="1"/>
        <pt x="99" y="-110" on="0"/>
        <pt x="189" y="-91" on="0"/>
        <pt x="189" y="-75" on="1"/>
        <pt x="158" y="29" on="0"/>
        <pt x="158" y="187" on="0"/>
        <pt x="181" y="264" on="0"/>
        <pt x="216" y="280" on="1"/>
        <pt x="181" y="296" on="0"/>
        <pt x="158" y="373" on="0"/>
        <pt x="158" y="425" on="1"/>
        <pt x="158" y="517" on="0"/>
        <pt x="182" y="606" on="1"/>
        <pt x="189" y="635" on="1"/>
        <pt x="189" y="651" on="0"/>
        <pt x="99" y="670" on="0"/>
        <pt x="53" y="671" on="1"/>
        <pt x="50" y="707" on="1"/>
        <pt x="214" y="707" on="0"/>
        <pt x="254" y="686" on="1"/>
        <pt x="273" y="676" on="0"/>
        <pt x="273" y="660" on="1"/>
        <pt x="273" y="623" on="0"/>
        <pt x="224" y="369" on="0"/>
        <pt x="224" y="345" on="0"/>
        <pt x="239" y="317" on="0"/>
        <pt x="256" y="305" on="0"/>
        <pt x="268" y="302" on="1"/>
        <pt x="283" y="297" on="0"/>
      </contour>
    </TTGlyph>
    <TTGlyph name="bracketleft" xMin="100" yMin="-144" xMax="347" yMax="707">
      <contour>
        <pt x="106" y="644" on="1"/>
        <pt x="100" y="697" on="1"/>
        <pt x="121" y="707" on="1"/>
        <pt x="197" y="687" on="0"/>
        <pt x="347" y="687" on="1"/>
        <pt x="344" y="651" on="1"/>
        <pt x="192" y="635" on="1"/>
        <pt x="205" y="506" on="0"/>
        <pt x="205" y="350" on="1"/>
        <pt x="205" y="114" on="0"/>
        <pt x="195" y="-29" on="1"/>
        <pt x="192" y="-72" on="1"/>
        <pt x="344" y="-88" on="1"/>
        <pt x="347" y="-124" on="1"/>
        <pt x="197" y="-124" on="0"/>
        <pt x="121" y="-144" on="1"/>
        <pt x="100" y="-134" on="1"/>
        <pt x="124" y="76" on="0"/>
        <pt x="124" y="483" on="0"/>
      </contour>
    </TTGlyph>
    <TTGlyph name="bracketright" xMin="80" yMin="-143" xMax="327" yMax="708">
      <contour>
        <pt x="321" y="-80" on="1"/>
        <pt x="327" y="-133" on="1"/>
        <pt x="306" y="-143" on="1"/>
        <pt x="230" y="-123" on="0"/>
        <pt x="80" y="-123" on="1"/>
        <pt x="83" y="-87" on="1"/>
        <pt x="235" y="-71" on="1"/>
        <pt x="222" y="58" on="0"/>
        <pt x="222" y="214" on="1"/>
        <pt x="222" y="476" on="0"/>
        <pt x="232" y="593" on="1"/>
        <pt x="235" y="636" on="1"/>
        <pt x="83" y="652" on="1"/>
        <pt x="80" y="688" on="1"/>
        <pt x="230" y="688" on="0"/>
        <pt x="306" y="708" on="1"/>
        <pt x="327" y="698" on="1"/>
        <pt x="303" y="488" on="0"/>
        <pt x="303" y="81" on="0"/>
      </contour>
    </TTGlyph>
    <TTGlyph name="breve" xMin="33" yMin="551" xMax="292" yMax="664">
      <contour>
        <pt x="75" y="638" on="0"/>
        <pt x="128" y="611" on="0"/>
        <pt x="197" y="611" on="0"/>
        <pt x="250" y="638" on="0"/>
        <pt x="255" y="664" on="1"/>
        <pt x="292" y="659" on="1"/>
        <pt x="285" y="608" on="0"/>
        <pt x="210" y="551" on="0"/>
        <pt x="115" y="551" on="0"/>
        <pt x="40" y="608" on="0"/>
        <pt x="33" y="659" on="1"/>
        <pt x="70" y="664" on="1"/>
      </contour>
    </TTGlyph>
    <TTGlyph name="brokenbar" xMin="112" yMin="-140" xMax="177" yMax="701">
      <contour>
        <pt x="112" y="-140" on="1"/>
        <pt x="112" y="195" on="1"/>
        <pt x="177" y="195" on="1"/>
        <pt x="177" y="-140" on="1"/>
      </contour>
      <contour>
        <pt x="112" y="366" on="1"/>
        <pt x="112" y="701" on="1"/>
        <pt x="177" y="701" on="1"/>
        <pt x="177" y="366" on="1"/>
      </contour>
    </TTGlyph>
    <TTGlyph name="bullet" xMin="70" yMin="227" xMax="328" yMax="485">
      <contour>
        <pt x="70" y="303" on="0"/>
        <pt x="70" y="409" on="0"/>
        <pt x="146" y="485" on="0"/>
        <pt x="252" y="485" on="0"/>
        <pt x="328" y="409" on="0"/>
        <pt x="328" y="303" on="0"/>
        <pt x="252" y="227" on="0"/>
        <pt x="146" y="227" on="0"/>
      </contour>
    </TTGlyph>
    <TTGlyph name="c" xMin="36" yMin="-9" xMax="421" yMax="460">
      <contour>
        <pt x="421" y="57" on="1"/>
        <pt x="338" y="-9" on="0"/>
        <pt x="142" y="-9" on="0"/>
        <pt x="36" y="115" on="0"/>
        <pt x="36" y="314" on="0"/>
        <pt x="159" y="460" on="0"/>
        <pt x="269" y="460" on="1"/>
        <pt x="314" y="460" on="0"/>
        <pt x="385" y="431" on="0"/>
        <pt x="415" y="401" on="0"/>
        <pt x="415" y="392" on="1"/>
        <pt x="415" y="352" on="0"/>
        <pt x="391" y="319" on="1"/>
        <pt x="367" y="319" on="1"/>
        <pt x="355" y="352" on="0"/>
        <pt x="298" y="406" on="0"/>
        <pt x="253" y="406" on="1"/>
        <pt x="191" y="406" on="0"/>
        <pt x="124" y="295" on="0"/>
        <pt x="124" y="134" on="0"/>
        <pt x="202" y="50" on="0"/>
        <pt x="342" y="50" on="0"/>
        <pt x="409" y="90" on="1"/>
      </contour>
    </TTGlyph>
    <TTGlyph name="caron" xMin="40" yMin="519" xMax="285" yMax="722">
      <contour>
        <pt x="181" y="523" on="1"/>
        <pt x="173" y="519" on="0"/>
        <pt x="150" y="519" on="0"/>
        <pt x="144" y="522" on="1"/>
        <pt x="40" y="717" on="1"/>
        <pt x="70" y="722" on="1"/>
        <pt x="162" y="608" on="1"/>
        <pt x="255" y="722" on="1"/>
        <pt x="285" y="717" on="1"/>
      </contour>
    </TTGlyph>
    <TTGlyph name="ccedilla" xMin="36" yMin="-259" xMax="421" yMax="465">
      <contour>
        <pt x="244" y="-4" on="1"/>
        <pt x="238" y="-4" on="1"/>
        <pt x="234" y="-13" on="0"/>
        <pt x="234" y="-39" on="0"/>
        <pt x="312" y="-100" on="0"/>
        <pt x="312" y="-125" on="1"/>
        <pt x="312" y="-160" on="0"/>
        <pt x="232" y="-230" on="0"/>
        <pt x="154" y="-259" on="1"/>
        <pt x="138" y="-246" on="0"/>
        <pt x="138" y="-199" on="0"/>
        <pt x="161" y="-180" on="1"/>
        <pt x="258" y="-175" on="0"/>
        <pt x="258" y="-145" on="1"/>
        <pt x="258" y="-130" on="0"/>
        <pt x="191" y="-78" on="0"/>
        <pt x="191" y="-30" on="0"/>
        <pt x="211" y="-2" on="1"/>
        <pt x="125" y="8" on="0"/>
        <pt x="36" y="128" on="0"/>
        <pt x="36" y="319" on="0"/>
        <pt x="159" y="465" on="0"/>
        <pt x="269" y="465" on="1"/>
        <pt x="314" y="465" on="0"/>
        <pt x="385" y="436" on="0"/>
        <pt x="415" y="406" on="0"/>
        <pt x="415" y="397" on="1"/>
        <pt x="415" y="357" on="0"/>
        <pt x="391" y="324" on="1"/>
        <pt x="367" y="324" on="1"/>
        <pt x="355" y="357" on="0"/>
        <pt x="298" y="411" on="0"/>
        <pt x="253" y="411" on="1"/>
        <pt x="191" y="411" on="0"/>
        <pt x="124" y="300" on="0"/>
        <pt x="124" y="139" on="0"/>
        <pt x="202" y="55" on="0"/>
        <pt x="342" y="55" on="0"/>
        <pt x="409" y="95" on="1"/>
        <pt x="421" y="62" on="1"/>
        <pt x="338" y="-4" on="0"/>
      </contour>
    </TTGlyph>
    <TTGlyph name="cedilla" xMin="138" yMin="-259" xMax="312" yMax="11">
      <contour>
        <pt x="247" y="11" on="1"/>
        <pt x="234" y="-10" on="0"/>
        <pt x="234" y="-39" on="0"/>
        <pt x="312" y="-100" on="0"/>
        <pt x="312" y="-125" on="1"/>
        <pt x="312" y="-160" on="0"/>
        <pt x="232" y="-230" on="0"/>
        <pt x="154" y="-259" on="1"/>
        <pt x="138" y="-246" on="0"/>
        <pt x="138" y="-199" on="0"/>
        <pt x="161" y="-180" on="1"/>
        <pt x="258" y="-175" on="0"/>
        <pt x="258" y="-145" on="1"/>
        <pt x="258" y="-130" on="0"/>
        <pt x="191" y="-78" on="0"/>
        <pt x="191" y="-26" on="0"/>
        <pt x="221" y="11" on="1"/>
      </contour>
    </TTGlyph>
    <TTGlyph name="cent" xMin="53" yMin="-9" xMax="440" yMax="641">
      <contour>
        <pt x="317" y="552" on="0"/>
        <pt x="371" y="541" on="0"/>
        <pt x="402" y="541" on="0"/>
        <pt x="427" y="546" on="1"/>
        <pt x="427" y="533" on="1"/>
        <pt x="427" y="475" on="0"/>
        <pt x="438" y="409" on="1"/>
        <pt x="414" y="398" on="1"/>
        <pt x="385" y="502" on="0"/>
        <pt x="296" y="509" on="1"/>
        <pt x="252" y="153" on="1"/>
        <pt x="274" y="147" on="0"/>
        <pt x="301" y="147" on="1"/>
        <pt x="360" y="147" on="0"/>
        <pt x="426" y="177" on="1"/>
        <pt x="440" y="148" on="1"/>
        <pt x="362" y="86" on="0"/>
        <pt x="265" y="86" on="1"/>
        <pt x="251" y="86" on="0"/>
        <pt x="244" y="87" on="1"/>
        <pt x="232" y="-9" on="1"/>
        <pt x="187" y="-9" on="1"/>
        <pt x="200" y="94" on="1"/>
        <pt x="129" y="114" on="0"/>
        <pt x="53" y="233" on="0"/>
        <pt x="53" y="400" on="0"/>
        <pt x="162" y="544" on="0"/>
        <pt x="257" y="553" on="1"/>
        <pt x="268" y="641" on="1"/>
        <pt x="313" y="641" on="1"/>
        <pt x="302" y="553" on="1"/>
      </contour>
      <contour>
        <pt x="139" y="328" on="1"/>
        <pt x="139" y="221" on="0"/>
        <pt x="209" y="172" on="1"/>
        <pt x="251" y="507" on="1"/>
        <pt x="192" y="496" on="0"/>
        <pt x="139" y="395" on="0"/>
      </contour>
    </TTGlyph>
    <TTGlyph name="circumflex" xMin="50" yMin="518" xMax="275" yMax="721">
      <contour>
        <pt x="144" y="718" on="1"/>
        <pt x="150" y="721" on="0"/>
        <pt x="173" y="721" on="0"/>
        <pt x="181" y="717" on="1"/>
        <pt x="275" y="523" on="1"/>
        <pt x="245" y="518" on="1"/>
        <pt x="162" y="622" on="1"/>
        <pt x="80" y="518" on="1"/>
        <pt x="50" y="523" on="1"/>
      </contour>
    </TTGlyph>
    <TTGlyph name="colon" xMin="60" yMin="-9" xMax="166" yMax="403">
      <contour>
        <pt x="135" y="-9" on="0"/>
        <pt x="91" y="-9" on="0"/>
        <pt x="60" y="22" on="0"/>
        <pt x="60" y="68" on="0"/>
        <pt x="91" y="99" on="0"/>
        <pt x="135" y="99" on="0"/>
        <pt x="166" y="68" on="0"/>
        <pt x="166" y="22" on="0"/>
      </contour>
      <contour>
        <pt x="135" y="295" on="0"/>
        <pt x="91" y="295" on="0"/>
        <pt x="60" y="326" on="0"/>
        <pt x="60" y="372" on="0"/>
        <pt x="91" y="403" on="0"/>
        <pt x="135" y="403" on="0"/>
        <pt x="166" y="372" on="0"/>
        <pt x="166" y="326" on="0"/>
      </contour>
    </TTGlyph>
    <TTGlyph name="comma" xMin="30" yMin="-147" xMax="185" yMax="91">
      <contour>
        <pt x="57" y="64" on="0"/>
        <pt x="90" y="91" on="0"/>
        <pt x="143" y="91" on="0"/>
        <pt x="185" y="41" on="0"/>
        <pt x="185" y="-39" on="0"/>
        <pt x="113" y="-123" on="0"/>
        <pt x="39" y="-147" on="1"/>
        <pt x="30" y="-125" on="1"/>
        <pt x="138" y="-76" on="0"/>
        <pt x="138" y="7" on="1"/>
        <pt x="124" y="-8" on="0"/>
        <pt x="84" y="-8" on="0"/>
        <pt x="57" y="20" on="0"/>
      </contour>
    </TTGlyph>
    <TTGlyph name="copyright" xMin="18" yMin="197" xMax="581" yMax="760">
      <contour>
        <pt x="306" y="651" on="1"/>
        <pt x="381" y="644" on="1"/>
        <pt x="400" y="644" on="0"/>
        <pt x="412" y="649" on="1"/>
        <pt x="412" y="598" on="0"/>
        <pt x="417" y="570" on="1"/>
        <pt x="396" y="561" on="1"/>
        <pt x="376" y="627" on="0"/>
        <pt x="299" y="627" on="1"/>
        <pt x="252" y="627" on="0"/>
        <pt x="186" y="555" on="0"/>
        <pt x="186" y="426" on="0"/>
        <pt x="243" y="339" on="0"/>
        <pt x="302" y="339" on="1"/>
        <pt x="387" y="339" on="0"/>
        <pt x="409" y="408" on="1"/>
        <pt x="431" y="399" on="1"/>
        <pt x="424" y="376" on="0"/>
        <pt x="420" y="336" on="1"/>
        <pt x="354" y="312" on="0"/>
        <pt x="300" y="312" on="1"/>
        <pt x="223" y="312" on="0"/>
        <pt x="126" y="391" on="0"/>
        <pt x="126" y="545" on="0"/>
        <pt x="216" y="651" on="0"/>
      </contour>
      <contour>
        <pt x="55" y="580" on="0"/>
        <pt x="55" y="378" on="0"/>
        <pt x="198" y="235" on="0"/>
        <pt x="400" y="235" on="0"/>
        <pt x="543" y="378" on="0"/>
        <pt x="543" y="580" on="0"/>
        <pt x="400" y="723" on="0"/>
        <pt x="198" y="723" on="0"/>
      </contour>
      <contour>
        <pt x="183" y="197" on="0"/>
        <pt x="18" y="362" on="0"/>
        <pt x="18" y="595" on="0"/>
        <pt x="183" y="760" on="0"/>
        <pt x="416" y="760" on="0"/>
        <pt x="581" y="595" on="0"/>
        <pt x="581" y="362" on="0"/>
        <pt x="416" y="197" on="0"/>
      </contour>
    </TTGlyph>
    <TTGlyph name="currency" xMin="33" yMin="95" xMax="489" yMax="551">
      <contour>
        <pt x="115" y="213" on="1"/>
        <pt x="79" y="262" on="0"/>
        <pt x="79" y="382" on="0"/>
        <pt x="115" y="432" on="1"/>
        <pt x="35" y="495" on="1"/>
        <pt x="86" y="551" on="1"/>
        <pt x="152" y="468" on="1"/>
        <pt x="203" y="504" on="0"/>
        <pt x="318" y="504" on="0"/>
        <pt x="370" y="468" on="1"/>
        <pt x="434" y="549" on="1"/>
        <pt x="489" y="496" on="1"/>
        <pt x="407" y="431" on="1"/>
        <pt x="443" y="378" on="0"/>
        <pt x="443" y="266" on="0"/>
        <pt x="407" y="213" on="1"/>
        <pt x="487" y="151" on="1"/>
        <pt x="436" y="95" on="1"/>
        <pt x="370" y="177" on="1"/>
        <pt x="320" y="141" on="0"/>
        <pt x="200" y="141" on="0"/>
        <pt x="151" y="177" on="1"/>
        <pt x="89" y="97" on="1"/>
        <pt x="33" y="148" on="1"/>
      </contour>
      <contour>
        <pt x="212" y="438" on="0"/>
        <pt x="146" y="371" on="0"/>
        <pt x="146" y="273" on="0"/>
        <pt x="212" y="207" on="0"/>
        <pt x="310" y="207" on="0"/>
        <pt x="376" y="273" on="0"/>
        <pt x="376" y="371" on="0"/>
        <pt x="310" y="438" on="0"/>
      </contour>
    </TTGlyph>
    <TTGlyph name="d" xMin="39" yMin="-9" xMax="530" yMax="730">
      <contour>
        <pt x="377" y="56" on="1"/>
        <pt x="308" y="-9" on="0"/>
        <pt x="144" y="-9" on="0"/>
        <pt x="39" y="110" on="0"/>
        <pt x="39" y="331" on="0"/>
        <pt x="164" y="461" on="0"/>
        <pt x="256" y="461" on="1"/>
        <pt x="306" y="461" on="0"/>
        <pt x="376" y="426" on="1"/>
        <pt x="376" y="611" on="0"/>
        <pt x="370" y="653" on="1"/>
        <pt x="368" y="667" on="1"/>
        <pt x="304" y="686" on="1"/>
        <pt x="302" y="712" on="1"/>
        <pt x="366" y="712" on="0"/>
        <pt x="434" y="730" on="1"/>
        <pt x="453" y="721" on="1"/>
        <pt x="451" y="596" on="0"/>
        <pt x="451" y="138" on="0"/>
        <pt x="455" y="72" on="0"/>
        <pt x="468" y="55" on="0"/>
        <pt x="481" y="51" on="1"/>
        <pt x="502" y="45" on="0"/>
        <pt x="530" y="43" on="1"/>
        <pt x="527" y="14" on="1"/>
        <pt x="491" y="11" on="0"/>
        <pt x="418" y="-4" on="1"/>
        <pt x="388" y="9" on="0"/>
      </contour>
      <contour>
        <pt x="282" y="400" on="1"/>
        <pt x="203" y="400" on="0"/>
        <pt x="128" y="297" on="0"/>
        <pt x="128" y="145" on="0"/>
        <pt x="194" y="54" on="0"/>
        <pt x="316" y="54" on="0"/>
        <pt x="371" y="89" on="1"/>
        <pt x="376" y="169" on="0"/>
        <pt x="376" y="382" on="1"/>
        <pt x="324" y="400" on="0"/>
      </contour>
    </TTGlyph>
    <TTGlyph name="dagger" xMin="0" yMin="-9" xMax="416" yMax="672">
      <contour>
        <pt x="243" y="450" on="1"/>
        <pt x="238" y="375" on="0"/>
        <pt x="238" y="213" on="0"/>
        <pt x="257" y="0" on="1"/>
        <pt x="209" y="-9" on="1"/>
        <pt x="161" y="0" on="1"/>
        <pt x="179" y="203" on="0"/>
        <pt x="179" y="390" on="0"/>
        <pt x="175" y="450" on="1"/>
        <pt x="80" y="448" on="0"/>
        <pt x="27" y="438" on="1"/>
        <pt x="7" y="435" on="1"/>
        <pt x="0" y="453" on="1"/>
        <pt x="43" y="514" on="1"/>
        <pt x="94" y="506" on="0"/>
        <pt x="170" y="504" on="1"/>
        <pt x="162" y="587" on="0"/>
        <pt x="148" y="672" on="1"/>
        <pt x="270" y="672" on="1"/>
        <pt x="255" y="592" on="0"/>
        <pt x="247" y="504" on="1"/>
        <pt x="332" y="506" on="0"/>
        <pt x="389" y="516" on="1"/>
        <pt x="408" y="520" on="1"/>
        <pt x="416" y="502" on="1"/>
        <pt x="372" y="441" on="1"/>
        <pt x="322" y="448" on="0"/>
      </contour>
    </TTGlyph>
    <TTGlyph name="daggerdbl" xMin="0" yMin="-204" xMax="416" yMax="672">
      <contour>
        <pt x="268" y="-204" on="1"/>
        <pt x="146" y="-204" on="1"/>
        <pt x="161" y="-124" on="0"/>
        <pt x="169" y="-36" on="1"/>
        <pt x="84" y="-38" on="0"/>
        <pt x="27" y="-48" on="1"/>
        <pt x="8" y="-52" on="1"/>
        <pt x="0" y="-34" on="1"/>
        <pt x="44" y="27" on="1"/>
        <pt x="89" y="20" on="0"/>
        <pt x="162" y="18" on="1"/>
        <pt x="170" y="112" on="0"/>
        <pt x="176" y="234" on="1"/>
        <pt x="175" y="275" on="0"/>
        <pt x="160" y="450" on="1"/>
        <pt x="86" y="448" on="0"/>
        <pt x="25" y="438" on="1"/>
        <pt x="7" y="435" on="1"/>
        <pt x="0" y="453" on="1"/>
        <pt x="43" y="514" on="1"/>
        <pt x="94" y="506" on="0"/>
        <pt x="170" y="504" on="1"/>
        <pt x="162" y="587" on="0"/>
        <pt x="148" y="672" on="1"/>
        <pt x="270" y="672" on="1"/>
        <pt x="255" y="592" on="0"/>
        <pt x="247" y="504" on="1"/>
        <pt x="332" y="506" on="0"/>
        <pt x="389" y="516" on="1"/>
        <pt x="408" y="520" on="1"/>
        <pt x="416" y="502" on="1"/>
        <pt x="372" y="441" on="1"/>
        <pt x="326" y="447" on="0"/>
        <pt x="253" y="450" on="1"/>
        <pt x="245" y="356" on="0"/>
        <pt x="239" y="234" on="1"/>
        <pt x="241" y="181" on="0"/>
        <pt x="255" y="18" on="1"/>
        <pt x="328" y="20" on="0"/>
        <pt x="390" y="30" on="1"/>
        <pt x="409" y="33" on="1"/>
        <pt x="416" y="15" on="1"/>
        <pt x="373" y="-46" on="1"/>
        <pt x="322" y="-38" on="0"/>
        <pt x="246" y="-36" on="1"/>
        <pt x="254" y="-119" on="0"/>
      </contour>
    </TTGlyph>
    <TTGlyph name="degree" xMin="10" yMin="424" xMax="271" yMax="685">
      <contour>
        <pt x="10" y="500" on="0"/>
        <pt x="10" y="608" on="0"/>
        <pt x="86" y="685" on="0"/>
        <pt x="194" y="685" on="0"/>
        <pt x="271" y="608" on="0"/>
        <pt x="271" y="500" on="0"/>
        <pt x="194" y="424" on="0"/>
        <pt x="86" y="424" on="0"/>
      </contour>
      <contour>
        <pt x="52" y="591" on="0"/>
        <pt x="52" y="517" on="0"/>
        <pt x="103" y="466" on="0"/>
        <pt x="177" y="466" on="0"/>
        <pt x="230" y="517" on="0"/>
        <pt x="230" y="591" on="0"/>
        <pt x="177" y="644" on="0"/>
        <pt x="103" y="644" on="0"/>
      </contour>
    </TTGlyph>
    <TTGlyph name="dieresis" xMin="88" yMin="563" xMax="372" yMax="669">
      <contour>
        <pt x="342" y="563" on="0"/>
        <pt x="298" y="563" on="0"/>
        <pt x="268" y="594" on="0"/>
        <pt x="268" y="639" on="0"/>
        <pt x="298" y="669" on="0"/>
        <pt x="342" y="669" on="0"/>
        <pt x="372" y="639" on="0"/>
        <pt x="372" y="594" on="0"/>
      </contour>
      <contour>
        <pt x="162" y="563" on="0"/>
        <pt x="118" y="563" on="0"/>
        <pt x="88" y="594" on="0"/>
        <pt x="88" y="639" on="0"/>
        <pt x="118" y="669" on="0"/>
        <pt x="162" y="669" on="0"/>
        <pt x="192" y="639" on="0"/>
        <pt x="192" y="594" on="0"/>
      </contour>
    </TTGlyph>
    <TTGlyph name="divide" xMin="24" yMin="101" xMax="499" yMax="505">
      <contour>
        <pt x="24" y="273" on="1"/>
        <pt x="24" y="334" on="1"/>
        <pt x="499" y="334" on="1"/>
        <pt x="499" y="273" on="1"/>
      </contour>
      <contour>
        <pt x="283" y="398" on="0"/>
        <pt x="239" y="398" on="0"/>
        <pt x="209" y="429" on="0"/>
        <pt x="209" y="475" on="0"/>
        <pt x="239" y="505" on="0"/>
        <pt x="283" y="505" on="0"/>
        <pt x="314" y="475" on="0"/>
        <pt x="314" y="429" on="0"/>
      </contour>
      <contour>
        <pt x="283" y="101" on="0"/>
        <pt x="239" y="101" on="0"/>
        <pt x="209" y="132" on="0"/>
        <pt x="209" y="178" on="0"/>
        <pt x="239" y="208" on="0"/>
        <pt x="283" y="208" on="0"/>
        <pt x="314" y="178" on="0"/>
        <pt x="314" y="132" on="0"/>
      </contour>
    </TTGlyph>
    <TTGlyph name="dollar" xMin="74" yMin="-121" xMax="453" yMax="762">
      <contour>
        <pt x="89" y="152" on="1"/>
        <pt x="88" y="170" on="1"/>
        <pt x="112" y="181" on="1"/>
        <pt x="123" y="117" on="0"/>
        <pt x="162" y="54" on="0"/>
        <pt x="199" y="44" on="1"/>
        <pt x="230" y="294" on="1"/>
        <pt x="190" y="323" on="1"/>
        <pt x="132" y="364" on="0"/>
        <pt x="87" y="430" on="0"/>
        <pt x="87" y="557" on="0"/>
        <pt x="185" y="641" on="0"/>
        <pt x="265" y="641" on="1"/>
        <pt x="274" y="641" on="1"/>
        <pt x="289" y="762" on="1"/>
        <pt x="334" y="762" on="1"/>
        <pt x="318" y="635" on="1"/>
        <pt x="360" y="628" on="0"/>
        <pt x="386" y="628" on="0"/>
        <pt x="411" y="633" on="1"/>
        <pt x="411" y="620" on="1"/>
        <pt x="411" y="566" on="0"/>
        <pt x="422" y="493" on="1"/>
        <pt x="398" y="481" on="1"/>
        <pt x="384" y="531" on="0"/>
        <pt x="343" y="583" on="0"/>
        <pt x="312" y="591" on="1"/>
        <pt x="285" y="374" on="1"/>
        <pt x="343" y="335" on="1"/>
        <pt x="401" y="295" on="0"/>
        <pt x="453" y="217" on="0"/>
        <pt x="453" y="166" on="1"/>
        <pt x="453" y="86" on="0"/>
        <pt x="345" y="-9" on="0"/>
        <pt x="256" y="-9" on="1"/>
        <pt x="238" y="-9" on="1"/>
        <pt x="224" y="-121" on="1"/>
        <pt x="179" y="-121" on="1"/>
        <pt x="193" y="-4" on="1"/>
        <pt x="129" y="3" on="0"/>
        <pt x="74" y="25" on="1"/>
        <pt x="89" y="93" on="0"/>
      </contour>
      <contour>
        <pt x="355" y="139" on="1"/>
        <pt x="355" y="181" on="0"/>
        <pt x="324" y="227" on="0"/>
        <pt x="291" y="251" on="1"/>
        <pt x="272" y="265" on="1"/>
        <pt x="244" y="39" on="1"/>
        <pt x="355" y="39" on="0"/>
      </contour>
      <contour>
        <pt x="226" y="597" on="0"/>
        <pt x="172" y="550" on="0"/>
        <pt x="172" y="479" on="0"/>
        <pt x="210" y="427" on="0"/>
        <pt x="244" y="402" on="1"/>
        <pt x="268" y="597" on="1"/>
      </contour>
    </TTGlyph>
    <TTGlyph name="dotaccent" xMin="83" yMin="563" xMax="187" yMax="669">
      <contour>
        <pt x="157" y="563" on="0"/>
        <pt x="113" y="563" on="0"/>
        <pt x="83" y="594" on="0"/>
        <pt x="83" y="639" on="0"/>
        <pt x="113" y="669" on="0"/>
        <pt x="157" y="669" on="0"/>
        <pt x="187" y="639" on="0"/>
        <pt x="187" y="594" on="0"/>
      </contour>
    </TTGlyph>
    <TTGlyph name="dotlessi" xMin="22" yMin="-3" xMax="259" yMax="459">
      <contour>
        <pt x="180" y="450" on="1"/>
        <pt x="178" y="229" on="1"/>
        <pt x="178" y="100" on="0"/>
        <pt x="186" y="61" on="1"/>
        <pt x="188" y="48" on="1"/>
        <pt x="189" y="41" on="0"/>
        <pt x="238" y="28" on="0"/>
        <pt x="259" y="26" on="1"/>
        <pt x="256" y="-3" on="1"/>
        <pt x="208" y="0" on="0"/>
        <pt x="70" y="0" on="0"/>
        <pt x="22" y="-3" on="1"/>
        <pt x="25" y="26" on="1"/>
        <pt x="46" y="28" on="0"/>
        <pt x="94" y="41" on="0"/>
        <pt x="95" y="48" on="1"/>
        <pt x="103" y="83" on="0"/>
        <pt x="103" y="188" on="1"/>
        <pt x="103" y="358" on="0"/>
        <pt x="95" y="396" on="1"/>
        <pt x="31" y="415" on="1"/>
        <pt x="29" y="441" on="1"/>
        <pt x="93" y="441" on="0"/>
        <pt x="161" y="459" on="1"/>
      </contour>
    </TTGlyph>
    <TTGlyph name="e" xMin="37" yMin="-9" xMax="428" yMax="460">
      <contour>
        <pt x="338" y="320" on="1"/>
        <pt x="338" y="366" on="0"/>
        <pt x="286" y="411" on="0"/>
        <pt x="254" y="411" on="1"/>
        <pt x="207" y="411" on="0"/>
        <pt x="139" y="337" on="0"/>
        <pt x="128" y="283" on="1"/>
        <pt x="335" y="291" on="1"/>
        <pt x="338" y="306" on="0"/>
      </contour>
      <contour>
        <pt x="251" y="-9" on="1"/>
        <pt x="145" y="-9" on="0"/>
        <pt x="37" y="112" on="0"/>
        <pt x="37" y="313" on="0"/>
        <pt x="156" y="460" on="0"/>
        <pt x="276" y="460" on="1"/>
        <pt x="337" y="460" on="0"/>
        <pt x="428" y="374" on="0"/>
        <pt x="428" y="289" on="1"/>
        <pt x="394" y="248" on="1"/>
        <pt x="388" y="249" on="0"/>
        <pt x="211" y="249" on="0"/>
        <pt x="122" y="242" on="1"/>
        <pt x="122" y="233" on="1"/>
        <pt x="122" y="142" on="0"/>
        <pt x="198" y="51" on="0"/>
        <pt x="330" y="51" on="0"/>
        <pt x="403" y="83" on="1"/>
        <pt x="415" y="53" on="1"/>
        <pt x="338" y="-9" on="0"/>
      </contour>
    </TTGlyph>
    <TTGlyph name="eacute" xMin="37" yMin="-9" xMax="428" yMax="722">
      <contour>
        <pt x="338" y="320" on="1"/>
        <pt x="338" y="366" on="0"/>
        <pt x="286" y="411" on="0"/>
        <pt x="254" y="411" on="1"/>
        <pt x="207" y="411" on="0"/>
        <pt x="139" y="337" on="0"/>
        <pt x="128" y="283" on="1"/>
        <pt x="335" y="291" on="1"/>
        <pt x="338" y="306" on="0"/>
      </contour>
      <contour>
        <pt x="251" y="-9" on="1"/>
        <pt x="145" y="-9" on="0"/>
        <pt x="37" y="112" on="0"/>
        <pt x="37" y="313" on="0"/>
        <pt x="156" y="460" on="0"/>
        <pt x="276" y="460" on="1"/>
        <pt x="337" y="460" on="0"/>
        <pt x="428" y="374" on="0"/>
        <pt x="428" y="289" on="1"/>
        <pt x="394" y="248" on="1"/>
        <pt x="388" y="249" on="0"/>
        <pt x="211" y="249" on="0"/>
        <pt x="122" y="242" on="1"/>
        <pt x="122" y="233" on="1"/>
        <pt x="122" y="142" on="0"/>
        <pt x="198" y="51" on="0"/>
        <pt x="330" y="51" on="0"/>
        <pt x="403" y="83" on="1"/>
        <pt x="415" y="53" on="1"/>
        <pt x="338" y="-9" on="0"/>
      </contour>
      <contour>
        <pt x="397" y="680" on="1"/>
        <pt x="224" y="518" on="1"/>
        <pt x="194" y="523" on="1"/>
        <pt x="328" y="722" on="1"/>
        <pt x="353" y="722" on="0"/>
        <pt x="395" y="697" on="0"/>
      </contour>
    </TTGlyph>
    <TTGlyph name="ecircumflex" xMin="37" yMin="-9" xMax="428" yMax="721">
      <contour>
        <pt x="338" y="320" on="1"/>
        <pt x="338" y="366" on="0"/>
        <pt x="286" y="411" on="0"/>
        <pt x="254" y="411" on="1"/>
        <pt x="207" y="411" on="0"/>
        <pt x="139" y="337" on="0"/>
        <pt x="128" y="283" on="1"/>
        <pt x="335" y="291" on="1"/>
        <pt x="338" y="306" on="0"/>
      </contour>
      <contour>
        <pt x="251" y="-9" on="1"/>
        <pt x="145" y="-9" on="0"/>
        <pt x="37" y="112" on="0"/>
        <pt x="37" y="313" on="0"/>
        <pt x="156" y="460" on="0"/>
        <pt x="276" y="460" on="1"/>
        <pt x="337" y="460" on="0"/>
        <pt x="428" y="374" on="0"/>
        <pt x="428" y="289" on="1"/>
        <pt x="394" y="248" on="1"/>
        <pt x="388" y="249" on="0"/>
        <pt x="211" y="249" on="0"/>
        <pt x="122" y="242" on="1"/>
        <pt x="122" y="233" on="1"/>
        <pt x="122" y="142" on="0"/>
        <pt x="198" y="51" on="0"/>
        <pt x="330" y="51" on="0"/>
        <pt x="403" y="83" on="1"/>
        <pt x="415" y="53" on="1"/>
        <pt x="338" y="-9" on="0"/>
      </contour>
      <contour>
        <pt x="211" y="718" on="1"/>
        <pt x="217" y="721" on="0"/>
        <pt x="240" y="721" on="0"/>
        <pt x="248" y="717" on="1"/>
        <pt x="342" y="523" on="1"/>
        <pt x="312" y="518" on="1"/>
        <pt x="229" y="622" on="1"/>
        <pt x="147" y="518" on="1"/>
        <pt x="117" y="523" on="1"/>
      </contour>
    </TTGlyph>
    <TTGlyph name="edieresis" xMin="37" yMin="-9" xMax="428" yMax="669">
      <contour>
        <pt x="338" y="320" on="1"/>
        <pt x="338" y="366" on="0"/>
        <pt x="286" y="411" on="0"/>
        <pt x="254" y="411" on="1"/>
        <pt x="207" y="411" on="0"/>
        <pt x="139" y="337" on="0"/>
        <pt x="128" y="283" on="1"/>
        <pt x="335" y="291" on="1"/>
        <pt x="338" y="306" on="0"/>
      </contour>
      <contour>
        <pt x="251" y="-9" on="1"/>
        <pt x="145" y="-9" on="0"/>
        <pt x="37" y="112" on="0"/>
        <pt x="37" y="313" on="0"/>
        <pt x="156" y="460" on="0"/>
        <pt x="276" y="460" on="1"/>
        <pt x="337" y="460" on="0"/>
        <pt x="428" y="374" on="0"/>
        <pt x="428" y="289" on="1"/>
        <pt x="394" y="248" on="1"/>
        <pt x="388" y="249" on="0"/>
        <pt x="211" y="249" on="0"/>
        <pt x="122" y="242" on="1"/>
        <pt x="122" y="233" on="1"/>
        <pt x="122" y="142" on="0"/>
        <pt x="198" y="51" on="0"/>
        <pt x="330" y="51" on="0"/>
        <pt x="403" y="83" on="1"/>
        <pt x="415" y="53" on="1"/>
        <pt x="338" y="-9" on="0"/>
      </contour>
      <contour>
        <pt x="375" y="563" on="0"/>
        <pt x="331" y="563" on="0"/>
        <pt x="301" y="594" on="0"/>
        <pt x="301" y="639" on="0"/>
        <pt x="331" y="669" on="0"/>
        <pt x="375" y="669" on="0"/>
        <pt x="405" y="639" on="0"/>
        <pt x="405" y="594" on="0"/>
      </contour>
      <contour>
        <pt x="195" y="563" on="0"/>
        <pt x="151" y="563" on="0"/>
        <pt x="121" y="594" on="0"/>
        <pt x="121" y="639" on="0"/>
        <pt x="151" y="669" on="0"/>
        <pt x="195" y="669" on="0"/>
        <pt x="225" y="639" on="0"/>
        <pt x="225" y="594" on="0"/>
      </contour>
    </TTGlyph>
    <TTGlyph name="egrave" xMin="37" yMin="-9" xMax="428" yMax="722">
      <contour>
        <pt x="338" y="320" on="1"/>
        <pt x="338" y="366" on="0"/>
        <pt x="286" y="411" on="0"/>
        <pt x="254" y="411" on="1"/>
        <pt x="207" y="411" on="0"/>
        <pt x="139" y="337" on="0"/>
        <pt x="128" y="283" on="1"/>
        <pt x="335" y="291" on="1"/>
        <pt x="338" y="306" on="0"/>
      </contour>
      <contour>
        <pt x="251" y="-9" on="1"/>
        <pt x="145" y="-9" on="0"/>
        <pt x="37" y="112" on="0"/>
        <pt x="37" y="313" on="0"/>
        <pt x="156" y="460" on="0"/>
        <pt x="276" y="460" on="1"/>
        <pt x="337" y="460" on="0"/>
        <pt x="428" y="374" on="0"/>
        <pt x="428" y="289" on="1"/>
        <pt x="394" y="248" on="1"/>
        <pt x="388" y="249" on="0"/>
        <pt x="211" y="249" on="0"/>
        <pt x="122" y="242" on="1"/>
        <pt x="122" y="233" on="1"/>
        <pt x="122" y="142" on="0"/>
        <pt x="198" y="51" on="0"/>
        <pt x="330" y="51" on="0"/>
        <pt x="403" y="83" on="1"/>
        <pt x="415" y="53" on="1"/>
        <pt x="338" y="-9" on="0"/>
      </contour>
      <contour>
        <pt x="285" y="518" on="1"/>
        <pt x="112" y="680" on="1"/>
        <pt x="114" y="697" on="0"/>
        <pt x="156" y="722" on="0"/>
        <pt x="181" y="722" on="1"/>
        <pt x="315" y="523" on="1"/>
      </contour>
    </TTGlyph>
    <TTGlyph name="eight" xMin="45" yMin="-9" xMax="460" yMax="673">
      <contour>
        <pt x="357" y="569" on="0"/>
        <pt x="302" y="629" on="0"/>
        <pt x="207" y="629" on="0"/>
        <pt x="154" y="575" on="0"/>
        <pt x="154" y="534" on="1"/>
        <pt x="154" y="451" on="0"/>
        <pt x="273" y="383" on="1"/>
        <pt x="312" y="405" on="0"/>
        <pt x="357" y="485" on="0"/>
      </contour>
      <contour>
        <pt x="132" y="112" on="0"/>
        <pt x="194" y="41" on="0"/>
        <pt x="298" y="41" on="0"/>
        <pt x="366" y="113" on="0"/>
        <pt x="366" y="162" on="1"/>
        <pt x="366" y="259" on="0"/>
        <pt x="231" y="318" on="1"/>
        <pt x="184" y="295" on="0"/>
        <pt x="132" y="211" on="0"/>
      </contour>
      <contour>
        <pt x="460" y="170" on="1"/>
        <pt x="460" y="95" on="0"/>
        <pt x="335" y="-9" on="0"/>
        <pt x="149" y="-9" on="0"/>
        <pt x="45" y="87" on="0"/>
        <pt x="45" y="213" on="0"/>
        <pt x="121" y="312" on="0"/>
        <pt x="193" y="336" on="1"/>
        <pt x="62" y="415" on="0"/>
        <pt x="62" y="514" on="1"/>
        <pt x="62" y="582" on="0"/>
        <pt x="175" y="673" on="0"/>
        <pt x="342" y="673" on="0"/>
        <pt x="438" y="590" on="0"/>
        <pt x="438" y="481" on="0"/>
        <pt x="372" y="388" on="0"/>
        <pt x="309" y="364" on="1"/>
        <pt x="460" y="286" on="0"/>
      </contour>
    </TTGlyph>
    <TTGlyph name="ellipsis" xMin="30" yMin="-9" xMax="555" yMax="98">
      <contour>
        <pt x="314" y="-9" on="0"/>
        <pt x="270" y="-9" on="0"/>
        <pt x="240" y="22" on="0"/>
        <pt x="240" y="68" on="0"/>
        <pt x="270" y="98" on="0"/>
        <pt x="314" y="98" on="0"/>
        <pt x="345" y="68" on="0"/>
        <pt x="345" y="22" on="0"/>
      </contour>
      <contour>
        <pt x="524" y="-9" on="0"/>
        <pt x="480" y="-9" on="0"/>
        <pt x="450" y="22" on="0"/>
        <pt x="450" y="68" on="0"/>
        <pt x="480" y="98" on="0"/>
        <pt x="524" y="98" on="0"/>
        <pt x="555" y="68" on="0"/>
        <pt x="555" y="22" on="0"/>
      </contour>
      <contour>
        <pt x="104" y="-9" on="0"/>
        <pt x="60" y="-9" on="0"/>
        <pt x="30" y="22" on="0"/>
        <pt x="30" y="68" on="0"/>
        <pt x="60" y="98" on="0"/>
        <pt x="104" y="98" on="0"/>
        <pt x="135" y="68" on="0"/>
        <pt x="135" y="22" on="0"/>
      </contour>
    </TTGlyph>
    <TTGlyph name="emdash" xMin="-7" yMin="230" xMax="845" yMax="294">
      <contour>
        <pt x="37" y="294" on="1"/>
        <pt x="279" y="288" on="0"/>
        <pt x="546" y="288" on="0"/>
        <pt x="838" y="294" on="1"/>
        <pt x="845" y="279" on="1"/>
        <pt x="801" y="231" on="1"/>
        <pt x="681" y="233" on="0"/>
        <pt x="147" y="233" on="0"/>
        <pt x="0" y="230" on="1"/>
        <pt x="-7" y="246" on="1"/>
      </contour>
    </TTGlyph>
    <TTGlyph name="endash" xMin="-7" yMin="230" xMax="567" yMax="294">
      <contour>
        <pt x="37" y="294" on="1"/>
        <pt x="138" y="289" on="0"/>
        <pt x="444" y="289" on="0"/>
        <pt x="560" y="294" on="1"/>
        <pt x="567" y="279" on="1"/>
        <pt x="523" y="231" on="1"/>
        <pt x="415" y="235" on="0"/>
        <pt x="116" y="235" on="0"/>
        <pt x="0" y="230" on="1"/>
        <pt x="-7" y="246" on="1"/>
      </contour>
    </TTGlyph>
    <TTGlyph name="equal" xMin="24" yMin="192" xMax="499" yMax="415">
      <contour>
        <pt x="24" y="354" on="1"/>
        <pt x="24" y="415" on="1"/>
        <pt x="499" y="415" on="1"/>
        <pt x="499" y="354" on="1"/>
      </contour>
      <contour>
        <pt x="24" y="192" on="1"/>
        <pt x="24" y="253" on="1"/>
        <pt x="499" y="253" on="1"/>
        <pt x="499" y="192" on="1"/>
      </contour>
    </TTGlyph>
    <TTGlyph name="eth" xMin="39" yMin="-9" xMax="490" yMax="731">
      <contour>
        <pt x="490" y="137" on="0"/>
        <pt x="371" y="-9" on="0"/>
        <pt x="143" y="-9" on="0"/>
        <pt x="39" y="106" on="0"/>
        <pt x="39" y="312" on="0"/>
        <pt x="158" y="459" on="0"/>
        <pt x="278" y="459" on="1"/>
        <pt x="312" y="459" on="0"/>
        <pt x="344" y="443" on="1"/>
        <pt x="301" y="534" on="0"/>
        <pt x="226" y="600" on="1"/>
        <pt x="103" y="510" on="1"/>
        <pt x="103" y="567" on="1"/>
        <pt x="188" y="629" on="1"/>
        <pt x="141" y="664" on="0"/>
        <pt x="76" y="695" on="1"/>
        <pt x="92" y="730" on="1"/>
        <pt x="158" y="703" on="0"/>
        <pt x="225" y="656" on="1"/>
        <pt x="328" y="731" on="1"/>
        <pt x="328" y="674" on="1"/>
        <pt x="265" y="628" on="1"/>
        <pt x="363" y="553" on="0"/>
        <pt x="489" y="358" on="0"/>
      </contour>
      <contour>
        <pt x="267" y="419" on="1"/>
        <pt x="225" y="419" on="0"/>
        <pt x="166" y="377" on="0"/>
        <pt x="152" y="344" on="1"/>
        <pt x="127" y="286" on="0"/>
        <pt x="127" y="147" on="0"/>
        <pt x="191" y="31" on="0"/>
        <pt x="262" y="31" on="1"/>
        <pt x="300" y="31" on="0"/>
        <pt x="358" y="67" on="0"/>
        <pt x="372" y="96" on="1"/>
        <pt x="400" y="151" on="0"/>
        <pt x="402" y="206" on="1"/>
        <pt x="402" y="419" on="0"/>
      </contour>
    </TTGlyph>
    <TTGlyph name="exclam" xMin="64" yMin="-9" xMax="172" yMax="691">
      <contour>
        <pt x="140" y="-9" on="0"/>
        <pt x="96" y="-9" on="0"/>
        <pt x="65" y="22" on="0"/>
        <pt x="65" y="68" on="0"/>
        <pt x="96" y="99" on="0"/>
        <pt x="140" y="99" on="0"/>
        <pt x="171" y="68" on="0"/>
        <pt x="171" y="22" on="0"/>
      </contour>
      <contour>
        <pt x="172" y="691" on="1"/>
        <pt x="139" y="168" on="1"/>
        <pt x="101" y="159" on="1"/>
        <pt x="64" y="664" on="1"/>
        <pt x="64" y="667" on="0"/>
        <pt x="71" y="675" on="0"/>
        <pt x="125" y="690" on="0"/>
      </contour>
    </TTGlyph>
    <TTGlyph name="exclamdown" xMin="64" yMin="-239" xMax="172" yMax="461">
      <contour>
        <pt x="96" y="461" on="0"/>
        <pt x="140" y="461" on="0"/>
        <pt x="171" y="430" on="0"/>
        <pt x="171" y="384" on="0"/>
        <pt x="140" y="353" on="0"/>
        <pt x="96" y="353" on="0"/>
        <pt x="65" y="384" on="0"/>
        <pt x="65" y="430" on="0"/>
      </contour>
      <contour>
        <pt x="64" y="-239" on="1"/>
        <pt x="97" y="284" on="1"/>
        <pt x="135" y="293" on="1"/>
        <pt x="172" y="-212" on="1"/>
        <pt x="172" y="-215" on="0"/>
        <pt x="165" y="-223" on="0"/>
        <pt x="111" y="-238" on="0"/>
      </contour>
    </TTGlyph>
    <TTGlyph name="f" xMin="23" yMin="-3" xMax="393" yMax="730">
      <contour>
        <pt x="260" y="-3" on="1"/>
        <pt x="212" y="0" on="0"/>
        <pt x="71" y="0" on="0"/>
        <pt x="23" y="-3" on="1"/>
        <pt x="26" y="26" on="1"/>
        <pt x="46" y="28" on="0"/>
        <pt x="93" y="41" on="0"/>
        <pt x="94" y="48" on="1"/>
        <pt x="102" y="48" on="0"/>
        <pt x="102" y="406" on="1"/>
        <pt x="33" y="405" on="1"/>
        <pt x="30" y="416" on="1"/>
        <pt x="53" y="455" on="1"/>
        <pt x="67" y="453" on="0"/>
        <pt x="101" y="451" on="1"/>
        <pt x="101" y="516" on="0"/>
        <pt x="146" y="620" on="0"/>
        <pt x="209" y="678" on="0"/>
        <pt x="246" y="698" on="1"/>
        <pt x="306" y="730" on="0"/>
        <pt x="342" y="730" on="1"/>
        <pt x="350" y="730" on="0"/>
        <pt x="387" y="683" on="0"/>
        <pt x="393" y="660" on="1"/>
        <pt x="378" y="641" on="1"/>
        <pt x="335" y="660" on="0"/>
        <pt x="292" y="660" on="1"/>
        <pt x="177" y="660" on="0"/>
        <pt x="177" y="452" on="1"/>
        <pt x="307" y="453" on="1"/>
        <pt x="312" y="441" on="1"/>
        <pt x="281" y="402" on="1"/>
        <pt x="247" y="405" on="0"/>
        <pt x="177" y="406" on="1"/>
        <pt x="177" y="128" on="0"/>
        <pt x="187" y="48" on="1"/>
        <pt x="188" y="41" on="0"/>
        <pt x="243" y="27" on="0"/>
        <pt x="263" y="26" on="1"/>
      </contour>
    </TTGlyph>
</ttFont>
